<?xml version="1.0" encoding="utf-8" standalone="no"?>
<!DOCTYPE svg PUBLIC "-//W3C//DTD SVG 1.1//EN"
  "http://www.w3.org/Graphics/SVG/1.1/DTD/svg11.dtd">
<svg xmlns:xlink="http://www.w3.org/1999/xlink" width="620.39952pt" height="605.99952pt" viewBox="0 0 620.39952 605.99952" xmlns="http://www.w3.org/2000/svg" version="1.1">
 <metadata>
  <rdf:RDF xmlns:dc="http://purl.org/dc/elements/1.1/" xmlns:cc="http://creativecommons.org/ns#" xmlns:rdf="http://www.w3.org/1999/02/22-rdf-syntax-ns#">
   <cc:Work>
    <dc:type rdf:resource="http://purl.org/dc/dcmitype/StillImage"/>
    <dc:date>2026-09-12T16:43:12.462867</dc:date>
    <dc:format>image/svg+xml</dc:format>
    <dc:creator>
     <cc:Agent>
      <dc:title>Matplotlib v3.9.3, https://matplotlib.org/</dc:title>
     </cc:Agent>
    </dc:creator>
   </cc:Work>
  </rdf:RDF>
 </metadata>
 <defs>
  <style type="text/css">*{stroke-linejoin: round; stroke-linecap: butt}</style>
 </defs>
 <g id="figure_1">
  <g id="patch_1">
   <path d="M 0 605.99952 
L 620.39952 605.99952 
L 620.39952 0 
L 0 0 
z
" style="fill: #ffffff"/>
  </g>
  <g id="axes_1">
   <g id="patch_2">
    <path d="M 52.927188 169.488114 
L 613.19952 169.488114 
L 613.19952 7.2 
L 52.927188 7.2 
z
" style="fill: #ffffff"/>
   </g>
   <g id="matplotlib.axis_1">
    <g id="xtick_1">
     <g id="line2d_1">
      <path d="M 52.927188 169.488114 
L 52.927188 7.2 
" clip-path="url(#p842fa6ea64)" style="fill: none; stroke: #d8dee6; stroke-opacity: 0.7; stroke-width: 0.55; stroke-linecap: square"/>
     </g>
     <g id="line2d_2">
      <defs>
       <path id="m9e559c0f7b" d="M 0 0 
L 0 3.5 
" style="stroke: #000000; stroke-width: 0.8"/>
      </defs>
      <g>
       <use xlink:href="#m9e559c0f7b" x="52.927188" y="169.488114" style="stroke: #000000; stroke-width: 0.8"/>
      </g>
     </g>
     <g id="text_1">
      <!-- $\mathdefault{0}$ -->
      <g transform="translate(50.272188 183.682489) scale(0.09 -0.09)">
       <defs>
        <path id="MicrosoftYaHei-30" d="M 284 2325 
Q 284 3606 709 4264 
Q 1134 4922 1941 4922 
Q 3478 4922 3478 2441 
Q 3478 1216 3045 567 
Q 2613 -81 1831 -81 
Q 1094 -81 689 534 
Q 284 1150 284 2325 
z
M 909 2353 
Q 909 425 1888 425 
Q 2850 425 2850 2384 
Q 2850 4413 1906 4413 
Q 909 4413 909 2353 
z
" transform="scale(0.015625)"/>
       </defs>
       <use xlink:href="#MicrosoftYaHei-30" transform="translate(0 0.09375)"/>
      </g>
     </g>
    </g>
    <g id="xtick_2">
     <g id="line2d_3">
      <path d="M 163.164498 169.488114 
L 163.164498 7.2 
" clip-path="url(#p842fa6ea64)" style="fill: none; stroke: #d8dee6; stroke-opacity: 0.7; stroke-width: 0.55; stroke-linecap: square"/>
     </g>
     <g id="line2d_4">
      <g>
       <use xlink:href="#m9e559c0f7b" x="163.164498" y="169.488114" style="stroke: #000000; stroke-width: 0.8"/>
      </g>
     </g>
     <g id="text_2">
      <!-- $\mathdefault{10}$ -->
      <g transform="translate(157.629498 183.682489) scale(0.09 -0.09)">
       <defs>
        <path id="MicrosoftYaHei-31" d="M 1781 0 
L 1781 4141 
Q 1638 3997 1295 3819 
Q 953 3641 663 3569 
L 663 4169 
Q 1047 4275 1484 4508 
Q 1922 4741 2156 4947 
L 2388 4947 
L 2388 0 
L 1781 0 
z
" transform="scale(0.015625)"/>
       </defs>
       <use xlink:href="#MicrosoftYaHei-31" transform="translate(0 0.703125)"/>
       <use xlink:href="#MicrosoftYaHei-30" transform="translate(63.392578 0.703125)"/>
      </g>
     </g>
    </g>
    <g id="xtick_3">
     <g id="line2d_5">
      <path d="M 273.401808 169.488114 
L 273.401808 7.2 
" clip-path="url(#p842fa6ea64)" style="fill: none; stroke: #d8dee6; stroke-opacity: 0.7; stroke-width: 0.55; stroke-linecap: square"/>
     </g>
     <g id="line2d_6">
      <g>
       <use xlink:href="#m9e559c0f7b" x="273.401808" y="169.488114" style="stroke: #000000; stroke-width: 0.8"/>
      </g>
     </g>
     <g id="text_3">
      <!-- $\mathdefault{20}$ -->
      <g transform="translate(267.866808 183.682489) scale(0.09 -0.09)">
       <defs>
        <path id="MicrosoftYaHei-32" d="M 2666 3572 
Q 2666 3963 2419 4186 
Q 2172 4409 1747 4409 
Q 1447 4409 1140 4256 
Q 834 4103 569 3819 
L 569 4413 
Q 806 4659 1107 4790 
Q 1409 4922 1816 4922 
Q 2472 4922 2872 4570 
Q 3272 4219 3272 3619 
Q 3272 3084 3026 2693 
Q 2781 2303 2188 1894 
Q 1581 1475 1376 1294 
Q 1172 1113 1090 947 
Q 1009 781 1009 544 
L 3416 544 
L 3416 0 
L 372 0 
L 372 241 
Q 372 659 486 951 
Q 600 1244 862 1520 
Q 1125 1797 1681 2184 
Q 2250 2584 2458 2886 
Q 2666 3188 2666 3572 
z
" transform="scale(0.015625)"/>
       </defs>
       <use xlink:href="#MicrosoftYaHei-32" transform="translate(0 0.09375)"/>
       <use xlink:href="#MicrosoftYaHei-30" transform="translate(63.892578 0.09375)"/>
      </g>
     </g>
    </g>
    <g id="xtick_4">
     <g id="line2d_7">
      <path d="M 383.639119 169.488114 
L 383.639119 7.2 
" clip-path="url(#p842fa6ea64)" style="fill: none; stroke: #d8dee6; stroke-opacity: 0.7; stroke-width: 0.55; stroke-linecap: square"/>
     </g>
     <g id="line2d_8">
      <g>
       <use xlink:href="#m9e559c0f7b" x="383.639119" y="169.488114" style="stroke: #000000; stroke-width: 0.8"/>
      </g>
     </g>
     <g id="text_4">
      <!-- $\mathdefault{30}$ -->
      <g transform="translate(378.329119 183.682489) scale(0.09 -0.09)">
       <defs>
        <path id="MicrosoftYaHei-33" d="M 447 809 
Q 944 425 1569 425 
Q 2069 425 2361 670 
Q 2653 916 2653 1328 
Q 2653 2247 1338 2247 
L 934 2247 
L 934 2753 
L 1319 2753 
Q 2484 2753 2484 3616 
Q 2484 4413 1594 4413 
Q 1084 4413 634 4069 
L 634 4647 
Q 1109 4922 1744 4922 
Q 2363 4922 2738 4598 
Q 3113 4275 3113 3759 
Q 3113 2809 2144 2538 
L 2144 2525 
Q 2669 2469 2973 2155 
Q 3278 1841 3278 1372 
Q 3278 719 2808 319 
Q 2338 -81 1556 -81 
Q 869 -81 447 175 
L 447 809 
z
" transform="scale(0.015625)"/>
       </defs>
       <use xlink:href="#MicrosoftYaHei-33" transform="translate(0 0.09375)"/>
       <use xlink:href="#MicrosoftYaHei-30" transform="translate(58.642578 0.09375)"/>
      </g>
     </g>
    </g>
    <g id="xtick_5">
     <g id="line2d_9">
      <path d="M 493.876429 169.488114 
L 493.876429 7.2 
" clip-path="url(#p842fa6ea64)" style="fill: none; stroke: #d8dee6; stroke-opacity: 0.7; stroke-width: 0.55; stroke-linecap: square"/>
     </g>
     <g id="line2d_10">
      <g>
       <use xlink:href="#m9e559c0f7b" x="493.876429" y="169.488114" style="stroke: #000000; stroke-width: 0.8"/>
      </g>
     </g>
     <g id="text_5">
      <!-- $\mathdefault{40}$ -->
      <g transform="translate(488.566429 183.682489) scale(0.09 -0.09)">
       <defs>
        <path id="MicrosoftYaHei-34" d="M 2906 4841 
L 2906 1644 
L 3631 1644 
L 3631 1138 
L 2906 1138 
L 2906 0 
L 2313 0 
L 2313 1138 
L 53 1138 
L 53 1616 
Q 656 2294 1265 3178 
Q 1875 4063 2272 4841 
L 2906 4841 
z
M 741 1644 
L 2313 1644 
L 2313 3950 
Q 1988 3366 1616 2817 
Q 1244 2269 741 1644 
z
" transform="scale(0.015625)"/>
       </defs>
       <use xlink:href="#MicrosoftYaHei-34" transform="translate(0 0.09375)"/>
       <use xlink:href="#MicrosoftYaHei-30" transform="translate(58.642578 0.09375)"/>
      </g>
     </g>
    </g>
    <g id="xtick_6">
     <g id="line2d_11">
      <path d="M 604.113739 169.488114 
L 604.113739 7.2 
" clip-path="url(#p842fa6ea64)" style="fill: none; stroke: #d8dee6; stroke-opacity: 0.7; stroke-width: 0.55; stroke-linecap: square"/>
     </g>
     <g id="line2d_12">
      <g>
       <use xlink:href="#m9e559c0f7b" x="604.113739" y="169.488114" style="stroke: #000000; stroke-width: 0.8"/>
      </g>
     </g>
     <g id="text_6">
      <!-- $\mathdefault{50}$ -->
      <g transform="translate(598.848739 183.682489) scale(0.09 -0.09)">
       <defs>
        <path id="MicrosoftYaHei-35" d="M 3294 1494 
Q 3294 784 2823 350 
Q 2353 -84 1559 -84 
Q 878 -84 544 119 
L 544 744 
Q 1034 425 1544 425 
Q 2050 425 2361 704 
Q 2672 984 2672 1447 
Q 2672 1909 2348 2167 
Q 2025 2425 1434 2425 
Q 978 2425 613 2384 
L 791 4841 
L 3053 4841 
L 3053 4303 
L 1306 4303 
L 1206 2931 
L 1647 2950 
Q 2416 2950 2855 2567 
Q 3294 2184 3294 1494 
z
" transform="scale(0.015625)"/>
       </defs>
       <use xlink:href="#MicrosoftYaHei-35" transform="translate(0 0.09375)"/>
       <use xlink:href="#MicrosoftYaHei-30" transform="translate(58.142578 0.09375)"/>
      </g>
     </g>
    </g>
    <g id="text_7">
     <!-- 时间 / h -->
     <g style="fill: #20242a" transform="translate(314.889135 197.913582) scale(0.1 -0.1)">
      <defs>
       <path id="MicrosoftYaHei-65f6" d="M 344 4728 
L 2500 4728 
L 2500 -366 
L 2006 -366 
L 2006 153 
L 838 153 
L 838 -441 
L 344 -441 
L 344 4728 
z
M 2706 3941 
L 4925 3941 
L 4925 5322 
L 5425 5322 
L 5425 3941 
L 6313 3941 
L 6313 3478 
L 5425 3478 
L 5425 116 
Q 5425 -722 4625 -722 
Q 4263 -722 3563 -703 
Q 3531 -478 3463 -178 
Q 4119 -228 4488 -228 
Q 4925 -228 4925 216 
L 4925 3478 
L 2706 3478 
L 2706 3941 
z
M 838 616 
L 2006 616 
L 2006 2234 
L 838 2234 
L 838 616 
z
M 2006 4266 
L 838 4266 
L 838 2684 
L 2006 2684 
L 2006 4266 
z
M 3406 2878 
Q 3906 1966 4163 1422 
Q 4000 1347 3663 1172 
Q 3419 1766 2963 2653 
L 3406 2878 
z
" transform="scale(0.015625)"/>
       <path id="MicrosoftYaHei-95f4" d="M 1863 3647 
L 4513 3647 
L 4513 553 
L 2313 553 
L 2313 166 
L 1863 166 
L 1863 3647 
z
M 2388 4453 
L 2388 4922 
L 6013 4922 
L 6013 -28 
Q 6013 -816 5119 -816 
Q 4756 -816 4169 -803 
Q 4144 -616 4069 -297 
Q 4588 -334 5056 -334 
Q 5525 -334 5525 122 
L 5525 4453 
L 2388 4453 
z
M 419 4084 
L 906 4084 
L 906 -816 
L 419 -816 
L 419 4084 
z
M 2313 997 
L 4063 997 
L 4063 1884 
L 2313 1884 
L 2313 997 
z
M 4063 3203 
L 2313 3203 
L 2313 2328 
L 4063 2328 
L 4063 3203 
z
M 744 5003 
L 1100 5322 
Q 1575 4872 1981 4447 
L 1575 4091 
Q 1194 4541 744 5003 
z
" transform="scale(0.015625)"/>
       <path id="MicrosoftYaHei-20" transform="scale(0.015625)"/>
       <path id="MicrosoftYaHei-2f" d="M 2791 4841 
L 469 -803 
L -103 -803 
L 2219 4841 
L 2791 4841 
z
" transform="scale(0.015625)"/>
       <path id="MicrosoftYaHei-68" d="M 3466 0 
L 2856 0 
L 2856 1988 
Q 2856 3031 2081 3031 
Q 1684 3031 1421 2726 
Q 1159 2422 1159 1959 
L 1159 0 
L 547 0 
L 547 5116 
L 1159 5116 
L 1159 2888 
L 1172 2888 
Q 1569 3538 2300 3538 
Q 3466 3538 3466 2128 
L 3466 0 
z
" transform="scale(0.015625)"/>
      </defs>
      <use xlink:href="#MicrosoftYaHei-65f6"/>
      <use xlink:href="#MicrosoftYaHei-95f4" x="100"/>
      <use xlink:href="#MicrosoftYaHei-20" x="200"/>
      <use xlink:href="#MicrosoftYaHei-2f" x="229.589844"/>
      <use xlink:href="#MicrosoftYaHei-20" x="272.314453"/>
      <use xlink:href="#MicrosoftYaHei-68" x="301.904297"/>
     </g>
    </g>
   </g>
   <g id="matplotlib.axis_2">
    <g id="ytick_1">
     <g id="line2d_13">
      <path d="M 52.927188 148.847455 
L 613.19952 148.847455 
" clip-path="url(#p842fa6ea64)" style="fill: none; stroke: #d8dee6; stroke-opacity: 0.7; stroke-width: 0.55; stroke-linecap: square"/>
     </g>
     <g id="line2d_14">
      <defs>
       <path id="m5ce11363a3" d="M 0 0 
L -3.5 0 
" style="stroke: #000000; stroke-width: 0.8"/>
      </defs>
      <g>
       <use xlink:href="#m5ce11363a3" x="52.927188" y="148.847455" style="stroke: #000000; stroke-width: 0.8"/>
      </g>
     </g>
     <g id="text_8">
      <!-- $\mathdefault{30}$ -->
      <g transform="translate(35.307188 152.444643) scale(0.09 -0.09)">
       <use xlink:href="#MicrosoftYaHei-33" transform="translate(0 0.09375)"/>
       <use xlink:href="#MicrosoftYaHei-30" transform="translate(58.642578 0.09375)"/>
      </g>
     </g>
    </g>
    <g id="ytick_2">
     <g id="line2d_15">
      <path d="M 52.927188 115.68764 
L 613.19952 115.68764 
" clip-path="url(#p842fa6ea64)" style="fill: none; stroke: #d8dee6; stroke-opacity: 0.7; stroke-width: 0.55; stroke-linecap: square"/>
     </g>
     <g id="line2d_16">
      <g>
       <use xlink:href="#m5ce11363a3" x="52.927188" y="115.68764" style="stroke: #000000; stroke-width: 0.8"/>
      </g>
     </g>
     <g id="text_9">
      <!-- $\mathdefault{35}$ -->
      <g transform="translate(35.307188 119.284828) scale(0.09 -0.09)">
       <use xlink:href="#MicrosoftYaHei-33" transform="translate(0 0.09375)"/>
       <use xlink:href="#MicrosoftYaHei-35" transform="translate(58.642578 0.09375)"/>
      </g>
     </g>
    </g>
    <g id="ytick_3">
     <g id="line2d_17">
      <path d="M 52.927188 82.527825 
L 613.19952 82.527825 
" clip-path="url(#p842fa6ea64)" style="fill: none; stroke: #d8dee6; stroke-opacity: 0.7; stroke-width: 0.55; stroke-linecap: square"/>
     </g>
     <g id="line2d_18">
      <g>
       <use xlink:href="#m5ce11363a3" x="52.927188" y="82.527825" style="stroke: #000000; stroke-width: 0.8"/>
      </g>
     </g>
     <g id="text_10">
      <!-- $\mathdefault{40}$ -->
      <g transform="translate(35.307188 86.125013) scale(0.09 -0.09)">
       <use xlink:href="#MicrosoftYaHei-34" transform="translate(0 0.09375)"/>
       <use xlink:href="#MicrosoftYaHei-30" transform="translate(58.642578 0.09375)"/>
      </g>
     </g>
    </g>
    <g id="ytick_4">
     <g id="line2d_19">
      <path d="M 52.927188 49.36801 
L 613.19952 49.36801 
" clip-path="url(#p842fa6ea64)" style="fill: none; stroke: #d8dee6; stroke-opacity: 0.7; stroke-width: 0.55; stroke-linecap: square"/>
     </g>
     <g id="line2d_20">
      <g>
       <use xlink:href="#m5ce11363a3" x="52.927188" y="49.36801" style="stroke: #000000; stroke-width: 0.8"/>
      </g>
     </g>
     <g id="text_11">
      <!-- $\mathdefault{45}$ -->
      <g transform="translate(35.307188 52.965198) scale(0.09 -0.09)">
       <use xlink:href="#MicrosoftYaHei-34" transform="translate(0 0.359375)"/>
       <use xlink:href="#MicrosoftYaHei-35" transform="translate(58.642578 0.359375)"/>
      </g>
     </g>
    </g>
    <g id="ytick_5">
     <g id="line2d_21">
      <path d="M 52.927188 16.208195 
L 613.19952 16.208195 
" clip-path="url(#p842fa6ea64)" style="fill: none; stroke: #d8dee6; stroke-opacity: 0.7; stroke-width: 0.55; stroke-linecap: square"/>
     </g>
     <g id="line2d_22">
      <g>
       <use xlink:href="#m5ce11363a3" x="52.927188" y="16.208195" style="stroke: #000000; stroke-width: 0.8"/>
      </g>
     </g>
     <g id="text_12">
      <!-- $\mathdefault{50}$ -->
      <g transform="translate(35.397188 19.805383) scale(0.09 -0.09)">
       <use xlink:href="#MicrosoftYaHei-35" transform="translate(0 0.09375)"/>
       <use xlink:href="#MicrosoftYaHei-30" transform="translate(58.142578 0.09375)"/>
      </g>
     </g>
    </g>
    <g id="text_13">
     <!-- 环境温度 / °C -->
     <g style="fill: #20242a" transform="translate(28.82125 118.822182) rotate(-90) scale(0.1 -0.1)">
      <defs>
       <path id="MicrosoftYaHei-73af" d="M 2606 4447 
L 2606 4916 
L 6050 4916 
L 6050 4447 
L 4441 4447 
Q 4228 3716 3959 3053 
L 4369 3053 
L 4369 -816 
L 3875 -816 
L 3875 2850 
Q 3247 1381 2338 259 
Q 2175 422 1944 566 
Q 3284 2200 3925 4447 
L 2606 4447 
z
M 94 922 
Q 544 1031 1050 1166 
L 1050 2641 
L 213 2641 
L 213 3091 
L 1050 3091 
L 1050 4241 
L 169 4241 
L 169 4691 
L 2375 4691 
L 2375 4241 
L 1544 4241 
L 1544 3091 
L 2369 3091 
L 2369 2641 
L 1544 2641 
L 1544 1297 
Q 1922 1400 2331 1516 
Q 2313 1284 2325 1084 
Q 1081 691 175 391 
L 94 922 
z
M 4856 2909 
Q 5813 1628 6313 834 
L 5888 509 
Q 5225 1622 4469 2653 
L 4856 2909 
z
" transform="scale(0.015625)"/>
       <path id="MicrosoftYaHei-5883" d="M 2338 2722 
L 5756 2722 
L 5756 591 
L 5325 591 
L 5325 734 
L 4738 734 
L 4738 59 
Q 4738 -284 5063 -284 
L 5456 -284 
Q 5763 -284 5806 28 
Q 5844 272 5856 603 
Q 6094 497 6319 416 
Q 6275 28 6225 -172 
Q 6119 -703 5519 -703 
L 4950 -703 
Q 4294 -703 4294 -78 
L 4294 734 
L 3709 734 
Q 3628 50 3175 -284 
Q 2794 -591 1838 -866 
Q 1706 -653 1550 -434 
Q 2525 -228 2888 66 
Q 3188 300 3250 734 
L 2769 734 
L 2769 591 
L 2338 591 
L 2338 2722 
z
M 106 678 
Q 441 756 881 869 
L 881 3259 
L 169 3259 
L 169 3703 
L 881 3703 
L 881 5266 
L 1338 5266 
L 1338 3703 
L 1981 3703 
L 1981 3259 
L 1338 3259 
L 1338 991 
Q 1688 1084 2094 1197 
Q 2100 928 2113 728 
Q 1150 466 200 159 
L 106 678 
z
M 2113 3522 
L 3238 3522 
Q 3066 3794 2856 4066 
L 3225 4297 
Q 3481 3984 3700 3678 
L 3466 3522 
L 4409 3522 
Q 4663 3909 4881 4303 
L 5331 4053 
Q 5119 3781 4909 3522 
L 6200 3522 
L 6200 3147 
L 2113 3147 
L 2113 3522 
z
M 2263 4703 
L 3913 4703 
Q 3800 4928 3663 5159 
L 4100 5341 
Q 4291 5006 4425 4703 
L 5988 4703 
L 5988 4328 
L 2263 4328 
L 2263 4703 
z
M 2769 1097 
L 5325 1097 
L 5325 1559 
L 2769 1559 
L 2769 1097 
z
M 5325 2359 
L 2769 2359 
L 2769 1909 
L 5325 1909 
L 5325 2359 
z
" transform="scale(0.015625)"/>
       <path id="MicrosoftYaHei-6e29" d="M 1331 -109 
L 1944 -109 
L 1944 1928 
L 5850 1928 
L 5850 -109 
L 6313 -109 
L 6313 -559 
L 1331 -559 
L 1331 -109 
z
M 2181 5003 
L 5606 5003 
L 5606 2278 
L 5144 2278 
L 5144 2553 
L 2644 2553 
L 2644 2272 
L 2181 2272 
L 2181 5003 
z
M 2644 2978 
L 5144 2978 
L 5144 3572 
L 2644 3572 
L 2644 2978 
z
M 5144 4578 
L 2644 4578 
L 2644 3984 
L 5144 3984 
L 5144 4578 
z
M 875 1809 
Q 1131 1709 1388 1622 
Q 1125 534 813 -791 
L 263 -628 
Q 613 484 875 1809 
z
M 5375 1491 
L 4694 1491 
L 4694 -109 
L 5375 -109 
L 5375 1491 
z
M 3556 -109 
L 4231 -109 
L 4231 1491 
L 3556 1491 
L 3556 -109 
z
M 2419 -109 
L 3094 -109 
L 3094 1491 
L 2419 1491 
L 2419 -109 
z
M 400 3622 
Q 869 3291 1500 2772 
Q 1269 2509 1138 2366 
Q 431 2997 88 3259 
L 400 3622 
z
M 638 5241 
Q 1113 4866 1713 4328 
Q 1500 4109 1344 3941 
Q 669 4597 319 4897 
L 638 5241 
z
" transform="scale(0.015625)"/>
       <path id="MicrosoftYaHei-5ea6" d="M 1550 1216 
L 1550 1628 
L 5469 1628 
L 5469 1222 
Q 4903 613 4147 163 
Q 5050 -200 6263 -309 
L 6019 -797 
Q 4625 -603 3644 -109 
Q 2600 -619 1250 -866 
Q 1150 -666 994 -416 
Q 2231 -222 3166 166 
Q 2497 600 2066 1216 
L 1550 1216 
z
M 1363 3541 
L 2294 3541 
L 2294 4066 
L 2769 4066 
L 2769 3541 
L 4538 3541 
L 4538 4072 
L 5013 4072 
L 5013 3541 
L 6150 3541 
L 6150 3128 
L 5013 3128 
L 5013 1928 
L 4538 1928 
L 4538 2147 
L 2769 2147 
L 2769 1922 
L 2294 1922 
L 2294 3128 
L 1363 3128 
L 1363 3541 
z
M 3025 5172 
L 3481 5391 
Q 3694 5056 3909 4634 
L 6213 4634 
L 6213 4197 
L 1225 4197 
L 1225 2316 
Q 1225 178 394 -872 
Q 238 -666 38 -447 
Q 725 397 738 2347 
L 738 4634 
L 3331 4634 
Q 3188 4909 3025 5172 
z
M 2769 2547 
L 4538 2547 
L 4538 3128 
L 2769 3128 
L 2769 2547 
z
M 4819 1216 
L 2588 1216 
Q 3031 728 3656 391 
Q 4334 741 4819 1216 
z
" transform="scale(0.015625)"/>
       <path id="MicrosoftYaHei-b0" d="M 1306 4894 
Q 1691 4894 1967 4620 
Q 2244 4347 2244 3959 
Q 2244 3569 1967 3295 
Q 1691 3022 1306 3022 
Q 922 3022 645 3295 
Q 369 3569 369 3959 
Q 369 4347 645 4620 
Q 922 4894 1306 4894 
z
M 1306 3438 
Q 1522 3438 1675 3592 
Q 1828 3747 1828 3959 
Q 1828 4175 1673 4326 
Q 1519 4478 1306 4478 
Q 1094 4478 941 4326 
Q 788 4175 788 3959 
Q 788 3747 939 3592 
Q 1091 3438 1306 3438 
z
" transform="scale(0.015625)"/>
       <path id="MicrosoftYaHei-43" d="M 3938 200 
Q 3403 -81 2597 -81 
Q 1556 -81 934 580 
Q 313 1241 313 2328 
Q 313 3497 1013 4209 
Q 1713 4922 2791 4922 
Q 3484 4922 3938 4725 
L 3938 4072 
Q 3419 4359 2797 4359 
Q 1988 4359 1478 3820 
Q 969 3281 969 2366 
Q 969 1497 1444 986 
Q 1919 475 2688 475 
Q 3406 475 3938 800 
L 3938 200 
z
" transform="scale(0.015625)"/>
      </defs>
      <use xlink:href="#MicrosoftYaHei-73af"/>
      <use xlink:href="#MicrosoftYaHei-5883" x="100"/>
      <use xlink:href="#MicrosoftYaHei-6e29" x="200"/>
      <use xlink:href="#MicrosoftYaHei-5ea6" x="300"/>
      <use xlink:href="#MicrosoftYaHei-20" x="400"/>
      <use xlink:href="#MicrosoftYaHei-2f" x="429.589844"/>
      <use xlink:href="#MicrosoftYaHei-20" x="472.314453"/>
      <use xlink:href="#MicrosoftYaHei-b0" x="501.904297"/>
      <use xlink:href="#MicrosoftYaHei-43" x="542.675781"/>
     </g>
    </g>
   </g>
   <g id="line2d_23">
    <path d="M 52.927188 162.111381 
L 55.499391 114.745902 
L 56.050578 106.707962 
L 56.418036 99.644922 
L 57.33668 86.122349 
L 57.520409 85.21377 
L 57.704138 82.123276 
L 57.887866 80.949418 
L 58.806511 69.582234 
L 59.357697 64.323087 
L 59.541426 62.731416 
L 59.725155 60.025575 
L 59.908884 59.090468 
L 60.092613 56.198932 
L 60.276342 55.323513 
L 60.643799 51.602982 
L 60.827528 51.350967 
L 61.194986 47.225886 
L 61.378715 47.219254 
L 61.562443 46.304043 
L 61.746172 43.943065 
L 61.929901 44.46699 
L 62.11363 43.200285 
L 62.297359 42.742679 
L 62.481088 39.340482 
L 62.664817 38.743606 
L 63.032274 36.548426 
L 63.216003 36.687697 
L 63.399732 35.51384 
L 63.583461 36.051029 
L 63.76719 35.367936 
L 63.950919 32.887582 
L 64.134647 32.801367 
L 64.685834 30.314381 
L 64.869563 29.962887 
L 65.053292 29.36601 
L 65.420749 29.962887 
L 65.604478 28.152361 
L 65.788207 28.371215 
L 65.971936 27.276942 
L 66.155665 25.393464 
L 66.339394 26.951975 
L 66.523122 27.104511 
L 66.706851 25.983709 
L 66.89058 25.559263 
L 67.074309 24.000752 
L 67.258038 23.987488 
L 67.441767 22.919742 
L 67.625496 22.97943 
L 67.809224 23.503355 
L 67.992953 21.885156 
L 68.176682 23.702314 
L 68.360411 23.901272 
L 68.54414 23.417139 
L 68.727869 21.109216 
L 69.095326 22.468768 
L 69.279055 21.135744 
L 69.462784 22.070851 
L 69.646513 20.087894 
L 69.830242 20.711298 
L 70.197699 20.824042 
L 70.381428 19.577233 
L 70.748886 21.036264 
L 70.932615 20.78425 
L 71.116344 17.872818 
L 71.300073 17.91261 
L 71.483801 18.463063 
L 71.66753 19.769559 
L 71.851259 17.335629 
L 72.034988 17.84629 
L 72.218717 17.939138 
L 72.586175 19.192579 
L 72.769903 19.676712 
L 72.953632 16.931079 
L 73.32109 19.066571 
L 73.504819 18.642126 
L 73.688548 17.660595 
L 73.872276 18.914036 
L 74.056005 16.599481 
L 74.239734 16.858128 
L 74.423463 16.924447 
L 74.607192 17.806498 
L 74.790921 17.10351 
L 74.97465 17.189726 
L 75.158378 16.917815 
L 75.342107 18.734973 
L 75.525836 17.587644 
L 75.709565 18.781397 
L 75.893294 17.23615 
L 76.260752 18.310528 
L 76.44448 18.403375 
L 76.628209 16.76528 
L 76.811938 18.104937 
L 76.995667 15.578159 
L 77.363125 17.421845 
L 77.546853 16.586217 
L 77.730582 18.436535 
L 77.914311 15.31288 
L 78.09804 16.858128 
L 78.281769 15.836805 
L 78.465498 18.131465 
L 78.649227 16.771912 
L 78.832955 16.738752 
L 79.016684 15.233297 
L 79.200413 16.42705 
L 79.384142 16.73212 
L 79.567871 17.395317 
L 79.7516 17.163198 
L 79.935329 16.519898 
L 80.119057 16.771912 
L 80.302786 18.144729 
L 80.486515 15.127185 
L 80.670244 14.895067 
L 80.853973 17.401949 
L 81.037702 16.029132 
L 81.22143 17.50806 
L 81.405159 15.637847 
L 81.588888 16.931079 
L 81.772617 15.677638 
L 82.140075 15.319512 
L 82.323804 17.50806 
L 82.507532 14.828747 
L 82.691261 17.10351 
L 82.87499 17.740179 
L 83.058719 16.029132 
L 83.242448 16.639273 
L 83.426177 15.113921 
L 83.609906 15.186873 
L 83.793634 16.811704 
L 83.977363 14.709372 
L 84.161092 16.904551 
L 84.344821 16.15514 
L 84.52855 17.017295 
L 84.712279 14.762427 
L 84.896007 17.322365 
L 85.079736 17.720283 
L 85.447194 14.576732 
L 85.814652 15.385832 
L 85.998381 14.914963 
L 86.182109 14.901699 
L 86.549567 16.818336 
L 86.733296 15.306248 
L 86.917025 15.671006 
L 87.284483 17.554484 
L 87.468211 15.392464 
L 87.65194 16.997399 
L 87.835669 14.762427 
L 88.019398 17.070351 
L 88.203127 17.461636 
L 88.386856 15.107289 
L 88.570585 17.355525 
L 88.754313 17.269309 
L 89.121771 14.968018 
L 89.3055 17.216254 
L 89.489229 16.838232 
L 89.856686 14.643052 
L 90.224144 17.388685 
L 90.407873 17.819762 
L 90.591602 17.10351 
L 90.775331 17.428477 
L 90.95906 15.617951 
L 91.142788 17.461636 
L 91.510246 15.564895 
L 91.693975 15.936285 
L 91.877704 17.20299 
L 92.061433 15.200137 
L 92.245162 15.491943 
L 92.42889 15.418992 
L 92.612619 17.428477 
L 92.796348 17.455004 
L 92.980077 14.788955 
L 93.163806 16.546425 
L 93.347535 16.871392 
L 93.898721 14.696108 
L 94.08245 16.917815 
L 94.266179 14.802219 
L 94.449908 17.786603 
L 94.633637 16.0225 
L 94.817365 15.763854 
L 95.001094 17.514692 
L 95.184823 17.401949 
L 95.368552 16.473474 
L 95.552281 14.662948 
L 95.73601 15.889861 
L 95.919739 14.769059 
L 96.103467 15.200137 
L 96.287196 16.314307 
L 96.470925 15.266457 
L 96.654654 17.806498 
L 96.838383 17.501428 
L 97.022112 15.113921 
L 97.022112 15.113921 
" clip-path="url(#p842fa6ea64)" style="fill: none; stroke: #c44e52; stroke-width: 1.3; stroke-linecap: square"/>
   </g>
   <g id="line2d_24">
    <path d="M 97.022112 15.113921 
L 613.19952 15.113921 
" clip-path="url(#p842fa6ea64)" style="fill: none; stroke-dasharray: 5.55,2.4; stroke-dashoffset: 0; stroke: #c44e52; stroke-width: 1.5"/>
   </g>
   <g id="line2d_25">
    <path d="M 97.022112 169.488114 
L 97.022112 7.2 
" clip-path="url(#p842fa6ea64)" style="fill: none; stroke-dasharray: 0.8,1.32; stroke-dashoffset: 0; stroke: #72777c; stroke-width: 0.8"/>
   </g>
   <g id="patch_3">
    <path d="M 52.927188 169.488114 
L 52.927188 7.2 
" style="fill: none; stroke: #3d4652; stroke-width: 0.8; stroke-linejoin: miter; stroke-linecap: square"/>
   </g>
   <g id="patch_4">
    <path d="M 52.927188 169.488114 
L 613.19952 169.488114 
" style="fill: none; stroke: #3d4652; stroke-width: 0.8; stroke-linejoin: miter; stroke-linecap: square"/>
   </g>
   <g id="legend_1">
    <g id="patch_5">
     <path d="M 513.494989 164.988114 
L 606.89952 164.988114 
Q 608.69952 164.988114 608.69952 163.188114 
L 608.69952 136.224676 
Q 608.69952 134.424676 606.89952 134.424676 
L 513.494989 134.424676 
Q 511.694989 134.424676 511.694989 136.224676 
L 511.694989 163.188114 
Q 511.694989 164.988114 513.494989 164.988114 
z
" style="fill: #ffffff; opacity: 0.8; stroke: #cccccc; stroke-linejoin: miter"/>
    </g>
    <g id="line2d_26">
     <path d="M 515.294989 142.069051 
L 524.294989 142.069051 
L 533.294989 142.069051 
" style="fill: none; stroke: #c44e52; stroke-width: 1.3; stroke-linecap: square"/>
    </g>
    <g id="text_14">
     <!-- 附件 1 实测插值 -->
     <g style="fill: #20242a" transform="translate(540.494989 145.219051) scale(0.09 -0.09)">
      <defs>
       <path id="MicrosoftYaHei-9644" d="M 2225 1622 
Q 2400 453 1613 297 
Q 1350 253 1006 291 
Q 956 547 869 775 
L 869 -841 
L 400 -841 
L 400 5022 
L 2231 5022 
L 2231 4584 
Q 2000 3803 1669 2866 
Q 2150 2178 2225 1622 
z
M 3475 3947 
L 5056 3947 
L 5056 5284 
L 5544 5284 
L 5544 3947 
L 6325 3947 
L 6325 3478 
L 5544 3478 
L 5544 122 
Q 5544 -709 4650 -709 
Q 4281 -709 3900 -697 
Q 3869 -466 3800 -159 
Q 4269 -216 4588 -216 
Q 5056 -216 5056 216 
L 5056 3478 
L 3475 3478 
L 3475 3947 
z
M 2044 2772 
Q 2725 3809 3150 5291 
L 3638 5184 
Q 3459 4606 3244 4088 
L 3244 -828 
L 2769 -828 
L 2769 3081 
Q 2550 2678 2306 2322 
Q 2194 2566 2044 2772 
z
M 1444 747 
Q 1869 828 1731 1641 
Q 1644 2147 1169 2766 
Q 1438 3553 1719 4584 
L 869 4584 
L 869 797 
Q 1200 716 1444 747 
z
M 3581 2747 
L 3975 2934 
Q 4350 2266 4656 1516 
L 4194 1309 
Q 3900 2072 3581 2747 
z
" transform="scale(0.015625)"/>
       <path id="MicrosoftYaHei-4ef6" d="M 1950 1816 
L 4119 1816 
L 4119 3397 
L 2928 3397 
Q 2675 2725 2375 2197 
Q 2194 2372 1963 2528 
Q 2556 3572 2838 4859 
L 3344 4716 
Q 3222 4250 3081 3834 
L 4119 3834 
L 4119 5284 
L 4619 5284 
L 4619 3834 
L 6113 3834 
L 6113 3397 
L 4619 3397 
L 4619 1816 
L 6319 1816 
L 6319 1378 
L 4619 1378 
L 4619 -809 
L 4119 -809 
L 4119 1378 
L 1950 1378 
L 1950 1816 
z
M 69 2191 
Q 931 3466 1456 5278 
L 1969 5128 
Q 1738 4400 1469 3763 
L 1469 -816 
L 975 -816 
L 975 2731 
Q 656 2141 294 1647 
Q 200 1916 69 2191 
z
" transform="scale(0.015625)"/>
       <path id="MicrosoftYaHei-5b9e" d="M 113 -397 
Q 2419 34 3081 972 
L 213 972 
L 213 1434 
L 3313 1434 
Q 3525 2084 3506 3703 
L 4031 3703 
Q 4031 2097 3856 1434 
L 6225 1434 
L 6225 972 
L 3681 972 
Q 3631 872 3563 759 
Q 4900 197 6181 -403 
L 5906 -878 
Q 4569 -197 3263 391 
Q 2413 -441 413 -891 
Q 269 -616 113 -397 
z
M 331 4422 
L 3194 4422 
Q 3038 4703 2775 5078 
L 3231 5334 
Q 3438 5059 3731 4609 
L 3388 4422 
L 6063 4422 
L 6063 3303 
L 5563 3303 
L 5563 3959 
L 831 3959 
L 831 3303 
L 331 3303 
L 331 4422 
z
M 1100 2734 
Q 1819 2409 2450 2053 
L 2181 1622 
Q 1556 2003 863 2334 
L 1100 2734 
z
M 1663 3691 
Q 2388 3341 2981 2984 
L 2700 2559 
Q 2119 2934 1419 3322 
L 1663 3691 
z
" transform="scale(0.015625)"/>
       <path id="MicrosoftYaHei-6d4b" d="M 875 1753 
Q 1175 1597 1369 1522 
Q 950 -41 763 -784 
L 250 -547 
Q 619 497 875 1753 
z
M 638 5166 
Q 1019 4847 1588 4303 
Q 1381 4103 1213 3928 
Q 756 4434 313 4853 
L 638 5166 
z
M 356 3559 
Q 881 3134 1350 2716 
Q 1188 2547 988 2322 
Q 425 2878 50 3216 
L 356 3559 
z
M 5575 5284 
L 6031 5284 
L 6031 -34 
Q 6031 -753 5338 -753 
Q 5038 -753 4625 -741 
Q 4600 -509 4538 -228 
Q 4938 -272 5219 -272 
Q 5575 -272 5575 84 
L 5575 5284 
z
M 5038 634 
L 4600 634 
L 4600 4778 
L 5038 4778 
L 5038 634 
z
M 1706 4941 
L 4063 4941 
L 4063 991 
L 3613 991 
L 3613 4503 
L 2156 4503 
L 2156 991 
L 1706 991 
L 1706 4941 
z
M 2681 3966 
L 3138 3966 
L 3138 2416 
Q 3138 1466 2963 891 
Q 3775 266 4375 -234 
L 4038 -616 
Q 3538 -141 2800 472 
Q 2413 -297 1406 -884 
Q 1269 -684 1100 -484 
Q 2031 53 2375 709 
Q 2681 1278 2681 2403 
L 2681 3966 
z
" transform="scale(0.015625)"/>
       <path id="MicrosoftYaHei-63d2" d="M 3694 2409 
Q 3188 2253 2663 2116 
L 2663 1291 
L 3669 1291 
L 3669 866 
L 2663 866 
L 2663 -66 
L 3894 -66 
L 3894 3266 
L 2081 3266 
L 2081 3716 
L 3894 3716 
L 3894 4453 
Q 3156 4413 2306 4378 
Q 2269 4591 2219 4822 
Q 4225 4872 6025 5053 
L 6113 4603 
Q 5347 4538 4356 4478 
L 4356 3716 
L 6319 3716 
L 6319 3266 
L 4356 3266 
L 4356 -66 
L 5588 -66 
L 5588 872 
L 4594 872 
L 4594 1297 
L 5588 1297 
L 5588 2153 
L 4575 2153 
L 4575 2578 
L 6038 2578 
L 6038 -841 
L 5588 -841 
L 5588 -491 
L 2663 -491 
L 2663 -859 
L 2219 -859 
L 2219 2441 
Q 2913 2609 3481 2847 
L 3694 2409 
z
M 88 1966 
Q 491 2138 875 2319 
L 875 3728 
L 131 3728 
L 131 4166 
L 875 4166 
L 875 5316 
L 1331 5316 
L 1331 4166 
L 2050 4166 
L 2050 3728 
L 1331 3728 
L 1331 2541 
Q 1669 2709 1994 2884 
Q 2013 2572 2044 2384 
Q 1688 2203 1331 2022 
L 1331 -103 
Q 1331 -741 788 -772 
Q 538 -784 231 -778 
Q 206 -534 156 -259 
Q 456 -284 650 -284 
Q 875 -284 875 -47 
L 875 1788 
Q 513 1603 150 1416 
L 88 1966 
z
" transform="scale(0.015625)"/>
       <path id="MicrosoftYaHei-503c" d="M 1619 -216 
L 2250 -216 
L 2250 3653 
L 3725 3653 
L 3725 4222 
L 1913 4222 
L 1913 4647 
L 3725 4647 
L 3725 5309 
L 4200 5309 
L 4200 4647 
L 6169 4647 
L 6169 4222 
L 4200 4222 
L 4200 3653 
L 5713 3653 
L 5713 -216 
L 6306 -216 
L 6306 -641 
L 1619 -641 
L 1619 -216 
z
M 69 2247 
Q 906 3497 1369 5278 
L 1831 5141 
Q 1581 4334 1288 3628 
L 1288 -816 
L 831 -816 
L 831 2666 
Q 563 2166 263 1734 
Q 175 1997 69 2247 
z
M 2713 -216 
L 5250 -216 
L 5250 353 
L 2713 353 
L 2713 -216 
z
M 5250 3241 
L 2713 3241 
L 2713 2678 
L 5250 2678 
L 5250 3241 
z
M 2713 1716 
L 5250 1716 
L 5250 2278 
L 2713 2278 
L 2713 1716 
z
M 2713 753 
L 5250 753 
L 5250 1316 
L 2713 1316 
L 2713 753 
z
" transform="scale(0.015625)"/>
      </defs>
      <use xlink:href="#MicrosoftYaHei-9644"/>
      <use xlink:href="#MicrosoftYaHei-4ef6" x="100"/>
      <use xlink:href="#MicrosoftYaHei-20" x="200"/>
      <use xlink:href="#MicrosoftYaHei-31" x="229.589844"/>
      <use xlink:href="#MicrosoftYaHei-20" x="288.232422"/>
      <use xlink:href="#MicrosoftYaHei-5b9e" x="317.822266"/>
      <use xlink:href="#MicrosoftYaHei-6d4b" x="417.822266"/>
      <use xlink:href="#MicrosoftYaHei-63d2" x="517.822266"/>
      <use xlink:href="#MicrosoftYaHei-503c" x="617.822266"/>
     </g>
    </g>
    <g id="line2d_27">
     <path d="M 515.294989 156.00077 
L 524.294989 156.00077 
L 533.294989 156.00077 
" style="fill: none; stroke-dasharray: 5.55,2.4; stroke-dashoffset: 0; stroke: #c44e52; stroke-width: 1.5"/>
    </g>
    <g id="text_15">
     <!-- 4 h 后末值假设 -->
     <g style="fill: #20242a" transform="translate(540.494989 159.15077) scale(0.09 -0.09)">
      <defs>
       <path id="MicrosoftYaHei-540e" d="M 1888 1984 
L 5688 1984 
L 5688 -828 
L 5188 -828 
L 5188 -403 
L 2388 -403 
L 2388 -828 
L 1888 -828 
L 1888 1984 
z
M 1313 2991 
Q 1313 1272 1138 672 
Q 963 -16 394 -847 
Q 250 -634 50 -409 
Q 494 222 650 859 
Q 806 1472 806 2659 
L 806 4766 
Q 3544 4853 5631 5141 
L 5931 4622 
Q 3344 4359 1313 4284 
L 1313 3459 
L 6263 3459 
L 6263 2991 
L 1313 2991 
z
M 5188 1528 
L 2388 1528 
L 2388 41 
L 5188 41 
L 5188 1528 
z
" transform="scale(0.015625)"/>
       <path id="MicrosoftYaHei-672b" d="M 6306 9 
Q 6119 -222 5963 -441 
Q 4328 450 3444 1844 
L 3444 -841 
L 2956 -841 
L 2956 1853 
Q 2072 488 419 -441 
Q 275 -203 88 -16 
Q 1769 866 2713 2172 
L 631 2172 
L 631 2634 
L 2956 2634 
L 2956 3784 
L 300 3784 
L 300 4247 
L 2956 4247 
L 2956 5341 
L 3444 5341 
L 3444 4247 
L 6094 4247 
L 6094 3784 
L 3444 3784 
L 3444 2634 
L 5763 2634 
L 5763 2172 
L 3659 2172 
Q 4516 894 6306 9 
z
" transform="scale(0.015625)"/>
       <path id="MicrosoftYaHei-5047" d="M 3763 4953 
L 3763 2841 
L 3325 2841 
L 3325 3034 
L 2319 3034 
L 2319 2247 
L 3625 2247 
L 3625 1847 
L 2319 1847 
L 2319 1047 
L 3706 1047 
L 3706 647 
L 2319 647 
L 2319 -847 
L 1856 -847 
L 1856 4953 
L 3763 4953 
z
M 3756 2109 
L 3756 2497 
L 5963 2497 
L 5963 2122 
Q 5763 1094 5191 369 
Q 5663 -106 6381 -378 
Q 6138 -659 6031 -816 
Q 5350 -463 4888 34 
Q 4309 -531 3450 -872 
Q 3325 -684 3156 -472 
Q 4044 -159 4606 375 
Q 4081 1109 3941 2109 
L 3756 2109 
z
M 63 2247 
Q 863 3666 1175 5316 
L 1638 5228 
Q 1478 4528 1256 3881 
L 1256 -859 
L 819 -859 
L 819 2788 
Q 566 2244 263 1741 
Q 181 1984 63 2247 
z
M 3969 3447 
L 5475 3447 
L 5475 4559 
L 4006 4559 
L 4006 4959 
L 5913 4959 
L 5913 2809 
L 5475 2809 
L 5475 3047 
L 3969 3047 
L 3969 3447 
z
M 3325 4553 
L 2319 4553 
L 2319 3434 
L 3325 3434 
L 3325 4553 
z
M 5513 2109 
L 4350 2109 
Q 4484 1288 4903 703 
Q 5366 1297 5513 2109 
z
" transform="scale(0.015625)"/>
       <path id="MicrosoftYaHei-8bbe" d="M 2231 2116 
L 2231 2547 
L 5638 2547 
L 5638 2116 
Q 5144 1031 4419 416 
Q 5216 -109 6338 -316 
Q 6119 -597 5956 -822 
Q 4841 -500 4013 113 
Q 3163 -463 1863 -872 
Q 1700 -641 1538 -422 
Q 2778 -88 3613 431 
Q 2888 1131 2559 2116 
L 2231 2116 
z
M 4856 4553 
L 3294 4553 
L 3294 4372 
Q 3294 3222 2244 2659 
Q 2075 2866 1881 3047 
Q 2806 3522 2806 4359 
L 2806 5016 
L 5344 5016 
L 5344 3741 
Q 5344 3459 5631 3459 
L 6319 3459 
Q 6288 3203 6269 2997 
L 5444 2997 
Q 4856 2997 4856 3647 
L 4856 4553 
z
M 2250 1028 
Q 2263 734 2294 472 
Q 1438 -84 1019 -422 
L 719 -9 
Q 931 197 931 553 
L 931 2778 
L 138 2778 
L 138 3228 
L 1406 3228 
L 1406 453 
Q 1813 722 2250 1028 
z
M 988 5128 
Q 1469 4653 1906 4166 
L 1469 3803 
Q 1013 4391 613 4803 
L 988 5128 
z
M 3031 2116 
Q 3347 1319 4022 713 
Q 4684 1225 5081 2116 
L 3031 2116 
z
" transform="scale(0.015625)"/>
      </defs>
      <use xlink:href="#MicrosoftYaHei-34"/>
      <use xlink:href="#MicrosoftYaHei-20" x="58.642578"/>
      <use xlink:href="#MicrosoftYaHei-68" x="88.232422"/>
      <use xlink:href="#MicrosoftYaHei-20" x="149.804688"/>
      <use xlink:href="#MicrosoftYaHei-540e" x="179.394531"/>
      <use xlink:href="#MicrosoftYaHei-672b" x="279.394531"/>
      <use xlink:href="#MicrosoftYaHei-503c" x="379.394531"/>
      <use xlink:href="#MicrosoftYaHei-5047" x="479.394531"/>
      <use xlink:href="#MicrosoftYaHei-8bbe" x="579.394531"/>
     </g>
    </g>
   </g>
  </g>
  <g id="axes_2">
   <g id="patch_6">
    <path d="M 52.927188 368.688114 
L 613.19952 368.688114 
L 613.19952 206.4 
L 52.927188 206.4 
z
" style="fill: #ffffff"/>
   </g>
   <g id="matplotlib.axis_3">
    <g id="xtick_7">
     <g id="line2d_28">
      <path d="M 52.927188 368.688114 
L 52.927188 206.4 
" clip-path="url(#p54222aa917)" style="fill: none; stroke: #d8dee6; stroke-opacity: 0.7; stroke-width: 0.55; stroke-linecap: square"/>
     </g>
     <g id="line2d_29">
      <g>
       <use xlink:href="#m9e559c0f7b" x="52.927188" y="368.688114" style="stroke: #000000; stroke-width: 0.8"/>
      </g>
     </g>
     <g id="text_16">
      <!-- $\mathdefault{0}$ -->
      <g transform="translate(50.272188 382.882489) scale(0.09 -0.09)">
       <use xlink:href="#MicrosoftYaHei-30" transform="translate(0 0.09375)"/>
      </g>
     </g>
    </g>
    <g id="xtick_8">
     <g id="line2d_30">
      <path d="M 163.164498 368.688114 
L 163.164498 206.4 
" clip-path="url(#p54222aa917)" style="fill: none; stroke: #d8dee6; stroke-opacity: 0.7; stroke-width: 0.55; stroke-linecap: square"/>
     </g>
     <g id="line2d_31">
      <g>
       <use xlink:href="#m9e559c0f7b" x="163.164498" y="368.688114" style="stroke: #000000; stroke-width: 0.8"/>
      </g>
     </g>
     <g id="text_17">
      <!-- $\mathdefault{10}$ -->
      <g transform="translate(157.629498 382.882489) scale(0.09 -0.09)">
       <use xlink:href="#MicrosoftYaHei-31" transform="translate(0 0.703125)"/>
       <use xlink:href="#MicrosoftYaHei-30" transform="translate(63.392578 0.703125)"/>
      </g>
     </g>
    </g>
    <g id="xtick_9">
     <g id="line2d_32">
      <path d="M 273.401808 368.688114 
L 273.401808 206.4 
" clip-path="url(#p54222aa917)" style="fill: none; stroke: #d8dee6; stroke-opacity: 0.7; stroke-width: 0.55; stroke-linecap: square"/>
     </g>
     <g id="line2d_33">
      <g>
       <use xlink:href="#m9e559c0f7b" x="273.401808" y="368.688114" style="stroke: #000000; stroke-width: 0.8"/>
      </g>
     </g>
     <g id="text_18">
      <!-- $\mathdefault{20}$ -->
      <g transform="translate(267.866808 382.882489) scale(0.09 -0.09)">
       <use xlink:href="#MicrosoftYaHei-32" transform="translate(0 0.09375)"/>
       <use xlink:href="#MicrosoftYaHei-30" transform="translate(63.892578 0.09375)"/>
      </g>
     </g>
    </g>
    <g id="xtick_10">
     <g id="line2d_34">
      <path d="M 383.639119 368.688114 
L 383.639119 206.4 
" clip-path="url(#p54222aa917)" style="fill: none; stroke: #d8dee6; stroke-opacity: 0.7; stroke-width: 0.55; stroke-linecap: square"/>
     </g>
     <g id="line2d_35">
      <g>
       <use xlink:href="#m9e559c0f7b" x="383.639119" y="368.688114" style="stroke: #000000; stroke-width: 0.8"/>
      </g>
     </g>
     <g id="text_19">
      <!-- $\mathdefault{30}$ -->
      <g transform="translate(378.329119 382.882489) scale(0.09 -0.09)">
       <use xlink:href="#MicrosoftYaHei-33" transform="translate(0 0.09375)"/>
       <use xlink:href="#MicrosoftYaHei-30" transform="translate(58.642578 0.09375)"/>
      </g>
     </g>
    </g>
    <g id="xtick_11">
     <g id="line2d_36">
      <path d="M 493.876429 368.688114 
L 493.876429 206.4 
" clip-path="url(#p54222aa917)" style="fill: none; stroke: #d8dee6; stroke-opacity: 0.7; stroke-width: 0.55; stroke-linecap: square"/>
     </g>
     <g id="line2d_37">
      <g>
       <use xlink:href="#m9e559c0f7b" x="493.876429" y="368.688114" style="stroke: #000000; stroke-width: 0.8"/>
      </g>
     </g>
     <g id="text_20">
      <!-- $\mathdefault{40}$ -->
      <g transform="translate(488.566429 382.882489) scale(0.09 -0.09)">
       <use xlink:href="#MicrosoftYaHei-34" transform="translate(0 0.09375)"/>
       <use xlink:href="#MicrosoftYaHei-30" transform="translate(58.642578 0.09375)"/>
      </g>
     </g>
    </g>
    <g id="xtick_12">
     <g id="line2d_38">
      <path d="M 604.113739 368.688114 
L 604.113739 206.4 
" clip-path="url(#p54222aa917)" style="fill: none; stroke: #d8dee6; stroke-opacity: 0.7; stroke-width: 0.55; stroke-linecap: square"/>
     </g>
     <g id="line2d_39">
      <g>
       <use xlink:href="#m9e559c0f7b" x="604.113739" y="368.688114" style="stroke: #000000; stroke-width: 0.8"/>
      </g>
     </g>
     <g id="text_21">
      <!-- $\mathdefault{50}$ -->
      <g transform="translate(598.848739 382.882489) scale(0.09 -0.09)">
       <use xlink:href="#MicrosoftYaHei-35" transform="translate(0 0.09375)"/>
       <use xlink:href="#MicrosoftYaHei-30" transform="translate(58.142578 0.09375)"/>
      </g>
     </g>
    </g>
    <g id="text_22">
     <!-- 时间 / h -->
     <g style="fill: #20242a" transform="translate(314.889135 397.113583) scale(0.1 -0.1)">
      <use xlink:href="#MicrosoftYaHei-65f6"/>
      <use xlink:href="#MicrosoftYaHei-95f4" x="100"/>
      <use xlink:href="#MicrosoftYaHei-20" x="200"/>
      <use xlink:href="#MicrosoftYaHei-2f" x="229.589844"/>
      <use xlink:href="#MicrosoftYaHei-20" x="272.314453"/>
      <use xlink:href="#MicrosoftYaHei-68" x="301.904297"/>
     </g>
    </g>
   </g>
   <g id="matplotlib.axis_4">
    <g id="ytick_6">
     <g id="line2d_40">
      <path d="M 52.927188 359.528631 
L 613.19952 359.528631 
" clip-path="url(#p54222aa917)" style="fill: none; stroke: #d8dee6; stroke-opacity: 0.7; stroke-width: 0.55; stroke-linecap: square"/>
     </g>
     <g id="line2d_41">
      <g>
       <use xlink:href="#m5ce11363a3" x="52.927188" y="359.528631" style="stroke: #000000; stroke-width: 0.8"/>
      </g>
     </g>
     <g id="text_23">
      <!-- $\mathdefault{0.020}$ -->
      <g transform="translate(22.167188 363.125818) scale(0.09 -0.09)">
       <defs>
        <path id="MicrosoftYaHei-2e" d="M 372 322 
Q 372 491 487 606 
Q 603 722 775 722 
Q 950 722 1065 605 
Q 1181 488 1181 322 
Q 1181 159 1065 42 
Q 950 -75 772 -75 
Q 600 -75 486 42 
Q 372 159 372 322 
z
" transform="scale(0.015625)"/>
       </defs>
       <use xlink:href="#MicrosoftYaHei-30" transform="translate(0 0.09375)"/>
       <use xlink:href="#MicrosoftYaHei-2e" transform="translate(58.642578 0.09375)"/>
       <use xlink:href="#MicrosoftYaHei-30" transform="translate(82.714844 0.09375)"/>
       <use xlink:href="#MicrosoftYaHei-32" transform="translate(141.357422 0.09375)"/>
       <use xlink:href="#MicrosoftYaHei-30" transform="translate(205.25 0.09375)"/>
      </g>
     </g>
    </g>
    <g id="ytick_7">
     <g id="line2d_42">
      <path d="M 52.927188 335.437408 
L 613.19952 335.437408 
" clip-path="url(#p54222aa917)" style="fill: none; stroke: #d8dee6; stroke-opacity: 0.7; stroke-width: 0.55; stroke-linecap: square"/>
     </g>
     <g id="line2d_43">
      <g>
       <use xlink:href="#m5ce11363a3" x="52.927188" y="335.437408" style="stroke: #000000; stroke-width: 0.8"/>
      </g>
     </g>
     <g id="text_24">
      <!-- $\mathdefault{0.025}$ -->
      <g transform="translate(22.977188 339.034595) scale(0.09 -0.09)">
       <use xlink:href="#MicrosoftYaHei-30" transform="translate(0 0.09375)"/>
       <use xlink:href="#MicrosoftYaHei-2e" transform="translate(58.642578 0.09375)"/>
       <use xlink:href="#MicrosoftYaHei-30" transform="translate(82.714844 0.09375)"/>
       <use xlink:href="#MicrosoftYaHei-32" transform="translate(141.357422 0.09375)"/>
       <use xlink:href="#MicrosoftYaHei-35" transform="translate(196.25 0.09375)"/>
      </g>
     </g>
    </g>
    <g id="ytick_8">
     <g id="line2d_44">
      <path d="M 52.927188 311.346185 
L 613.19952 311.346185 
" clip-path="url(#p54222aa917)" style="fill: none; stroke: #d8dee6; stroke-opacity: 0.7; stroke-width: 0.55; stroke-linecap: square"/>
     </g>
     <g id="line2d_45">
      <g>
       <use xlink:href="#m5ce11363a3" x="52.927188" y="311.346185" style="stroke: #000000; stroke-width: 0.8"/>
      </g>
     </g>
     <g id="text_25">
      <!-- $\mathdefault{0.030}$ -->
      <g transform="translate(22.617188 314.943373) scale(0.09 -0.09)">
       <use xlink:href="#MicrosoftYaHei-30" transform="translate(0 0.09375)"/>
       <use xlink:href="#MicrosoftYaHei-2e" transform="translate(58.642578 0.09375)"/>
       <use xlink:href="#MicrosoftYaHei-30" transform="translate(82.714844 0.09375)"/>
       <use xlink:href="#MicrosoftYaHei-33" transform="translate(141.357422 0.09375)"/>
       <use xlink:href="#MicrosoftYaHei-30" transform="translate(200 0.09375)"/>
      </g>
     </g>
    </g>
    <g id="ytick_9">
     <g id="line2d_46">
      <path d="M 52.927188 287.254962 
L 613.19952 287.254962 
" clip-path="url(#p54222aa917)" style="fill: none; stroke: #d8dee6; stroke-opacity: 0.7; stroke-width: 0.55; stroke-linecap: square"/>
     </g>
     <g id="line2d_47">
      <g>
       <use xlink:href="#m5ce11363a3" x="52.927188" y="287.254962" style="stroke: #000000; stroke-width: 0.8"/>
      </g>
     </g>
     <g id="text_26">
      <!-- $\mathdefault{0.035}$ -->
      <g transform="translate(22.617188 290.85215) scale(0.09 -0.09)">
       <use xlink:href="#MicrosoftYaHei-30" transform="translate(0 0.09375)"/>
       <use xlink:href="#MicrosoftYaHei-2e" transform="translate(58.642578 0.09375)"/>
       <use xlink:href="#MicrosoftYaHei-30" transform="translate(82.714844 0.09375)"/>
       <use xlink:href="#MicrosoftYaHei-33" transform="translate(141.357422 0.09375)"/>
       <use xlink:href="#MicrosoftYaHei-35" transform="translate(200 0.09375)"/>
      </g>
     </g>
    </g>
    <g id="ytick_10">
     <g id="line2d_48">
      <path d="M 52.927188 263.163739 
L 613.19952 263.163739 
" clip-path="url(#p54222aa917)" style="fill: none; stroke: #d8dee6; stroke-opacity: 0.7; stroke-width: 0.55; stroke-linecap: square"/>
     </g>
     <g id="line2d_49">
      <g>
       <use xlink:href="#m5ce11363a3" x="52.927188" y="263.163739" style="stroke: #000000; stroke-width: 0.8"/>
      </g>
     </g>
     <g id="text_27">
      <!-- $\mathdefault{0.040}$ -->
      <g transform="translate(22.617188 266.760927) scale(0.09 -0.09)">
       <use xlink:href="#MicrosoftYaHei-30" transform="translate(0 0.09375)"/>
       <use xlink:href="#MicrosoftYaHei-2e" transform="translate(58.642578 0.09375)"/>
       <use xlink:href="#MicrosoftYaHei-30" transform="translate(82.714844 0.09375)"/>
       <use xlink:href="#MicrosoftYaHei-34" transform="translate(141.357422 0.09375)"/>
       <use xlink:href="#MicrosoftYaHei-30" transform="translate(200 0.09375)"/>
      </g>
     </g>
    </g>
    <g id="ytick_11">
     <g id="line2d_50">
      <path d="M 52.927188 239.072516 
L 613.19952 239.072516 
" clip-path="url(#p54222aa917)" style="fill: none; stroke: #d8dee6; stroke-opacity: 0.7; stroke-width: 0.55; stroke-linecap: square"/>
     </g>
     <g id="line2d_51">
      <g>
       <use xlink:href="#m5ce11363a3" x="52.927188" y="239.072516" style="stroke: #000000; stroke-width: 0.8"/>
      </g>
     </g>
     <g id="text_28">
      <!-- $\mathdefault{0.045}$ -->
      <g transform="translate(22.617188 242.669704) scale(0.09 -0.09)">
       <use xlink:href="#MicrosoftYaHei-30" transform="translate(0 0.09375)"/>
       <use xlink:href="#MicrosoftYaHei-2e" transform="translate(58.642578 0.09375)"/>
       <use xlink:href="#MicrosoftYaHei-30" transform="translate(82.714844 0.09375)"/>
       <use xlink:href="#MicrosoftYaHei-34" transform="translate(141.357422 0.09375)"/>
       <use xlink:href="#MicrosoftYaHei-35" transform="translate(200 0.09375)"/>
      </g>
     </g>
    </g>
    <g id="ytick_12">
     <g id="line2d_52">
      <path d="M 52.927188 214.981294 
L 613.19952 214.981294 
" clip-path="url(#p54222aa917)" style="fill: none; stroke: #d8dee6; stroke-opacity: 0.7; stroke-width: 0.55; stroke-linecap: square"/>
     </g>
     <g id="line2d_53">
      <g>
       <use xlink:href="#m5ce11363a3" x="52.927188" y="214.981294" style="stroke: #000000; stroke-width: 0.8"/>
      </g>
     </g>
     <g id="text_29">
      <!-- $\mathdefault{0.050}$ -->
      <g transform="translate(22.617188 218.578481) scale(0.09 -0.09)">
       <use xlink:href="#MicrosoftYaHei-30" transform="translate(0 0.09375)"/>
       <use xlink:href="#MicrosoftYaHei-2e" transform="translate(58.642578 0.09375)"/>
       <use xlink:href="#MicrosoftYaHei-30" transform="translate(82.714844 0.09375)"/>
       <use xlink:href="#MicrosoftYaHei-35" transform="translate(141.357422 0.09375)"/>
       <use xlink:href="#MicrosoftYaHei-30" transform="translate(199.5 0.09375)"/>
      </g>
     </g>
    </g>
    <g id="text_30">
     <!-- 环境水分浓度 / (kg/kg) -->
     <g style="fill: #20242a" transform="translate(15.623438 339.744057) rotate(-90) scale(0.1 -0.1)">
      <defs>
       <path id="MicrosoftYaHei-6c34" d="M 2925 5297 
L 3431 5297 
L 3431 4294 
Q 3700 3563 4047 2934 
Q 4738 3509 5425 4309 
L 5844 3934 
Q 5113 3169 4300 2506 
Q 5125 1200 6319 384 
Q 6056 122 5894 -84 
Q 4250 1209 3431 3119 
L 3431 197 
Q 3431 -734 2538 -734 
Q 2263 -734 1725 -728 
Q 1694 -497 1625 -166 
Q 2125 -216 2438 -216 
Q 2925 -216 2925 253 
L 2925 5297 
z
M 256 3297 
L 256 3772 
L 2413 3772 
L 2413 3316 
Q 1881 1266 475 -197 
Q 263 47 94 184 
Q 1506 1672 1913 3297 
L 256 3297 
z
" transform="scale(0.015625)"/>
       <path id="MicrosoftYaHei-5206" d="M 900 2559 
L 5056 2559 
Q 5025 1497 4963 484 
Q 4888 -684 3856 -678 
Q 3350 -684 2788 -647 
Q 2750 -384 2700 -116 
Q 3181 -184 3775 -191 
Q 4400 -203 4463 541 
Q 4513 1216 4538 2097 
L 2616 2097 
Q 2541 1053 2181 416 
Q 1706 -422 588 -878 
Q 425 -666 231 -459 
Q 1269 -72 1725 666 
Q 2053 1225 2103 2097 
L 900 2097 
L 900 2559 
z
M 3488 5159 
L 3938 5353 
Q 4625 3678 6350 2847 
Q 6069 2553 5944 2372 
Q 4225 3366 3488 5159 
z
M 50 2766 
Q 1338 3678 2250 5253 
L 2694 5009 
Q 1744 3347 413 2341 
Q 281 2534 50 2766 
z
" transform="scale(0.015625)"/>
       <path id="MicrosoftYaHei-6d53" d="M 5619 2947 
L 6025 2603 
Q 5513 2153 4772 1578 
Q 5325 641 6319 78 
Q 6169 -34 5894 -353 
Q 4238 753 3709 3247 
Q 3450 2628 3163 2213 
L 3163 -28 
Q 3775 241 4381 566 
Q 4369 297 4375 28 
Q 3788 -228 3056 -628 
Q 2925 -722 2794 -822 
L 2494 -384 
Q 2700 -203 2700 59 
L 2700 1575 
Q 2275 1041 1719 509 
Q 1581 697 1394 909 
Q 3013 2453 3484 3922 
L 2425 3922 
L 2425 3203 
L 1950 3203 
L 1950 4372 
L 3625 4372 
Q 3753 4828 3831 5334 
L 4313 5259 
Q 4219 4794 4100 4372 
L 6050 4372 
L 6050 3203 
L 5575 3203 
L 5575 3922 
L 3972 3922 
Q 4209 2756 4569 1972 
Q 5181 2456 5619 2947 
z
M 288 -609 
Q 663 516 931 1809 
Q 1206 1691 1438 1616 
Q 1150 478 838 -778 
L 288 -609 
z
M 81 3247 
L 400 3603 
Q 981 3209 1481 2797 
Q 1250 2541 1113 2397 
Q 544 2903 81 3247 
z
M 325 4878 
L 650 5209 
Q 1025 4916 1631 4347 
L 1263 3978 
Q 731 4528 325 4878 
z
" transform="scale(0.015625)"/>
       <path id="MicrosoftYaHei-28" d="M 1531 -1100 
Q 478 100 478 1847 
Q 478 3594 1531 4841 
L 2072 4841 
Q 1016 3544 1016 1853 
Q 1016 166 2066 -1100 
L 1531 -1100 
z
" transform="scale(0.015625)"/>
       <path id="MicrosoftYaHei-6b" d="M 3484 0 
L 2650 0 
L 1172 1666 
L 1159 1666 
L 1159 0 
L 547 0 
L 547 5116 
L 1159 5116 
L 1159 1872 
L 1172 1872 
L 2575 3456 
L 3363 3456 
L 1800 1794 
L 3484 0 
z
" transform="scale(0.015625)"/>
       <path id="MicrosoftYaHei-67" d="M 3547 291 
Q 3547 -1628 1684 -1628 
Q 1041 -1628 566 -1388 
L 566 -797 
Q 1144 -1119 1675 -1119 
Q 2934 -1119 2934 206 
L 2934 572 
L 2922 572 
Q 2528 -81 1747 -81 
Q 1097 -81 706 384 
Q 316 850 316 1619 
Q 316 2503 747 3020 
Q 1178 3538 1897 3538 
Q 2588 3538 2922 2988 
L 2934 2988 
L 2934 3456 
L 3547 3456 
L 3547 291 
z
M 2934 2056 
Q 2938 2456 2666 2743 
Q 2394 3031 1997 3031 
Q 1497 3031 1219 2664 
Q 941 2297 941 1656 
Q 941 1106 1209 765 
Q 1478 425 1922 425 
Q 2369 425 2653 750 
Q 2938 1075 2934 1575 
L 2934 2056 
z
" transform="scale(0.015625)"/>
       <path id="MicrosoftYaHei-29" d="M 78 -1100 
Q 1131 163 1131 1853 
Q 1131 3547 72 4841 
L 616 4841 
Q 1672 3603 1672 1847 
Q 1672 91 616 -1100 
L 78 -1100 
z
" transform="scale(0.015625)"/>
      </defs>
      <use xlink:href="#MicrosoftYaHei-73af"/>
      <use xlink:href="#MicrosoftYaHei-5883" x="100"/>
      <use xlink:href="#MicrosoftYaHei-6c34" x="200"/>
      <use xlink:href="#MicrosoftYaHei-5206" x="300"/>
      <use xlink:href="#MicrosoftYaHei-6d53" x="400"/>
      <use xlink:href="#MicrosoftYaHei-5ea6" x="500"/>
      <use xlink:href="#MicrosoftYaHei-20" x="600"/>
      <use xlink:href="#MicrosoftYaHei-2f" x="629.589844"/>
      <use xlink:href="#MicrosoftYaHei-20" x="672.314453"/>
      <use xlink:href="#MicrosoftYaHei-28" x="701.904297"/>
      <use xlink:href="#MicrosoftYaHei-6b" x="735.302734"/>
      <use xlink:href="#MicrosoftYaHei-67" x="787.621094"/>
      <use xlink:href="#MicrosoftYaHei-2f" x="851.585938"/>
      <use xlink:href="#MicrosoftYaHei-6b" x="894.310547"/>
      <use xlink:href="#MicrosoftYaHei-67" x="946.628906"/>
      <use xlink:href="#MicrosoftYaHei-29" x="1010.59375"/>
     </g>
    </g>
   </g>
   <g id="line2d_54">
    <path d="M 52.927188 361.311381 
L 53.478374 354.710386 
L 54.764476 338.906544 
L 55.315663 332.931921 
L 55.68312 327.728217 
L 55.866849 326.427291 
L 59.173968 288.411341 
L 61.011257 270.872931 
L 61.194986 270.005647 
L 61.562443 266.054686 
L 61.746172 265.380132 
L 61.929901 262.537368 
L 62.11363 262.633732 
L 62.297359 259.501873 
L 62.481088 259.790968 
L 62.848545 255.599095 
L 63.399732 252.129959 
L 63.583461 251.262675 
L 63.76719 249.817202 
L 63.950919 250.058114 
L 64.502105 245.384417 
L 64.685834 245.191687 
L 64.869563 244.420768 
L 65.053292 242.927112 
L 65.23702 242.830747 
L 65.420749 242.204375 
L 65.788207 239.891618 
L 65.971936 239.506158 
L 66.339394 237.627043 
L 66.706851 236.133387 
L 66.89058 234.784279 
L 67.074309 234.977009 
L 67.258038 232.856981 
L 67.441767 232.278792 
L 67.625496 232.664251 
L 67.809224 232.375156 
L 68.176682 230.062399 
L 68.360411 229.966034 
L 68.54414 229.09875 
L 68.727869 229.195115 
L 68.911597 228.472378 
L 69.095326 228.809656 
L 69.279055 227.316 
L 69.462784 228.086919 
L 69.830242 225.725979 
L 70.013971 226.978723 
L 70.197699 225.485067 
L 70.381428 226.304168 
L 70.565157 224.521418 
L 70.748886 225.629614 
L 70.932615 223.316857 
L 71.116344 224.858695 
L 71.300073 222.642302 
L 71.483801 222.690485 
L 71.66753 222.883215 
L 72.034988 221.823201 
L 72.218717 221.196829 
L 72.402446 222.59412 
L 72.586175 221.534106 
L 72.769903 222.449573 
L 72.953632 221.004099 
L 73.137361 221.823201 
L 73.32109 220.666822 
L 73.504819 220.474092 
L 73.688548 220.522275 
L 73.872276 220.184998 
L 74.056005 219.414079 
L 74.239734 219.173166 
L 74.423463 219.703173 
L 74.607192 219.269531 
L 74.790921 218.354065 
L 74.97465 220.088633 
L 75.342107 219.895903 
L 75.525836 218.402247 
L 75.709565 218.835889 
L 75.893294 217.824058 
L 76.077023 217.968605 
L 76.260752 218.643159 
L 76.44448 217.197686 
L 76.628209 217.390416 
L 76.811938 218.45043 
L 76.995667 218.113153 
L 77.179396 218.161335 
L 77.363125 218.402247 
L 77.546853 218.354065 
L 77.730582 216.378585 
L 77.914311 217.486781 
L 78.09804 217.534963 
L 78.281769 216.619497 
L 78.465498 216.956774 
L 78.649227 215.944943 
L 78.832955 216.28222 
L 79.016684 216.908591 
L 79.200413 217.101321 
L 79.384142 215.559483 
L 79.567871 216.137672 
L 79.7516 215.5113 
L 79.935329 217.438598 
L 80.119057 215.655848 
L 80.302786 216.08949 
L 80.486515 215.89676 
L 80.670244 214.788564 
L 80.853973 214.547652 
L 81.037702 216.137672 
L 81.405159 214.210374 
L 81.588888 215.463118 
L 81.772617 215.077658 
L 81.956346 215.125841 
L 82.140075 215.463118 
L 82.323804 213.969462 
L 82.507532 214.306739 
L 82.691261 215.89676 
L 82.87499 213.776732 
L 83.058719 214.065827 
L 83.242448 215.5113 
L 83.426177 214.162192 
L 83.609906 215.944943 
L 83.793634 213.776732 
L 83.977363 214.595834 
L 84.161092 214.595834 
L 84.344821 215.944943 
L 84.52855 214.017645 
L 84.712279 216.137672 
L 84.896007 215.607665 
L 85.079736 215.848578 
L 85.263465 214.306739 
L 85.447194 215.70403 
L 85.630923 213.969462 
L 85.814652 214.595834 
L 85.998381 216.08949 
L 86.182109 216.185855 
L 86.365838 216.041307 
L 86.549567 214.740381 
L 86.733296 214.258557 
L 86.917025 215.607665 
L 87.100754 214.162192 
L 87.284483 216.041307 
L 87.468211 214.258557 
L 87.65194 213.969462 
L 88.019398 214.499469 
L 88.203127 214.162192 
L 88.386856 216.08949 
L 88.570585 215.70403 
L 88.754313 215.89676 
L 89.121771 214.403104 
L 89.3055 214.644016 
L 89.489229 214.11401 
L 89.672958 215.800395 
L 89.856686 214.403104 
L 90.040415 215.70403 
L 90.224144 215.5113 
L 90.591602 213.824915 
L 90.95906 216.041307 
L 91.142788 214.692199 
L 91.326517 216.08949 
L 91.510246 214.065827 
L 91.693975 214.499469 
L 91.877704 215.752213 
L 92.061433 215.944943 
L 92.245162 215.752213 
L 92.42889 213.824915 
L 92.612619 215.077658 
L 92.796348 214.306739 
L 93.163806 214.788564 
L 93.347535 215.848578 
L 93.531263 213.92128 
L 93.714992 215.463118 
L 94.08245 214.499469 
L 94.266179 214.644016 
L 94.449908 213.92128 
L 94.633637 215.848578 
L 94.817365 214.981294 
L 95.001094 215.222206 
L 95.184823 215.029476 
L 95.368552 215.89676 
L 95.552281 215.848578 
L 95.73601 215.5113 
L 95.919739 215.463118 
L 96.470925 214.644016 
L 96.654654 215.174023 
L 96.838383 215.222206 
L 97.022112 215.655848 
L 97.022112 215.655848 
" clip-path="url(#p54222aa917)" style="fill: none; stroke: #0072b2; stroke-width: 1.3; stroke-linecap: square"/>
   </g>
   <g id="line2d_55">
    <path d="M 97.022112 215.655848 
L 613.19952 215.655848 
" clip-path="url(#p54222aa917)" style="fill: none; stroke-dasharray: 5.55,2.4; stroke-dashoffset: 0; stroke: #0072b2; stroke-width: 1.5"/>
   </g>
   <g id="line2d_56">
    <path d="M 97.022112 368.688114 
L 97.022112 206.4 
" clip-path="url(#p54222aa917)" style="fill: none; stroke-dasharray: 0.8,1.32; stroke-dashoffset: 0; stroke: #72777c; stroke-width: 0.8"/>
   </g>
   <g id="patch_7">
    <path d="M 52.927188 368.688114 
L 52.927188 206.4 
" style="fill: none; stroke: #3d4652; stroke-width: 0.8; stroke-linejoin: miter; stroke-linecap: square"/>
   </g>
   <g id="patch_8">
    <path d="M 52.927188 368.688114 
L 613.19952 368.688114 
" style="fill: none; stroke: #3d4652; stroke-width: 0.8; stroke-linejoin: miter; stroke-linecap: square"/>
   </g>
   <g id="legend_2">
    <g id="patch_9">
     <path d="M 513.494989 364.188114 
L 606.89952 364.188114 
Q 608.69952 364.188114 608.69952 362.388114 
L 608.69952 335.424676 
Q 608.69952 333.624676 606.89952 333.624676 
L 513.494989 333.624676 
Q 511.694989 333.624676 511.694989 335.424676 
L 511.694989 362.388114 
Q 511.694989 364.188114 513.494989 364.188114 
z
" style="fill: #ffffff; opacity: 0.8; stroke: #cccccc; stroke-linejoin: miter"/>
    </g>
    <g id="line2d_57">
     <path d="M 515.294989 341.269051 
L 524.294989 341.269051 
L 533.294989 341.269051 
" style="fill: none; stroke: #0072b2; stroke-width: 1.3; stroke-linecap: square"/>
    </g>
    <g id="text_31">
     <!-- 附件 1 实测插值 -->
     <g style="fill: #20242a" transform="translate(540.494989 344.419051) scale(0.09 -0.09)">
      <use xlink:href="#MicrosoftYaHei-9644"/>
      <use xlink:href="#MicrosoftYaHei-4ef6" x="100"/>
      <use xlink:href="#MicrosoftYaHei-20" x="200"/>
      <use xlink:href="#MicrosoftYaHei-31" x="229.589844"/>
      <use xlink:href="#MicrosoftYaHei-20" x="288.232422"/>
      <use xlink:href="#MicrosoftYaHei-5b9e" x="317.822266"/>
      <use xlink:href="#MicrosoftYaHei-6d4b" x="417.822266"/>
      <use xlink:href="#MicrosoftYaHei-63d2" x="517.822266"/>
      <use xlink:href="#MicrosoftYaHei-503c" x="617.822266"/>
     </g>
    </g>
    <g id="line2d_58">
     <path d="M 515.294989 355.20077 
L 524.294989 355.20077 
L 533.294989 355.20077 
" style="fill: none; stroke-dasharray: 5.55,2.4; stroke-dashoffset: 0; stroke: #0072b2; stroke-width: 1.5"/>
    </g>
    <g id="text_32">
     <!-- 4 h 后末值假设 -->
     <g style="fill: #20242a" transform="translate(540.494989 358.35077) scale(0.09 -0.09)">
      <use xlink:href="#MicrosoftYaHei-34"/>
      <use xlink:href="#MicrosoftYaHei-20" x="58.642578"/>
      <use xlink:href="#MicrosoftYaHei-68" x="88.232422"/>
      <use xlink:href="#MicrosoftYaHei-20" x="149.804688"/>
      <use xlink:href="#MicrosoftYaHei-540e" x="179.394531"/>
      <use xlink:href="#MicrosoftYaHei-672b" x="279.394531"/>
      <use xlink:href="#MicrosoftYaHei-503c" x="379.394531"/>
      <use xlink:href="#MicrosoftYaHei-5047" x="479.394531"/>
      <use xlink:href="#MicrosoftYaHei-8bbe" x="579.394531"/>
     </g>
    </g>
   </g>
  </g>
  <g id="axes_3">
   <g id="patch_10">
    <path d="M 52.927188 567.888114 
L 613.19952 567.888114 
L 613.19952 405.6 
L 52.927188 405.6 
z
" style="fill: #ffffff"/>
   </g>
   <g id="matplotlib.axis_5">
    <g id="xtick_13">
     <g id="line2d_59">
      <path d="M 52.927188 567.888114 
L 52.927188 405.6 
" clip-path="url(#p1617b4d3fc)" style="fill: none; stroke: #d8dee6; stroke-opacity: 0.7; stroke-width: 0.55; stroke-linecap: square"/>
     </g>
     <g id="line2d_60">
      <g>
       <use xlink:href="#m9e559c0f7b" x="52.927188" y="567.888114" style="stroke: #000000; stroke-width: 0.8"/>
      </g>
     </g>
     <g id="text_33">
      <!-- $\mathdefault{0}$ -->
      <g transform="translate(50.272188 582.082489) scale(0.09 -0.09)">
       <use xlink:href="#MicrosoftYaHei-30" transform="translate(0 0.09375)"/>
      </g>
     </g>
    </g>
    <g id="xtick_14">
     <g id="line2d_61">
      <path d="M 130.742789 567.888114 
L 130.742789 405.6 
" clip-path="url(#p1617b4d3fc)" style="fill: none; stroke: #d8dee6; stroke-opacity: 0.7; stroke-width: 0.55; stroke-linecap: square"/>
     </g>
     <g id="line2d_62">
      <g>
       <use xlink:href="#m9e559c0f7b" x="130.742789" y="567.888114" style="stroke: #000000; stroke-width: 0.8"/>
      </g>
     </g>
     <g id="text_34">
      <!-- $\mathdefault{10}$ -->
      <g transform="translate(125.207789 582.082489) scale(0.09 -0.09)">
       <use xlink:href="#MicrosoftYaHei-31" transform="translate(0 0.703125)"/>
       <use xlink:href="#MicrosoftYaHei-30" transform="translate(63.392578 0.703125)"/>
      </g>
     </g>
    </g>
    <g id="xtick_15">
     <g id="line2d_63">
      <path d="M 208.558391 567.888114 
L 208.558391 405.6 
" clip-path="url(#p1617b4d3fc)" style="fill: none; stroke: #d8dee6; stroke-opacity: 0.7; stroke-width: 0.55; stroke-linecap: square"/>
     </g>
     <g id="line2d_64">
      <g>
       <use xlink:href="#m9e559c0f7b" x="208.558391" y="567.888114" style="stroke: #000000; stroke-width: 0.8"/>
      </g>
     </g>
     <g id="text_35">
      <!-- $\mathdefault{20}$ -->
      <g transform="translate(203.023391 582.082489) scale(0.09 -0.09)">
       <use xlink:href="#MicrosoftYaHei-32" transform="translate(0 0.09375)"/>
       <use xlink:href="#MicrosoftYaHei-30" transform="translate(63.892578 0.09375)"/>
      </g>
     </g>
    </g>
    <g id="xtick_16">
     <g id="line2d_65">
      <path d="M 286.373993 567.888114 
L 286.373993 405.6 
" clip-path="url(#p1617b4d3fc)" style="fill: none; stroke: #d8dee6; stroke-opacity: 0.7; stroke-width: 0.55; stroke-linecap: square"/>
     </g>
     <g id="line2d_66">
      <g>
       <use xlink:href="#m9e559c0f7b" x="286.373993" y="567.888114" style="stroke: #000000; stroke-width: 0.8"/>
      </g>
     </g>
     <g id="text_36">
      <!-- $\mathdefault{30}$ -->
      <g transform="translate(281.063993 582.082489) scale(0.09 -0.09)">
       <use xlink:href="#MicrosoftYaHei-33" transform="translate(0 0.09375)"/>
       <use xlink:href="#MicrosoftYaHei-30" transform="translate(58.642578 0.09375)"/>
      </g>
     </g>
    </g>
    <g id="xtick_17">
     <g id="line2d_67">
      <path d="M 364.189594 567.888114 
L 364.189594 405.6 
" clip-path="url(#p1617b4d3fc)" style="fill: none; stroke: #d8dee6; stroke-opacity: 0.7; stroke-width: 0.55; stroke-linecap: square"/>
     </g>
     <g id="line2d_68">
      <g>
       <use xlink:href="#m9e559c0f7b" x="364.189594" y="567.888114" style="stroke: #000000; stroke-width: 0.8"/>
      </g>
     </g>
     <g id="text_37">
      <!-- $\mathdefault{40}$ -->
      <g transform="translate(358.879594 582.082489) scale(0.09 -0.09)">
       <use xlink:href="#MicrosoftYaHei-34" transform="translate(0 0.09375)"/>
       <use xlink:href="#MicrosoftYaHei-30" transform="translate(58.642578 0.09375)"/>
      </g>
     </g>
    </g>
    <g id="xtick_18">
     <g id="line2d_69">
      <path d="M 442.005196 567.888114 
L 442.005196 405.6 
" clip-path="url(#p1617b4d3fc)" style="fill: none; stroke: #d8dee6; stroke-opacity: 0.7; stroke-width: 0.55; stroke-linecap: square"/>
     </g>
     <g id="line2d_70">
      <g>
       <use xlink:href="#m9e559c0f7b" x="442.005196" y="567.888114" style="stroke: #000000; stroke-width: 0.8"/>
      </g>
     </g>
     <g id="text_38">
      <!-- $\mathdefault{50}$ -->
      <g transform="translate(436.740196 582.082489) scale(0.09 -0.09)">
       <use xlink:href="#MicrosoftYaHei-35" transform="translate(0 0.09375)"/>
       <use xlink:href="#MicrosoftYaHei-30" transform="translate(58.142578 0.09375)"/>
      </g>
     </g>
    </g>
    <g id="xtick_19">
     <g id="line2d_71">
      <path d="M 519.820798 567.888114 
L 519.820798 405.6 
" clip-path="url(#p1617b4d3fc)" style="fill: none; stroke: #d8dee6; stroke-opacity: 0.7; stroke-width: 0.55; stroke-linecap: square"/>
     </g>
     <g id="line2d_72">
      <g>
       <use xlink:href="#m9e559c0f7b" x="519.820798" y="567.888114" style="stroke: #000000; stroke-width: 0.8"/>
      </g>
     </g>
     <g id="text_39">
      <!-- $\mathdefault{60}$ -->
      <g transform="translate(514.825798 582.082489) scale(0.09 -0.09)">
       <defs>
        <path id="MicrosoftYaHei-36" d="M 3181 4219 
Q 2803 4413 2391 4413 
Q 1763 4413 1381 3866 
Q 1000 3319 994 2372 
L 1009 2372 
Q 1353 3038 2106 3038 
Q 2734 3038 3109 2628 
Q 3484 2219 3484 1541 
Q 3484 831 3051 375 
Q 2619 -81 1947 -81 
Q 1209 -81 789 495 
Q 369 1072 369 2131 
Q 369 3413 920 4167 
Q 1472 4922 2372 4922 
Q 2888 4922 3181 4781 
L 3181 4219 
z
M 1031 1584 
Q 1031 1106 1286 765 
Q 1541 425 1963 425 
Q 2363 425 2613 719 
Q 2863 1013 2863 1475 
Q 2863 1975 2627 2253 
Q 2391 2531 1956 2531 
Q 1544 2531 1287 2250 
Q 1031 1969 1031 1584 
z
" transform="scale(0.015625)"/>
       </defs>
       <use xlink:href="#MicrosoftYaHei-36" transform="translate(0 0.09375)"/>
       <use xlink:href="#MicrosoftYaHei-30" transform="translate(51.892578 0.09375)"/>
      </g>
     </g>
    </g>
    <g id="xtick_20">
     <g id="line2d_73">
      <path d="M 597.6364 567.888114 
L 597.6364 405.6 
" clip-path="url(#p1617b4d3fc)" style="fill: none; stroke: #d8dee6; stroke-opacity: 0.7; stroke-width: 0.55; stroke-linecap: square"/>
     </g>
     <g id="line2d_74">
      <g>
       <use xlink:href="#m9e559c0f7b" x="597.6364" y="567.888114" style="stroke: #000000; stroke-width: 0.8"/>
      </g>
     </g>
     <g id="text_40">
      <!-- $\mathdefault{70}$ -->
      <g transform="translate(592.3264 582.082489) scale(0.09 -0.09)">
       <defs>
        <path id="MicrosoftYaHei-37" d="M 3422 4463 
Q 2659 3131 2223 1998 
Q 1788 866 1684 0 
L 1047 0 
Q 1163 853 1594 1947 
Q 2025 3041 2747 4300 
L 347 4300 
L 347 4841 
L 3422 4841 
L 3422 4463 
z
" transform="scale(0.015625)"/>
       </defs>
       <use xlink:href="#MicrosoftYaHei-37" transform="translate(0 0.09375)"/>
       <use xlink:href="#MicrosoftYaHei-30" transform="translate(58.642578 0.09375)"/>
      </g>
     </g>
    </g>
    <g id="text_41">
     <!-- 时间 / h -->
     <g style="fill: #20242a" transform="translate(314.889135 596.313583) scale(0.1 -0.1)">
      <use xlink:href="#MicrosoftYaHei-65f6"/>
      <use xlink:href="#MicrosoftYaHei-95f4" x="100"/>
      <use xlink:href="#MicrosoftYaHei-20" x="200"/>
      <use xlink:href="#MicrosoftYaHei-2f" x="229.589844"/>
      <use xlink:href="#MicrosoftYaHei-20" x="272.314453"/>
      <use xlink:href="#MicrosoftYaHei-68" x="301.904297"/>
     </g>
    </g>
   </g>
   <g id="matplotlib.axis_6">
    <g id="ytick_13">
     <g id="line2d_75">
      <path d="M 52.927188 560.143464 
L 613.19952 560.143464 
" clip-path="url(#p1617b4d3fc)" style="fill: none; stroke: #d8dee6; stroke-opacity: 0.7; stroke-width: 0.55; stroke-linecap: square"/>
     </g>
     <g id="line2d_76">
      <g>
       <use xlink:href="#m5ce11363a3" x="52.927188" y="560.143464" style="stroke: #000000; stroke-width: 0.8"/>
      </g>
     </g>
     <g id="text_42">
      <!-- $\mathdefault{1.2}$ -->
      <g transform="translate(33.147188 563.740652) scale(0.09 -0.09)">
       <use xlink:href="#MicrosoftYaHei-31" transform="translate(0 0.703125)"/>
       <use xlink:href="#MicrosoftYaHei-2e" transform="translate(58.642578 0.703125)"/>
       <use xlink:href="#MicrosoftYaHei-32" transform="translate(82.714844 0.703125)"/>
      </g>
     </g>
    </g>
    <g id="ytick_14">
     <g id="line2d_77">
      <path d="M 52.927188 541.747623 
L 613.19952 541.747623 
" clip-path="url(#p1617b4d3fc)" style="fill: none; stroke: #d8dee6; stroke-opacity: 0.7; stroke-width: 0.55; stroke-linecap: square"/>
     </g>
     <g id="line2d_78">
      <g>
       <use xlink:href="#m5ce11363a3" x="52.927188" y="541.747623" style="stroke: #000000; stroke-width: 0.8"/>
      </g>
     </g>
     <g id="text_43">
      <!-- $\mathdefault{1.3}$ -->
      <g transform="translate(33.147188 545.34481) scale(0.09 -0.09)">
       <use xlink:href="#MicrosoftYaHei-31" transform="translate(0 0.703125)"/>
       <use xlink:href="#MicrosoftYaHei-2e" transform="translate(58.642578 0.703125)"/>
       <use xlink:href="#MicrosoftYaHei-33" transform="translate(82.714844 0.703125)"/>
      </g>
     </g>
    </g>
    <g id="ytick_15">
     <g id="line2d_79">
      <path d="M 52.927188 523.351781 
L 613.19952 523.351781 
" clip-path="url(#p1617b4d3fc)" style="fill: none; stroke: #d8dee6; stroke-opacity: 0.7; stroke-width: 0.55; stroke-linecap: square"/>
     </g>
     <g id="line2d_80">
      <g>
       <use xlink:href="#m5ce11363a3" x="52.927188" y="523.351781" style="stroke: #000000; stroke-width: 0.8"/>
      </g>
     </g>
     <g id="text_44">
      <!-- $\mathdefault{1.4}$ -->
      <g transform="translate(33.147188 526.948969) scale(0.09 -0.09)">
       <use xlink:href="#MicrosoftYaHei-31" transform="translate(0 0.703125)"/>
       <use xlink:href="#MicrosoftYaHei-2e" transform="translate(58.642578 0.703125)"/>
       <use xlink:href="#MicrosoftYaHei-34" transform="translate(82.714844 0.703125)"/>
      </g>
     </g>
    </g>
    <g id="ytick_16">
     <g id="line2d_81">
      <path d="M 52.927188 504.95594 
L 613.19952 504.95594 
" clip-path="url(#p1617b4d3fc)" style="fill: none; stroke: #d8dee6; stroke-opacity: 0.7; stroke-width: 0.55; stroke-linecap: square"/>
     </g>
     <g id="line2d_82">
      <g>
       <use xlink:href="#m5ce11363a3" x="52.927188" y="504.95594" style="stroke: #000000; stroke-width: 0.8"/>
      </g>
     </g>
     <g id="text_45">
      <!-- $\mathdefault{1.5}$ -->
      <g transform="translate(33.147188 508.553127) scale(0.09 -0.09)">
       <use xlink:href="#MicrosoftYaHei-31" transform="translate(0 0.703125)"/>
       <use xlink:href="#MicrosoftYaHei-2e" transform="translate(58.642578 0.703125)"/>
       <use xlink:href="#MicrosoftYaHei-35" transform="translate(82.714844 0.703125)"/>
      </g>
     </g>
    </g>
    <g id="ytick_17">
     <g id="line2d_83">
      <path d="M 52.927188 486.560098 
L 613.19952 486.560098 
" clip-path="url(#p1617b4d3fc)" style="fill: none; stroke: #d8dee6; stroke-opacity: 0.7; stroke-width: 0.55; stroke-linecap: square"/>
     </g>
     <g id="line2d_84">
      <g>
       <use xlink:href="#m5ce11363a3" x="52.927188" y="486.560098" style="stroke: #000000; stroke-width: 0.8"/>
      </g>
     </g>
     <g id="text_46">
      <!-- $\mathdefault{1.6}$ -->
      <g transform="translate(33.147188 490.157286) scale(0.09 -0.09)">
       <use xlink:href="#MicrosoftYaHei-31" transform="translate(0 0.703125)"/>
       <use xlink:href="#MicrosoftYaHei-2e" transform="translate(58.642578 0.703125)"/>
       <use xlink:href="#MicrosoftYaHei-36" transform="translate(82.714844 0.703125)"/>
      </g>
     </g>
    </g>
    <g id="ytick_18">
     <g id="line2d_85">
      <path d="M 52.927188 468.164257 
L 613.19952 468.164257 
" clip-path="url(#p1617b4d3fc)" style="fill: none; stroke: #d8dee6; stroke-opacity: 0.7; stroke-width: 0.55; stroke-linecap: square"/>
     </g>
     <g id="line2d_86">
      <g>
       <use xlink:href="#m5ce11363a3" x="52.927188" y="468.164257" style="stroke: #000000; stroke-width: 0.8"/>
      </g>
     </g>
     <g id="text_47">
      <!-- $\mathdefault{1.7}$ -->
      <g transform="translate(33.147188 471.761444) scale(0.09 -0.09)">
       <use xlink:href="#MicrosoftYaHei-31" transform="translate(0 0.703125)"/>
       <use xlink:href="#MicrosoftYaHei-2e" transform="translate(58.642578 0.703125)"/>
       <use xlink:href="#MicrosoftYaHei-37" transform="translate(82.714844 0.703125)"/>
      </g>
     </g>
    </g>
    <g id="ytick_19">
     <g id="line2d_87">
      <path d="M 52.927188 449.768415 
L 613.19952 449.768415 
" clip-path="url(#p1617b4d3fc)" style="fill: none; stroke: #d8dee6; stroke-opacity: 0.7; stroke-width: 0.55; stroke-linecap: square"/>
     </g>
     <g id="line2d_88">
      <g>
       <use xlink:href="#m5ce11363a3" x="52.927188" y="449.768415" style="stroke: #000000; stroke-width: 0.8"/>
      </g>
     </g>
     <g id="text_48">
      <!-- $\mathdefault{1.8}$ -->
      <g transform="translate(33.147188 453.365603) scale(0.09 -0.09)">
       <defs>
        <path id="MicrosoftYaHei-38" d="M 306 1350 
Q 306 1769 556 2122 
Q 806 2475 1200 2625 
Q 884 2803 700 3081 
Q 516 3359 516 3684 
Q 516 4028 692 4312 
Q 869 4597 1183 4759 
Q 1497 4922 1875 4922 
Q 2256 4922 2572 4761 
Q 2888 4600 3063 4315 
Q 3238 4031 3238 3684 
Q 3238 3366 3058 3086 
Q 2878 2806 2559 2625 
Q 2953 2472 3200 2119 
Q 3447 1766 3447 1350 
Q 3447 938 3250 611 
Q 3053 284 2690 103 
Q 2328 -78 1875 -78 
Q 1425 -78 1065 103 
Q 706 284 506 612 
Q 306 941 306 1350 
z
M 906 1378 
Q 906 947 1172 687 
Q 1438 428 1878 428 
Q 2309 428 2582 692 
Q 2856 956 2856 1378 
Q 2856 1778 2579 2051 
Q 2303 2325 1878 2325 
Q 1456 2325 1181 2058 
Q 906 1791 906 1378 
z
M 1081 3634 
Q 1081 3309 1312 3076 
Q 1544 2844 1878 2844 
Q 2206 2844 2445 3078 
Q 2684 3313 2684 3634 
Q 2684 3963 2454 4191 
Q 2225 4419 1878 4419 
Q 1534 4419 1307 4195 
Q 1081 3972 1081 3634 
z
" transform="scale(0.015625)"/>
       </defs>
       <use xlink:href="#MicrosoftYaHei-31" transform="translate(0 0.703125)"/>
       <use xlink:href="#MicrosoftYaHei-2e" transform="translate(58.642578 0.703125)"/>
       <use xlink:href="#MicrosoftYaHei-38" transform="translate(82.714844 0.703125)"/>
      </g>
     </g>
    </g>
    <g id="ytick_20">
     <g id="line2d_89">
      <path d="M 52.927188 431.372574 
L 613.19952 431.372574 
" clip-path="url(#p1617b4d3fc)" style="fill: none; stroke: #d8dee6; stroke-opacity: 0.7; stroke-width: 0.55; stroke-linecap: square"/>
     </g>
     <g id="line2d_90">
      <g>
       <use xlink:href="#m5ce11363a3" x="52.927188" y="431.372574" style="stroke: #000000; stroke-width: 0.8"/>
      </g>
     </g>
     <g id="text_49">
      <!-- $\mathdefault{1.9}$ -->
      <g transform="translate(33.147188 434.969761) scale(0.09 -0.09)">
       <defs>
        <path id="MicrosoftYaHei-39" d="M 578 656 
Q 978 425 1441 425 
Q 2091 425 2448 937 
Q 2806 1450 2806 2394 
Q 2800 2388 2794 2394 
Q 2475 1788 1722 1788 
Q 1113 1788 713 2206 
Q 313 2625 313 3294 
Q 313 4006 750 4464 
Q 1188 4922 1884 4922 
Q 2606 4922 3012 4355 
Q 3419 3788 3419 2703 
Q 3419 1363 2894 641 
Q 2369 -81 1441 -81 
Q 931 -81 578 84 
L 578 656 
z
M 931 3372 
Q 931 2884 1181 2598 
Q 1431 2313 1872 2313 
Q 2253 2313 2512 2573 
Q 2772 2834 2772 3206 
Q 2772 3728 2514 4070 
Q 2256 4413 1834 4413 
Q 1444 4413 1187 4116 
Q 931 3819 931 3372 
z
" transform="scale(0.015625)"/>
       </defs>
       <use xlink:href="#MicrosoftYaHei-31" transform="translate(0 0.703125)"/>
       <use xlink:href="#MicrosoftYaHei-2e" transform="translate(58.642578 0.703125)"/>
       <use xlink:href="#MicrosoftYaHei-39" transform="translate(82.714844 0.703125)"/>
      </g>
     </g>
    </g>
    <g id="ytick_21">
     <g id="line2d_91">
      <path d="M 52.927188 412.976732 
L 613.19952 412.976732 
" clip-path="url(#p1617b4d3fc)" style="fill: none; stroke: #d8dee6; stroke-opacity: 0.7; stroke-width: 0.55; stroke-linecap: square"/>
     </g>
     <g id="line2d_92">
      <g>
       <use xlink:href="#m5ce11363a3" x="52.927188" y="412.976732" style="stroke: #000000; stroke-width: 0.8"/>
      </g>
     </g>
     <g id="text_50">
      <!-- $\mathdefault{2.0}$ -->
      <g transform="translate(33.147188 416.57392) scale(0.09 -0.09)">
       <use xlink:href="#MicrosoftYaHei-32" transform="translate(0 0.09375)"/>
       <use xlink:href="#MicrosoftYaHei-2e" transform="translate(58.642578 0.09375)"/>
       <use xlink:href="#MicrosoftYaHei-30" transform="translate(82.714844 0.09375)"/>
      </g>
     </g>
    </g>
    <g id="text_51">
     <!-- 实际半径 / cm -->
     <g style="fill: #20242a" transform="translate(26.66125 519.031557) rotate(-90) scale(0.1 -0.1)">
      <defs>
       <path id="MicrosoftYaHei-9645" d="M 2256 1678 
Q 2419 503 1656 334 
Q 1413 284 1025 328 
Q 975 584 888 834 
Q 1219 753 1469 784 
Q 1906 834 1763 1678 
Q 1675 2166 1169 2828 
Q 1425 3591 1681 4491 
L 850 4491 
L 850 -841 
L 375 -841 
L 375 4953 
L 2200 4953 
L 2200 4503 
Q 1913 3572 1694 2884 
Q 2194 2203 2256 1678 
z
M 2150 3228 
L 6225 3228 
L 6225 2766 
L 4425 2766 
L 4425 16 
Q 4425 -747 3688 -747 
Q 3394 -747 2938 -741 
Q 2881 -403 2838 -209 
Q 3313 -259 3575 -259 
Q 3938 -259 3938 122 
L 3938 2766 
L 2150 2766 
L 2150 3228 
z
M 2488 4803 
L 5888 4803 
L 5888 4341 
L 2488 4341 
L 2488 4803 
z
M 2969 2097 
L 3431 1928 
Q 2988 747 2481 -222 
Q 2206 -72 2038 -3 
Q 2594 1003 2969 2097 
z
M 4900 1872 
L 5331 2084 
Q 5844 1041 6300 53 
L 5844 -166 
Q 5494 641 4900 1872 
z
" transform="scale(0.015625)"/>
       <path id="MicrosoftYaHei-534a" d="M 125 1484 
L 2931 1484 
L 2931 2572 
L 381 2572 
L 381 3047 
L 2931 3047 
L 2931 5316 
L 3463 5316 
L 3463 3047 
L 6025 3047 
L 6025 2572 
L 3463 2572 
L 3463 1484 
L 6275 1484 
L 6275 1009 
L 3463 1009 
L 3463 -822 
L 2931 -822 
L 2931 1009 
L 125 1009 
L 125 1484 
z
M 4200 3709 
Q 4750 4222 5363 4959 
L 5800 4609 
Q 5194 3928 4575 3359 
L 4200 3709 
z
M 600 4641 
L 969 4947 
Q 1550 4397 2156 3728 
L 1725 3359 
Q 1081 4159 600 4641 
z
" transform="scale(0.015625)"/>
       <path id="MicrosoftYaHei-5f84" d="M 2388 4466 
L 2388 4891 
L 5738 4891 
L 5738 4459 
Q 5216 3866 4619 3391 
Q 5559 2888 6338 2428 
L 6038 1972 
Q 5256 2494 4216 3091 
Q 3253 2422 2106 2041 
Q 2000 2247 1850 2459 
Q 3894 3153 5025 4466 
L 2388 4466 
z
M 1931 -66 
L 3881 -66 
L 3881 1403 
L 2288 1403 
L 2288 1828 
L 5950 1828 
L 5950 1403 
L 4344 1403 
L 4344 -66 
L 6300 -66 
L 6300 -491 
L 1931 -491 
L 1931 -66 
z
M 38 1572 
Q 975 2353 1750 3809 
L 2175 3541 
Q 1844 2953 1475 2444 
L 1475 -816 
L 994 -816 
L 994 1831 
Q 638 1419 250 1066 
Q 156 1328 38 1572 
z
M 106 3616 
Q 1038 4359 1638 5391 
L 2063 5116 
Q 1356 3997 344 3134 
Q 238 3359 106 3616 
z
" transform="scale(0.015625)"/>
       <path id="MicrosoftYaHei-63" d="M 2934 156 
Q 2538 -81 1978 -81 
Q 1228 -81 772 400 
Q 316 881 316 1647 
Q 316 2497 808 3017 
Q 1300 3538 2125 3538 
Q 2600 3538 2938 3369 
L 2938 2763 
Q 2572 3031 2125 3031 
Q 1600 3031 1270 2667 
Q 941 2303 941 1697 
Q 941 1100 1252 762 
Q 1563 425 2091 425 
Q 2538 425 2934 719 
L 2934 156 
z
" transform="scale(0.015625)"/>
       <path id="MicrosoftYaHei-6d" d="M 5522 0 
L 4909 0 
L 4909 1984 
Q 4909 2547 4734 2789 
Q 4559 3031 4159 3031 
Q 3822 3031 3581 2715 
Q 3341 2400 3341 1969 
L 3341 0 
L 2728 0 
L 2728 2047 
Q 2728 3031 1969 3031 
Q 1619 3031 1389 2731 
Q 1159 2431 1159 1966 
L 1159 0 
L 547 0 
L 547 3456 
L 1159 3456 
L 1159 2909 
L 1172 2909 
Q 1541 3538 2250 3538 
Q 2597 3538 2862 3347 
Q 3128 3156 3231 2831 
Q 3616 3538 4381 3538 
Q 5522 3538 5522 2131 
L 5522 0 
z
" transform="scale(0.015625)"/>
      </defs>
      <use xlink:href="#MicrosoftYaHei-5b9e"/>
      <use xlink:href="#MicrosoftYaHei-9645" x="100"/>
      <use xlink:href="#MicrosoftYaHei-534a" x="200"/>
      <use xlink:href="#MicrosoftYaHei-5f84" x="300"/>
      <use xlink:href="#MicrosoftYaHei-20" x="400"/>
      <use xlink:href="#MicrosoftYaHei-2f" x="429.589844"/>
      <use xlink:href="#MicrosoftYaHei-20" x="472.314453"/>
      <use xlink:href="#MicrosoftYaHei-63" x="501.904297"/>
      <use xlink:href="#MicrosoftYaHei-6d" x="552.050781"/>
     </g>
    </g>
   </g>
   <g id="line2d_93">
    <path d="M 52.927188 412.976732 
L 56.817968 436.339451 
L 60.708748 450.872166 
L 64.599528 467.612382 
L 68.490308 481.961138 
L 76.271868 495.390102 
L 80.162648 503.116356 
L 84.053428 509.186984 
L 87.944208 514.705736 
L 91.834988 518.93678 
L 95.725768 523.903657 
L 99.616549 528.1347 
L 103.507329 531.445952 
L 107.398109 534.941162 
L 111.288889 537.884496 
L 115.179669 539.72408 
L 119.070449 541.931581 
L 122.961229 543.403249 
L 126.852009 545.242833 
L 130.742789 546.7145 
L 134.633569 548.002209 
L 138.524349 549.10596 
L 142.415129 550.393668 
L 146.30591 551.313461 
L 157.97825 553.520962 
L 161.86903 554.072837 
L 165.75981 554.80867 
L 173.54137 555.912421 
L 181.32293 556.648255 
L 185.21371 556.832213 
L 192.995271 557.568047 
L 224.121511 559.039714 
L 228.012291 559.039714 
L 231.903071 559.223672 
L 235.793852 559.223672 
L 239.684632 559.407631 
L 243.575412 559.407631 
L 247.466192 559.591589 
L 259.138532 559.591589 
L 263.029312 559.775548 
L 278.592433 559.775548 
L 282.483213 559.959506 
L 321.391013 559.959506 
L 325.281794 560.143464 
L 500.366897 560.143464 
L 504.257678 560.327423 
L 570.400939 560.327423 
L 574.291719 560.511381 
L 613.19952 560.511381 
L 613.19952 560.511381 
" clip-path="url(#p1617b4d3fc)" style="fill: none; stroke: #009e73; stroke-width: 1.2; stroke-linecap: square"/>
    <defs>
     <path id="ma505044267" d="M 0 1 
C 0.265203 1 0.51958 0.894634 0.707107 0.707107 
C 0.894634 0.51958 1 0.265203 1 0 
C 1 -0.265203 0.894634 -0.51958 0.707107 -0.707107 
C 0.51958 -0.894634 0.265203 -1 0 -1 
C -0.265203 -1 -0.51958 -0.894634 -0.707107 -0.707107 
C -0.894634 -0.51958 -1 -0.265203 -1 0 
C -1 0.265203 -0.894634 0.51958 -0.707107 0.707107 
C -0.51958 0.894634 -0.265203 1 0 1 
z
" style="stroke: #009e73"/>
    </defs>
    <g clip-path="url(#p1617b4d3fc)">
     <use xlink:href="#ma505044267" x="52.927188" y="412.976732" style="fill: #009e73; stroke: #009e73"/>
     <use xlink:href="#ma505044267" x="68.490308" y="481.961138" style="fill: #009e73; stroke: #009e73"/>
     <use xlink:href="#ma505044267" x="84.053428" y="509.186984" style="fill: #009e73; stroke: #009e73"/>
     <use xlink:href="#ma505044267" x="99.616549" y="528.1347" style="fill: #009e73; stroke: #009e73"/>
     <use xlink:href="#ma505044267" x="115.179669" y="539.72408" style="fill: #009e73; stroke: #009e73"/>
     <use xlink:href="#ma505044267" x="130.742789" y="546.7145" style="fill: #009e73; stroke: #009e73"/>
     <use xlink:href="#ma505044267" x="146.30591" y="551.313461" style="fill: #009e73; stroke: #009e73"/>
     <use xlink:href="#ma505044267" x="161.86903" y="554.072837" style="fill: #009e73; stroke: #009e73"/>
     <use xlink:href="#ma505044267" x="177.43215" y="556.280338" style="fill: #009e73; stroke: #009e73"/>
     <use xlink:href="#ma505044267" x="192.995271" y="557.568047" style="fill: #009e73; stroke: #009e73"/>
     <use xlink:href="#ma505044267" x="208.558391" y="558.30388" style="fill: #009e73; stroke: #009e73"/>
     <use xlink:href="#ma505044267" x="224.121511" y="559.039714" style="fill: #009e73; stroke: #009e73"/>
     <use xlink:href="#ma505044267" x="239.684632" y="559.407631" style="fill: #009e73; stroke: #009e73"/>
     <use xlink:href="#ma505044267" x="255.247752" y="559.591589" style="fill: #009e73; stroke: #009e73"/>
     <use xlink:href="#ma505044267" x="270.810872" y="559.775548" style="fill: #009e73; stroke: #009e73"/>
     <use xlink:href="#ma505044267" x="286.373993" y="559.959506" style="fill: #009e73; stroke: #009e73"/>
     <use xlink:href="#ma505044267" x="301.937113" y="559.959506" style="fill: #009e73; stroke: #009e73"/>
     <use xlink:href="#ma505044267" x="317.500233" y="559.959506" style="fill: #009e73; stroke: #009e73"/>
     <use xlink:href="#ma505044267" x="333.063354" y="560.143464" style="fill: #009e73; stroke: #009e73"/>
     <use xlink:href="#ma505044267" x="348.626474" y="560.143464" style="fill: #009e73; stroke: #009e73"/>
     <use xlink:href="#ma505044267" x="364.189594" y="560.143464" style="fill: #009e73; stroke: #009e73"/>
     <use xlink:href="#ma505044267" x="379.752715" y="560.143464" style="fill: #009e73; stroke: #009e73"/>
     <use xlink:href="#ma505044267" x="395.315835" y="560.143464" style="fill: #009e73; stroke: #009e73"/>
     <use xlink:href="#ma505044267" x="410.878955" y="560.143464" style="fill: #009e73; stroke: #009e73"/>
     <use xlink:href="#ma505044267" x="426.442076" y="560.143464" style="fill: #009e73; stroke: #009e73"/>
     <use xlink:href="#ma505044267" x="442.005196" y="560.143464" style="fill: #009e73; stroke: #009e73"/>
     <use xlink:href="#ma505044267" x="457.568317" y="560.143464" style="fill: #009e73; stroke: #009e73"/>
     <use xlink:href="#ma505044267" x="473.131437" y="560.143464" style="fill: #009e73; stroke: #009e73"/>
     <use xlink:href="#ma505044267" x="488.694557" y="560.143464" style="fill: #009e73; stroke: #009e73"/>
     <use xlink:href="#ma505044267" x="504.257678" y="560.327423" style="fill: #009e73; stroke: #009e73"/>
     <use xlink:href="#ma505044267" x="519.820798" y="560.327423" style="fill: #009e73; stroke: #009e73"/>
     <use xlink:href="#ma505044267" x="535.383918" y="560.327423" style="fill: #009e73; stroke: #009e73"/>
     <use xlink:href="#ma505044267" x="550.947039" y="560.327423" style="fill: #009e73; stroke: #009e73"/>
     <use xlink:href="#ma505044267" x="566.510159" y="560.327423" style="fill: #009e73; stroke: #009e73"/>
     <use xlink:href="#ma505044267" x="582.073279" y="560.511381" style="fill: #009e73; stroke: #009e73"/>
     <use xlink:href="#ma505044267" x="597.6364" y="560.511381" style="fill: #009e73; stroke: #009e73"/>
     <use xlink:href="#ma505044267" x="613.19952" y="560.511381" style="fill: #009e73; stroke: #009e73"/>
    </g>
   </g>
   <g id="line2d_94">
    <path d="M 448.418773 567.888114 
L 448.418773 405.6 
" clip-path="url(#p1617b4d3fc)" style="fill: none; stroke-dasharray: 3.7,1.6; stroke-dashoffset: 0; stroke: #50565c"/>
   </g>
   <g id="patch_11">
    <path d="M 52.927188 567.888114 
L 52.927188 405.6 
" style="fill: none; stroke: #3d4652; stroke-width: 0.8; stroke-linejoin: miter; stroke-linecap: square"/>
   </g>
   <g id="patch_12">
    <path d="M 52.927188 567.888114 
L 613.19952 567.888114 
" style="fill: none; stroke: #3d4652; stroke-width: 0.8; stroke-linejoin: miter; stroke-linecap: square"/>
   </g>
   <g id="legend_3">
    <g id="patch_13">
     <path d="M 515.09952 440.663437 
L 606.89952 440.663437 
Q 608.69952 440.663437 608.69952 438.863437 
L 608.69952 411.9 
Q 608.69952 410.1 606.89952 410.1 
L 515.09952 410.1 
Q 513.29952 410.1 513.29952 411.9 
L 513.29952 438.863437 
Q 513.29952 440.663437 515.09952 440.663437 
z
" style="fill: #ffffff; opacity: 0.8; stroke: #cccccc; stroke-linejoin: miter"/>
    </g>
    <g id="line2d_95">
     <path d="M 516.89952 417.744375 
L 525.89952 417.744375 
L 534.89952 417.744375 
" style="fill: none; stroke: #009e73; stroke-width: 1.2; stroke-linecap: square"/>
     <g>
      <use xlink:href="#ma505044267" x="525.89952" y="417.744375" style="fill: #009e73; stroke: #009e73"/>
     </g>
    </g>
    <g id="text_52">
     <!-- 附件 2 半径 -->
     <g style="fill: #20242a" transform="translate(542.09952 420.894375) scale(0.09 -0.09)">
      <use xlink:href="#MicrosoftYaHei-9644"/>
      <use xlink:href="#MicrosoftYaHei-4ef6" x="100"/>
      <use xlink:href="#MicrosoftYaHei-20" x="200"/>
      <use xlink:href="#MicrosoftYaHei-32" x="229.589844"/>
      <use xlink:href="#MicrosoftYaHei-20" x="288.232422"/>
      <use xlink:href="#MicrosoftYaHei-534a" x="317.822266"/>
      <use xlink:href="#MicrosoftYaHei-5f84" x="417.822266"/>
     </g>
    </g>
    <g id="line2d_96">
     <path d="M 516.89952 431.676094 
L 525.89952 431.676094 
L 534.89952 431.676094 
" style="fill: none; stroke-dasharray: 3.7,1.6; stroke-dashoffset: 0; stroke: #50565c"/>
    </g>
    <g id="text_53">
     <!-- 主方案结束时刻 -->
     <g style="fill: #20242a" transform="translate(542.09952 434.826094) scale(0.09 -0.09)">
      <defs>
       <path id="MicrosoftYaHei-4e3b" d="M 150 9 
L 2931 9 
L 2931 1809 
L 644 1809 
L 644 2284 
L 2931 2284 
L 2931 3709 
L 400 3709 
L 400 4184 
L 5975 4184 
L 5975 3709 
L 3469 3709 
L 3469 2284 
L 5756 2284 
L 5756 1809 
L 3469 1809 
L 3469 9 
L 6250 9 
L 6250 -453 
L 150 -453 
L 150 9 
z
M 2694 5109 
L 3156 5347 
Q 3538 4778 3706 4466 
L 3213 4203 
Q 2875 4828 2694 5109 
z
" transform="scale(0.015625)"/>
       <path id="MicrosoftYaHei-65b9" d="M 194 4241 
L 3194 4241 
Q 2878 4841 2700 5116 
L 3188 5347 
Q 3363 5078 3713 4472 
L 3256 4241 
L 6219 4241 
L 6219 3766 
L 2428 3766 
Q 2406 3197 2381 2797 
L 5400 2797 
Q 5325 1441 5238 441 
Q 5169 -691 4138 -691 
Q 3663 -691 2869 -641 
Q 2838 -403 2775 -66 
Q 3569 -172 4063 -172 
Q 4638 -172 4706 509 
Q 4781 1253 4838 2328 
L 2347 2328 
Q 2172 266 438 -872 
Q 269 -672 56 -447 
Q 1706 641 1825 2466 
Q 1869 2959 1897 3766 
L 194 3766 
L 194 4241 
z
" transform="scale(0.015625)"/>
       <path id="MicrosoftYaHei-6848" d="M 419 1822 
Q 1925 1994 2766 2219 
Q 2016 2419 1250 2609 
Q 1506 2884 1738 3153 
L 250 3153 
L 250 3566 
L 2075 3566 
Q 2313 3866 2513 4159 
L 3019 4016 
Q 2850 3791 2659 3566 
L 6150 3566 
L 6150 3153 
L 4806 3153 
Q 4509 2625 4003 2297 
Q 4897 2063 5681 1847 
L 5481 1428 
Q 4491 1741 3466 2025 
Q 2516 1650 600 1409 
Q 525 1609 419 1822 
z
M 6319 -197 
Q 6106 -447 5956 -666 
Q 4306 -172 3425 544 
L 3425 -866 
L 2975 -866 
L 2975 534 
Q 2028 -134 456 -672 
Q 313 -491 94 -247 
Q 1706 156 2647 747 
L 238 747 
L 238 1166 
L 2975 1166 
L 2975 1678 
L 3425 1678 
L 3425 1166 
L 6200 1166 
L 6200 747 
L 3766 747 
Q 4753 81 6319 -197 
z
M 419 4734 
L 3038 4734 
Q 2919 4950 2763 5178 
L 3206 5378 
Q 3409 5059 3591 4734 
L 5975 4734 
L 5975 3791 
L 5500 3791 
L 5500 4322 
L 894 4322 
L 894 3791 
L 419 3791 
L 419 4734 
z
M 1963 2809 
Q 2725 2622 3425 2444 
Q 3975 2688 4284 3153 
L 2294 3153 
Q 2134 2981 1963 2809 
z
" transform="scale(0.015625)"/>
       <path id="MicrosoftYaHei-7ed3" d="M 2625 1709 
L 5925 1709 
L 5925 -828 
L 5438 -828 
L 5438 -441 
L 3113 -441 
L 3113 -828 
L 2625 -828 
L 2625 1709 
z
M 2500 2897 
L 4025 2897 
L 4025 3872 
L 2294 3872 
L 2294 4322 
L 4025 4322 
L 4025 5322 
L 4525 5322 
L 4525 4322 
L 6275 4322 
L 6275 3872 
L 4525 3872 
L 4525 2897 
L 6056 2897 
L 6056 2447 
L 2500 2447 
L 2500 2897 
z
M 894 1566 
Q 1725 1684 2269 1778 
Q 2231 1534 2213 1303 
Q 1519 1203 319 1009 
L 219 1472 
Q 619 1888 1172 2791 
Q 647 2756 219 2722 
L 100 3147 
Q 675 3916 1294 5366 
L 1769 5178 
Q 1094 3853 663 3184 
Q 1025 3194 1419 3206 
Q 1631 3569 1863 3997 
L 2325 3766 
Q 1613 2578 894 1566 
z
M 5438 1272 
L 3113 1272 
L 3113 -3 
L 5438 -3 
L 5438 1272 
z
M 75 91 
Q 1231 316 2331 584 
Q 2313 334 2313 109 
Q 1300 -103 213 -391 
L 75 91 
z
" transform="scale(0.015625)"/>
       <path id="MicrosoftYaHei-675f" d="M 6306 -116 
Q 6094 -372 5969 -566 
Q 4450 128 3444 1297 
L 3444 -841 
L 2969 -841 
L 2969 1309 
Q 1959 203 413 -622 
Q 288 -447 88 -209 
Q 1616 497 2778 1634 
L 1263 1634 
L 1263 1416 
L 788 1416 
L 788 3534 
L 2969 3534 
L 2969 4228 
L 163 4228 
L 163 4666 
L 2969 4666 
L 2969 5341 
L 3444 5341 
L 3444 4666 
L 6219 4666 
L 6219 4228 
L 3444 4228 
L 3444 3534 
L 5631 3534 
L 5631 1416 
L 5156 1416 
L 5156 1634 
L 3622 1634 
Q 4725 466 6306 -116 
z
M 5156 3109 
L 3444 3109 
L 3444 2059 
L 5156 2059 
L 5156 3109 
z
M 1263 3109 
L 1263 2059 
L 2969 2059 
L 2969 3109 
L 1263 3109 
z
" transform="scale(0.015625)"/>
       <path id="MicrosoftYaHei-523b" d="M 3175 3478 
Q 2425 1747 413 272 
Q 256 491 75 672 
Q 1191 1394 1913 2294 
Q 1188 2256 569 2203 
L 438 2616 
Q 588 2741 694 2903 
Q 1053 3431 1350 4034 
L 275 4034 
L 275 4484 
L 2034 4484 
Q 1850 4800 1625 5134 
L 2056 5353 
Q 2325 4934 2488 4641 
L 2200 4484 
L 3900 4484 
L 3900 4034 
L 1903 4034 
Q 1422 3209 1050 2653 
Q 1303 2659 2206 2694 
Q 2516 3153 2731 3653 
L 3175 3478 
z
M 5475 5216 
L 5963 5216 
L 5963 28 
Q 5963 -722 5200 -728 
Q 4844 -734 4338 -722 
Q 4306 -478 4244 -209 
Q 4731 -266 5031 -266 
Q 5475 -266 5475 172 
L 5475 5216 
z
M 3750 2353 
Q 3359 1525 2806 850 
Q 3403 297 3994 -297 
L 3606 -666 
Q 3159 -141 2513 513 
Q 1756 -303 731 -878 
Q 581 -672 388 -478 
Q 2356 541 3306 2559 
L 3750 2353 
z
M 4269 4584 
L 4738 4584 
L 4738 634 
L 4269 634 
L 4269 4584 
z
" transform="scale(0.015625)"/>
      </defs>
      <use xlink:href="#MicrosoftYaHei-4e3b"/>
      <use xlink:href="#MicrosoftYaHei-65b9" x="100"/>
      <use xlink:href="#MicrosoftYaHei-6848" x="200"/>
      <use xlink:href="#MicrosoftYaHei-7ed3" x="300"/>
      <use xlink:href="#MicrosoftYaHei-675f" x="400"/>
      <use xlink:href="#MicrosoftYaHei-65f6" x="500"/>
      <use xlink:href="#MicrosoftYaHei-523b" x="600"/>
     </g>
    </g>
   </g>
  </g>
 </g>
 <defs>
  <clipPath id="p842fa6ea64">
   <rect x="52.927188" y="7.2" width="560.272332" height="162.288114"/>
  </clipPath>
  <clipPath id="p54222aa917">
   <rect x="52.927188" y="206.4" width="560.272332" height="162.288114"/>
  </clipPath>
  <clipPath id="p1617b4d3fc">
   <rect x="52.927188" y="405.6" width="560.272332" height="162.288114"/>
  </clipPath>
 </defs>
</svg>
