<?xml version="1.0" encoding="utf-8" standalone="no"?>
<!DOCTYPE svg PUBLIC "-//W3C//DTD SVG 1.1//EN"
  "http://www.w3.org/Graphics/SVG/1.1/DTD/svg11.dtd">
<svg xmlns:xlink="http://www.w3.org/1999/xlink" width="814.79952pt" height="353.99952pt" viewBox="0 0 814.79952 353.99952" xmlns="http://www.w3.org/2000/svg" version="1.1">
 <metadata>
  <rdf:RDF xmlns:dc="http://purl.org/dc/elements/1.1/" xmlns:cc="http://creativecommons.org/ns#" xmlns:rdf="http://www.w3.org/1999/02/22-rdf-syntax-ns#">
   <cc:Work>
    <dc:type rdf:resource="http://purl.org/dc/dcmitype/StillImage"/>
    <dc:date>2026-09-12T16:43:27.075588</dc:date>
    <dc:format>image/svg+xml</dc:format>
    <dc:creator>
     <cc:Agent>
      <dc:title>Matplotlib v3.9.3, https://matplotlib.org/</dc:title>
     </cc:Agent>
    </dc:creator>
   </cc:Work>
  </rdf:RDF>
 </metadata>
 <defs>
  <style type="text/css">*{stroke-linejoin: round; stroke-linecap: butt}</style>
 </defs>
 <g id="figure_1">
  <g id="patch_1">
   <path d="M 0 353.99952 
L 814.79952 353.99952 
L 814.79952 0 
L 0 0 
z
" style="fill: #ffffff"/>
  </g>
  <g id="axes_1">
   <g id="patch_2">
    <path d="M 83.635 315.888114 
L 420.08526 315.888114 
L 420.08526 35.279406 
L 83.635 35.279406 
z
" style="fill: #ffffff"/>
   </g>
   <g id="matplotlib.axis_1">
    <g id="xtick_1">
     <g id="line2d_1">
      <path d="M 83.635 315.888114 
L 83.635 35.279406 
" clip-path="url(#p50f1d8a956)" style="fill: none; stroke: #d8dee6; stroke-opacity: 0.7; stroke-width: 0.55; stroke-linecap: square"/>
     </g>
     <g id="line2d_2">
      <defs>
       <path id="md9b29e1528" d="M 0 0 
L 0 3.5 
" style="stroke: #000000; stroke-width: 0.8"/>
      </defs>
      <g>
       <use xlink:href="#md9b29e1528" x="83.635" y="315.888114" style="stroke: #000000; stroke-width: 0.8"/>
      </g>
     </g>
     <g id="text_1">
      <!-- $\mathdefault{0}$ -->
      <g transform="translate(80.98 330.082489) scale(0.09 -0.09)">
       <defs>
        <path id="MicrosoftYaHei-30" d="M 284 2325 
Q 284 3606 709 4264 
Q 1134 4922 1941 4922 
Q 3478 4922 3478 2441 
Q 3478 1216 3045 567 
Q 2613 -81 1831 -81 
Q 1094 -81 689 534 
Q 284 1150 284 2325 
z
M 909 2353 
Q 909 425 1888 425 
Q 2850 425 2850 2384 
Q 2850 4413 1906 4413 
Q 909 4413 909 2353 
z
" transform="scale(0.015625)"/>
       </defs>
       <use xlink:href="#MicrosoftYaHei-30" transform="translate(0 0.09375)"/>
      </g>
     </g>
    </g>
    <g id="xtick_2">
     <g id="line2d_3">
      <path d="M 156.776361 315.888114 
L 156.776361 35.279406 
" clip-path="url(#p50f1d8a956)" style="fill: none; stroke: #d8dee6; stroke-opacity: 0.7; stroke-width: 0.55; stroke-linecap: square"/>
     </g>
     <g id="line2d_4">
      <g>
       <use xlink:href="#md9b29e1528" x="156.776361" y="315.888114" style="stroke: #000000; stroke-width: 0.8"/>
      </g>
     </g>
     <g id="text_2">
      <!-- $\mathdefault{20}$ -->
      <g transform="translate(151.241361 330.082489) scale(0.09 -0.09)">
       <defs>
        <path id="MicrosoftYaHei-32" d="M 2666 3572 
Q 2666 3963 2419 4186 
Q 2172 4409 1747 4409 
Q 1447 4409 1140 4256 
Q 834 4103 569 3819 
L 569 4413 
Q 806 4659 1107 4790 
Q 1409 4922 1816 4922 
Q 2472 4922 2872 4570 
Q 3272 4219 3272 3619 
Q 3272 3084 3026 2693 
Q 2781 2303 2188 1894 
Q 1581 1475 1376 1294 
Q 1172 1113 1090 947 
Q 1009 781 1009 544 
L 3416 544 
L 3416 0 
L 372 0 
L 372 241 
Q 372 659 486 951 
Q 600 1244 862 1520 
Q 1125 1797 1681 2184 
Q 2250 2584 2458 2886 
Q 2666 3188 2666 3572 
z
" transform="scale(0.015625)"/>
       </defs>
       <use xlink:href="#MicrosoftYaHei-32" transform="translate(0 0.09375)"/>
       <use xlink:href="#MicrosoftYaHei-30" transform="translate(63.892578 0.09375)"/>
      </g>
     </g>
    </g>
    <g id="xtick_3">
     <g id="line2d_5">
      <path d="M 229.917722 315.888114 
L 229.917722 35.279406 
" clip-path="url(#p50f1d8a956)" style="fill: none; stroke: #d8dee6; stroke-opacity: 0.7; stroke-width: 0.55; stroke-linecap: square"/>
     </g>
     <g id="line2d_6">
      <g>
       <use xlink:href="#md9b29e1528" x="229.917722" y="315.888114" style="stroke: #000000; stroke-width: 0.8"/>
      </g>
     </g>
     <g id="text_3">
      <!-- $\mathdefault{40}$ -->
      <g transform="translate(224.607722 330.082489) scale(0.09 -0.09)">
       <defs>
        <path id="MicrosoftYaHei-34" d="M 2906 4841 
L 2906 1644 
L 3631 1644 
L 3631 1138 
L 2906 1138 
L 2906 0 
L 2313 0 
L 2313 1138 
L 53 1138 
L 53 1616 
Q 656 2294 1265 3178 
Q 1875 4063 2272 4841 
L 2906 4841 
z
M 741 1644 
L 2313 1644 
L 2313 3950 
Q 1988 3366 1616 2817 
Q 1244 2269 741 1644 
z
" transform="scale(0.015625)"/>
       </defs>
       <use xlink:href="#MicrosoftYaHei-34" transform="translate(0 0.09375)"/>
       <use xlink:href="#MicrosoftYaHei-30" transform="translate(58.642578 0.09375)"/>
      </g>
     </g>
    </g>
    <g id="xtick_4">
     <g id="line2d_7">
      <path d="M 303.059083 315.888114 
L 303.059083 35.279406 
" clip-path="url(#p50f1d8a956)" style="fill: none; stroke: #d8dee6; stroke-opacity: 0.7; stroke-width: 0.55; stroke-linecap: square"/>
     </g>
     <g id="line2d_8">
      <g>
       <use xlink:href="#md9b29e1528" x="303.059083" y="315.888114" style="stroke: #000000; stroke-width: 0.8"/>
      </g>
     </g>
     <g id="text_4">
      <!-- $\mathdefault{60}$ -->
      <g transform="translate(298.064083 330.082489) scale(0.09 -0.09)">
       <defs>
        <path id="MicrosoftYaHei-36" d="M 3181 4219 
Q 2803 4413 2391 4413 
Q 1763 4413 1381 3866 
Q 1000 3319 994 2372 
L 1009 2372 
Q 1353 3038 2106 3038 
Q 2734 3038 3109 2628 
Q 3484 2219 3484 1541 
Q 3484 831 3051 375 
Q 2619 -81 1947 -81 
Q 1209 -81 789 495 
Q 369 1072 369 2131 
Q 369 3413 920 4167 
Q 1472 4922 2372 4922 
Q 2888 4922 3181 4781 
L 3181 4219 
z
M 1031 1584 
Q 1031 1106 1286 765 
Q 1541 425 1963 425 
Q 2363 425 2613 719 
Q 2863 1013 2863 1475 
Q 2863 1975 2627 2253 
Q 2391 2531 1956 2531 
Q 1544 2531 1287 2250 
Q 1031 1969 1031 1584 
z
" transform="scale(0.015625)"/>
       </defs>
       <use xlink:href="#MicrosoftYaHei-36" transform="translate(0 0.09375)"/>
       <use xlink:href="#MicrosoftYaHei-30" transform="translate(51.892578 0.09375)"/>
      </g>
     </g>
    </g>
    <g id="xtick_5">
     <g id="line2d_9">
      <path d="M 376.200443 315.888114 
L 376.200443 35.279406 
" clip-path="url(#p50f1d8a956)" style="fill: none; stroke: #d8dee6; stroke-opacity: 0.7; stroke-width: 0.55; stroke-linecap: square"/>
     </g>
     <g id="line2d_10">
      <g>
       <use xlink:href="#md9b29e1528" x="376.200443" y="315.888114" style="stroke: #000000; stroke-width: 0.8"/>
      </g>
     </g>
     <g id="text_5">
      <!-- $\mathdefault{80}$ -->
      <g transform="translate(370.755443 330.082489) scale(0.09 -0.09)">
       <defs>
        <path id="MicrosoftYaHei-38" d="M 306 1350 
Q 306 1769 556 2122 
Q 806 2475 1200 2625 
Q 884 2803 700 3081 
Q 516 3359 516 3684 
Q 516 4028 692 4312 
Q 869 4597 1183 4759 
Q 1497 4922 1875 4922 
Q 2256 4922 2572 4761 
Q 2888 4600 3063 4315 
Q 3238 4031 3238 3684 
Q 3238 3366 3058 3086 
Q 2878 2806 2559 2625 
Q 2953 2472 3200 2119 
Q 3447 1766 3447 1350 
Q 3447 938 3250 611 
Q 3053 284 2690 103 
Q 2328 -78 1875 -78 
Q 1425 -78 1065 103 
Q 706 284 506 612 
Q 306 941 306 1350 
z
M 906 1378 
Q 906 947 1172 687 
Q 1438 428 1878 428 
Q 2309 428 2582 692 
Q 2856 956 2856 1378 
Q 2856 1778 2579 2051 
Q 2303 2325 1878 2325 
Q 1456 2325 1181 2058 
Q 906 1791 906 1378 
z
M 1081 3634 
Q 1081 3309 1312 3076 
Q 1544 2844 1878 2844 
Q 2206 2844 2445 3078 
Q 2684 3313 2684 3634 
Q 2684 3963 2454 4191 
Q 2225 4419 1878 4419 
Q 1534 4419 1307 4195 
Q 1081 3972 1081 3634 
z
" transform="scale(0.015625)"/>
       </defs>
       <use xlink:href="#MicrosoftYaHei-38" transform="translate(0 0.09375)"/>
       <use xlink:href="#MicrosoftYaHei-30" transform="translate(61.642578 0.09375)"/>
      </g>
     </g>
    </g>
    <g id="text_6">
     <!-- 临界时长或数据覆盖 / h -->
     <g style="fill: #20242a" transform="translate(198.685911 344.313582) scale(0.1 -0.1)">
      <defs>
       <path id="MicrosoftYaHei-4e34" d="M 2681 2472 
L 6006 2472 
L 6006 -784 
L 5525 -784 
L 5525 -378 
L 3163 -378 
L 3163 -784 
L 2681 -784 
L 2681 2472 
z
M 1519 5278 
L 2013 5278 
L 2013 -816 
L 1519 -816 
L 1519 5278 
z
M 2181 3091 
Q 2988 4166 3444 5353 
L 3913 5197 
Q 3750 4803 3572 4434 
L 6275 4434 
L 6275 3972 
L 3334 3972 
Q 2975 3306 2556 2734 
Q 2438 2872 2181 3091 
z
M 400 4684 
L 894 4684 
L 894 -228 
L 400 -228 
L 400 4684 
z
M 5525 2022 
L 4581 2022 
L 4581 59 
L 5525 59 
L 5525 2022 
z
M 3163 59 
L 4100 59 
L 4100 2022 
L 3163 2022 
L 3163 59 
z
M 4056 3847 
Q 4588 3434 5063 2984 
L 4700 2609 
Q 4181 3166 3731 3528 
L 4056 3847 
z
" transform="scale(0.015625)"/>
       <path id="MicrosoftYaHei-754c" d="M 5656 5028 
L 5656 2041 
L 5181 2041 
L 5181 2266 
L 3913 2266 
Q 4772 1494 6319 1147 
Q 6113 866 5988 666 
Q 5213 916 4588 1281 
L 4588 -797 
L 4088 -797 
L 4088 1391 
L 4409 1391 
Q 3813 1769 3356 2266 
L 3113 2266 
Q 2619 1809 1994 1416 
L 2350 1416 
Q 2350 472 2044 22 
Q 1750 -447 888 -859 
Q 744 -666 525 -453 
Q 1331 -97 1606 284 
Q 1841 591 1856 1328 
Q 1206 934 425 603 
Q 306 778 94 1009 
Q 1588 1553 2466 2266 
L 1225 2266 
L 1225 2041 
L 750 2041 
L 750 5028 
L 5656 5028 
z
M 3438 2678 
L 5181 2678 
L 5181 3441 
L 3438 3441 
L 3438 2678 
z
M 5181 4616 
L 3438 4616 
L 3438 3853 
L 5181 3853 
L 5181 4616 
z
M 1225 3853 
L 2963 3853 
L 2963 4616 
L 1225 4616 
L 1225 3853 
z
M 1225 2678 
L 2963 2678 
L 2963 3441 
L 1225 3441 
L 1225 2678 
z
" transform="scale(0.015625)"/>
       <path id="MicrosoftYaHei-65f6" d="M 344 4728 
L 2500 4728 
L 2500 -366 
L 2006 -366 
L 2006 153 
L 838 153 
L 838 -441 
L 344 -441 
L 344 4728 
z
M 2706 3941 
L 4925 3941 
L 4925 5322 
L 5425 5322 
L 5425 3941 
L 6313 3941 
L 6313 3478 
L 5425 3478 
L 5425 116 
Q 5425 -722 4625 -722 
Q 4263 -722 3563 -703 
Q 3531 -478 3463 -178 
Q 4119 -228 4488 -228 
Q 4925 -228 4925 216 
L 4925 3478 
L 2706 3478 
L 2706 3941 
z
M 838 616 
L 2006 616 
L 2006 2234 
L 838 2234 
L 838 616 
z
M 2006 4266 
L 838 4266 
L 838 2684 
L 2006 2684 
L 2006 4266 
z
M 3406 2878 
Q 3906 1966 4163 1422 
Q 4000 1347 3663 1172 
Q 3419 1766 2963 2653 
L 3406 2878 
z
" transform="scale(0.015625)"/>
       <path id="MicrosoftYaHei-957f" d="M 169 2766 
L 1269 2766 
L 1269 5316 
L 1781 5316 
L 1781 2766 
L 6194 2766 
L 6194 2278 
L 3456 2278 
Q 4238 566 6325 -78 
Q 6113 -359 5944 -591 
Q 3697 266 2925 2278 
L 1781 2278 
L 1781 16 
Q 2494 303 3294 678 
Q 3294 384 3319 116 
Q 2575 -191 1894 -528 
Q 1644 -666 1431 -834 
L 1056 -353 
Q 1269 -184 1269 103 
L 1269 2278 
L 169 2278 
L 169 2766 
z
M 2156 3528 
Q 3706 4047 5138 5109 
L 5463 4703 
Q 4000 3634 2400 3066 
Q 2300 3278 2156 3528 
z
" transform="scale(0.015625)"/>
       <path id="MicrosoftYaHei-6216" d="M 2675 -484 
Q 3456 50 4044 741 
Q 3644 1847 3569 3741 
L 200 3741 
L 200 4203 
L 3550 4203 
Q 3525 4725 3506 5291 
L 4019 5291 
Q 4022 4725 4038 4203 
L 6250 4203 
L 6250 3741 
L 4047 3741 
Q 4088 2188 4397 1197 
Q 5000 2044 5350 3097 
L 5844 2891 
Q 5334 1619 4603 659 
Q 4884 59 5275 -191 
Q 5650 -434 5738 16 
Q 5831 484 5881 978 
Q 6138 866 6363 797 
Q 6244 78 6138 -291 
Q 6006 -778 5569 -791 
Q 5206 -791 4863 -528 
Q 4513 -234 4259 244 
Q 3706 -384 3038 -853 
Q 2894 -691 2675 -484 
z
M 644 3134 
L 2894 3134 
L 2894 947 
L 2444 947 
L 2444 1234 
L 1094 1234 
L 1094 797 
L 644 797 
L 644 3134 
z
M 106 91 
Q 1300 247 3219 578 
Q 3225 309 3238 103 
Q 1831 -109 231 -409 
L 106 91 
z
M 2444 2697 
L 1094 2697 
L 1094 1672 
L 2444 1672 
L 2444 2697 
z
M 4494 4991 
L 4756 5316 
Q 5263 5022 5781 4659 
L 5481 4284 
Q 5013 4647 4494 4991 
z
" transform="scale(0.015625)"/>
       <path id="MicrosoftYaHei-6570" d="M 4175 5303 
L 4675 5228 
Q 4544 4622 4369 4097 
L 6281 4097 
L 6281 3672 
L 5888 3672 
Q 5731 1834 5088 753 
Q 5594 66 6375 -372 
Q 6175 -647 6038 -866 
Q 5275 -372 4769 309 
Q 4194 -403 3400 -928 
Q 3263 -747 3044 -534 
Q 3919 41 4463 772 
Q 3956 1647 3794 2791 
Q 3663 2559 3519 2359 
Q 3394 2541 3206 2759 
Q 3931 3803 4175 5303 
z
M 150 1697 
L 1100 1697 
Q 1238 1934 1369 2184 
L 1819 2041 
Q 1719 1866 1619 1697 
L 3150 1697 
L 3150 1291 
Q 2913 678 2431 216 
Q 2775 53 3131 -109 
L 2856 -541 
Q 2469 -322 2050 -103 
Q 1344 -609 269 -903 
Q 169 -703 56 -466 
Q 969 -259 1600 128 
Q 1063 403 475 691 
Q 675 978 863 1284 
L 150 1284 
L 150 1697 
z
M 219 3847 
L 1656 3847 
L 1656 5247 
L 2119 5247 
L 2119 3847 
L 3319 3847 
L 3319 3434 
L 2119 3434 
L 2119 3053 
L 2306 3266 
Q 2888 2841 3281 2516 
L 2981 2166 
Q 2638 2491 2119 2897 
L 2119 2184 
L 1656 2184 
L 1656 3059 
Q 1088 2466 331 2016 
Q 213 2197 63 2397 
Q 850 2822 1506 3434 
L 219 3434 
L 219 3847 
z
M 5388 3672 
L 4219 3672 
Q 4188 3591 4150 3516 
Q 4263 2191 4775 1247 
Q 5275 2159 5388 3672 
z
M 1088 834 
Q 1531 634 2000 416 
Q 2431 784 2675 1284 
L 1375 1284 
Q 1231 1053 1088 834 
z
M 3038 5091 
L 3425 4834 
Q 3081 4384 2738 4003 
Q 2594 4128 2400 4266 
Q 2725 4647 3038 5091 
z
M 381 4816 
L 738 5059 
Q 1019 4716 1319 4322 
L 931 4047 
Q 656 4453 381 4816 
z
" transform="scale(0.015625)"/>
       <path id="MicrosoftYaHei-636e" d="M 2900 1334 
L 4188 1334 
L 4188 2128 
L 2731 2128 
Q 2663 206 1844 -841 
Q 1694 -647 1506 -447 
Q 2288 516 2288 2509 
L 2288 4947 
L 5975 4947 
L 5975 3134 
L 5525 3134 
L 5525 3328 
L 2738 3328 
L 2738 2553 
L 4188 2553 
L 4188 3209 
L 4638 3209 
L 4638 2553 
L 6288 2553 
L 6288 2128 
L 4638 2128 
L 4638 1334 
L 5938 1334 
L 5938 -778 
L 5488 -778 
L 5488 -416 
L 3350 -416 
L 3350 -778 
L 2900 -778 
L 2900 1334 
z
M 100 1966 
Q 544 2088 963 2213 
L 963 3641 
L 175 3641 
L 175 4091 
L 963 4091 
L 963 5284 
L 1425 5284 
L 1425 4091 
L 2106 4091 
L 2106 3641 
L 1425 3641 
L 1425 2356 
Q 1722 2450 2006 2547 
Q 2013 2266 2044 2059 
Q 1722 1956 1425 1856 
L 1425 -34 
Q 1425 -741 806 -753 
Q 613 -759 231 -747 
Q 206 -497 156 -228 
Q 500 -266 681 -266 
Q 963 -266 963 53 
L 963 1703 
Q 534 1559 163 1428 
L 100 1966 
z
M 5525 4534 
L 2738 4534 
L 2738 3741 
L 5525 3741 
L 5525 4534 
z
M 5488 922 
L 3350 922 
L 3350 -9 
L 5488 -9 
L 5488 922 
z
" transform="scale(0.015625)"/>
       <path id="MicrosoftYaHei-8986" d="M 1706 191 
Q 2394 572 2869 1028 
L 2363 1028 
L 2363 2247 
Q 2231 2097 2094 1953 
Q 1975 2122 1825 2259 
Q 2319 2703 2619 3272 
L 3050 3272 
Q 2988 3153 2925 3041 
L 5950 3041 
L 5950 2753 
L 2744 2753 
Q 2644 2603 2525 2453 
L 5638 2453 
L 5638 922 
L 5238 922 
L 5238 1028 
L 3344 1028 
Q 3194 866 3038 722 
L 5588 722 
L 5588 447 
Q 5094 72 4538 -184 
Q 5288 -341 6306 -372 
Q 6269 -447 6106 -766 
Q 4856 -684 3981 -403 
Q 3094 -709 1981 -866 
Q 1906 -684 1750 -484 
Q 2706 -384 3450 -184 
Q 3000 47 2650 378 
Q 2325 122 1981 -78 
Q 1963 -59 1706 191 
z
M 631 4353 
L 2225 4353 
L 2225 4722 
L 300 4722 
L 300 5059 
L 6113 5059 
L 6113 4722 
L 4181 4722 
L 4181 4353 
L 5775 4353 
L 5775 3234 
L 5363 3234 
L 5363 3347 
L 1044 3347 
L 1044 3234 
L 631 3234 
L 631 4353 
z
M 1563 2084 
L 1925 1884 
Q 1656 1497 1375 1166 
L 1375 -834 
L 975 -834 
L 975 734 
Q 713 478 444 266 
Q 281 453 150 566 
Q 944 1166 1563 2084 
z
M 2763 1309 
L 5238 1309 
L 5238 1609 
L 2763 1609 
L 2763 1309 
z
M 5238 2172 
L 2763 2172 
L 2763 1872 
L 5238 1872 
L 5238 2172 
z
M 1388 3191 
L 1744 2991 
Q 1156 2209 475 1641 
Q 344 1778 156 1941 
Q 844 2428 1388 3191 
z
M 5363 4059 
L 4181 4059 
L 4181 3641 
L 5363 3641 
L 5363 4059 
z
M 2613 3641 
L 3794 3641 
L 3794 4059 
L 2613 4059 
L 2613 3641 
z
M 1044 3641 
L 2225 3641 
L 2225 4059 
L 1044 4059 
L 1044 3641 
z
M 4981 447 
L 3088 447 
Q 3481 147 3969 -22 
Q 4506 159 4981 447 
z
M 2613 4353 
L 3794 4353 
L 3794 4722 
L 2613 4722 
L 2613 4353 
z
" transform="scale(0.015625)"/>
       <path id="MicrosoftYaHei-76d6" d="M 138 -172 
L 800 -172 
L 800 1578 
L 5569 1578 
L 5569 -172 
L 6269 -172 
L 6269 -609 
L 138 -609 
L 138 -172 
z
M 250 2534 
L 2956 2534 
L 2956 3103 
L 600 3103 
L 600 3509 
L 2956 3509 
L 2956 4072 
L 325 4072 
L 325 4491 
L 2081 4491 
Q 1866 4794 1631 5091 
L 2013 5359 
Q 2319 5016 2556 4722 
L 2228 4491 
L 3725 4491 
Q 4053 4931 4306 5353 
L 4794 5053 
Q 4556 4775 4306 4491 
L 6075 4491 
L 6075 4072 
L 3425 4072 
L 3425 3509 
L 5800 3509 
L 5800 3103 
L 3425 3103 
L 3425 2534 
L 6150 2534 
L 6150 2116 
L 250 2116 
L 250 2534 
z
M 5100 1172 
L 4119 1172 
L 4119 -172 
L 5100 -172 
L 5100 1172 
z
M 1269 -172 
L 2238 -172 
L 2238 1172 
L 1269 1172 
L 1269 -172 
z
M 2694 -172 
L 3663 -172 
L 3663 1172 
L 2694 1172 
L 2694 -172 
z
" transform="scale(0.015625)"/>
       <path id="MicrosoftYaHei-20" transform="scale(0.015625)"/>
       <path id="MicrosoftYaHei-2f" d="M 2791 4841 
L 469 -803 
L -103 -803 
L 2219 4841 
L 2791 4841 
z
" transform="scale(0.015625)"/>
       <path id="MicrosoftYaHei-68" d="M 3466 0 
L 2856 0 
L 2856 1988 
Q 2856 3031 2081 3031 
Q 1684 3031 1421 2726 
Q 1159 2422 1159 1959 
L 1159 0 
L 547 0 
L 547 5116 
L 1159 5116 
L 1159 2888 
L 1172 2888 
Q 1569 3538 2300 3538 
Q 3466 3538 3466 2128 
L 3466 0 
z
" transform="scale(0.015625)"/>
      </defs>
      <use xlink:href="#MicrosoftYaHei-4e34"/>
      <use xlink:href="#MicrosoftYaHei-754c" x="100"/>
      <use xlink:href="#MicrosoftYaHei-65f6" x="200"/>
      <use xlink:href="#MicrosoftYaHei-957f" x="300"/>
      <use xlink:href="#MicrosoftYaHei-6216" x="400"/>
      <use xlink:href="#MicrosoftYaHei-6570" x="500"/>
      <use xlink:href="#MicrosoftYaHei-636e" x="600"/>
      <use xlink:href="#MicrosoftYaHei-8986" x="700"/>
      <use xlink:href="#MicrosoftYaHei-76d6" x="800"/>
      <use xlink:href="#MicrosoftYaHei-20" x="900"/>
      <use xlink:href="#MicrosoftYaHei-2f" x="929.589844"/>
      <use xlink:href="#MicrosoftYaHei-20" x="972.314453"/>
      <use xlink:href="#MicrosoftYaHei-68" x="1001.904297"/>
     </g>
    </g>
   </g>
   <g id="matplotlib.axis_2">
    <g id="ytick_1">
     <g id="line2d_11">
      <path d="M 83.635 68.0983 
L 420.08526 68.0983 
" clip-path="url(#p50f1d8a956)" style="fill: none; stroke: #d8dee6; stroke-opacity: 0.7; stroke-width: 0.55; stroke-linecap: square"/>
     </g>
     <g id="line2d_12">
      <defs>
       <path id="m767f82ed2f" d="M 0 0 
L -3.5 0 
" style="stroke: #000000; stroke-width: 0.8"/>
      </defs>
      <g>
       <use xlink:href="#m767f82ed2f" x="83.635" y="68.0983" style="stroke: #000000; stroke-width: 0.8"/>
      </g>
     </g>
     <g id="text_7">
      <!-- 附录 3 · 固定半径 -->
      <g transform="translate(7.2 71.695488) scale(0.09 -0.09)">
       <defs>
        <path id="MicrosoftYaHei-9644" d="M 2225 1622 
Q 2400 453 1613 297 
Q 1350 253 1006 291 
Q 956 547 869 775 
L 869 -841 
L 400 -841 
L 400 5022 
L 2231 5022 
L 2231 4584 
Q 2000 3803 1669 2866 
Q 2150 2178 2225 1622 
z
M 3475 3947 
L 5056 3947 
L 5056 5284 
L 5544 5284 
L 5544 3947 
L 6325 3947 
L 6325 3478 
L 5544 3478 
L 5544 122 
Q 5544 -709 4650 -709 
Q 4281 -709 3900 -697 
Q 3869 -466 3800 -159 
Q 4269 -216 4588 -216 
Q 5056 -216 5056 216 
L 5056 3478 
L 3475 3478 
L 3475 3947 
z
M 2044 2772 
Q 2725 3809 3150 5291 
L 3638 5184 
Q 3459 4606 3244 4088 
L 3244 -828 
L 2769 -828 
L 2769 3081 
Q 2550 2678 2306 2322 
Q 2194 2566 2044 2772 
z
M 1444 747 
Q 1869 828 1731 1641 
Q 1644 2147 1169 2766 
Q 1438 3553 1719 4584 
L 869 4584 
L 869 797 
Q 1200 716 1444 747 
z
M 3581 2747 
L 3975 2934 
Q 4350 2266 4656 1516 
L 4194 1309 
Q 3900 2072 3581 2747 
z
" transform="scale(0.015625)"/>
        <path id="MicrosoftYaHei-5f55" d="M 5450 2172 
L 5813 1759 
Q 5281 1409 4494 934 
Q 5225 366 6319 116 
Q 6125 -153 5975 -397 
Q 4275 122 3475 1366 
L 3475 9 
Q 3475 -747 2700 -747 
Q 2331 -747 1825 -734 
Q 1788 -503 1738 -197 
Q 2188 -247 2544 -253 
Q 2988 -253 2988 147 
L 2988 2384 
L 175 2384 
L 175 2803 
L 4838 2803 
L 4838 3472 
L 963 3472 
L 963 3872 
L 4838 3872 
L 4838 4534 
L 844 4534 
L 844 4953 
L 5306 4953 
L 5306 2803 
L 6275 2803 
L 6275 2384 
L 3475 2384 
L 3475 2241 
Q 3731 1678 4138 1253 
Q 4863 1722 5450 2172 
z
M 88 241 
Q 1313 622 2744 1147 
Q 2794 872 2838 672 
Q 1594 241 281 -234 
L 88 241 
z
M 956 2216 
Q 1556 1853 2175 1428 
L 1869 1016 
Q 1300 1447 669 1853 
L 956 2216 
z
" transform="scale(0.015625)"/>
        <path id="MicrosoftYaHei-33" d="M 447 809 
Q 944 425 1569 425 
Q 2069 425 2361 670 
Q 2653 916 2653 1328 
Q 2653 2247 1338 2247 
L 934 2247 
L 934 2753 
L 1319 2753 
Q 2484 2753 2484 3616 
Q 2484 4413 1594 4413 
Q 1084 4413 634 4069 
L 634 4647 
Q 1109 4922 1744 4922 
Q 2363 4922 2738 4598 
Q 3113 4275 3113 3759 
Q 3113 2809 2144 2538 
L 2144 2525 
Q 2669 2469 2973 2155 
Q 3278 1841 3278 1372 
Q 3278 719 2808 319 
Q 2338 -81 1556 -81 
Q 869 -81 447 175 
L 447 809 
z
" transform="scale(0.015625)"/>
        <path id="MicrosoftYaHei-b7" d="M 372 2113 
Q 372 2278 490 2395 
Q 609 2513 775 2513 
Q 941 2513 1061 2397 
Q 1181 2281 1181 2113 
Q 1181 1950 1064 1831 
Q 947 1713 772 1713 
Q 600 1713 486 1831 
Q 372 1950 372 2113 
z
" transform="scale(0.015625)"/>
        <path id="MicrosoftYaHei-56fa" d="M 469 4997 
L 5938 4997 
L 5938 -834 
L 5469 -834 
L 5469 -509 
L 944 -509 
L 944 -841 
L 469 -841 
L 469 4997 
z
M 5469 4541 
L 944 4541 
L 944 -53 
L 5469 -53 
L 5469 4541 
z
M 1869 2459 
L 2963 2459 
L 2963 3216 
L 1313 3216 
L 1313 3641 
L 2963 3641 
L 2963 4366 
L 3425 4366 
L 3425 3641 
L 5081 3641 
L 5081 3216 
L 3425 3216 
L 3425 2459 
L 4531 2459 
L 4531 434 
L 4081 434 
L 4081 691 
L 2319 691 
L 2319 434 
L 1869 434 
L 1869 2459 
z
M 4081 2047 
L 2319 2047 
L 2319 1103 
L 4081 1103 
L 4081 2047 
z
" transform="scale(0.015625)"/>
        <path id="MicrosoftYaHei-5b9a" d="M 81 -384 
Q 1119 509 1281 2241 
L 1806 2159 
Q 1731 1581 1578 1081 
Q 2063 50 3081 -103 
L 3081 2647 
L 225 2647 
L 225 3116 
L 6163 3116 
L 6163 2647 
L 3600 2647 
L 3600 1634 
L 5775 1634 
L 5775 1172 
L 3600 1172 
L 3600 -138 
Q 4844 -169 6306 -116 
Q 6200 -359 6125 -634 
Q 4594 -653 3450 -616 
Q 2041 -616 1378 528 
Q 1022 -300 413 -872 
Q 269 -628 81 -384 
z
M 450 4566 
L 3116 4566 
Q 2931 4834 2725 5091 
L 3200 5347 
Q 3444 5066 3731 4716 
L 3450 4566 
L 5981 4566 
L 5981 3378 
L 5488 3378 
L 5488 4097 
L 944 4097 
L 944 3384 
L 450 3384 
L 450 4566 
z
" transform="scale(0.015625)"/>
        <path id="MicrosoftYaHei-534a" d="M 125 1484 
L 2931 1484 
L 2931 2572 
L 381 2572 
L 381 3047 
L 2931 3047 
L 2931 5316 
L 3463 5316 
L 3463 3047 
L 6025 3047 
L 6025 2572 
L 3463 2572 
L 3463 1484 
L 6275 1484 
L 6275 1009 
L 3463 1009 
L 3463 -822 
L 2931 -822 
L 2931 1009 
L 125 1009 
L 125 1484 
z
M 4200 3709 
Q 4750 4222 5363 4959 
L 5800 4609 
Q 5194 3928 4575 3359 
L 4200 3709 
z
M 600 4641 
L 969 4947 
Q 1550 4397 2156 3728 
L 1725 3359 
Q 1081 4159 600 4641 
z
" transform="scale(0.015625)"/>
        <path id="MicrosoftYaHei-5f84" d="M 2388 4466 
L 2388 4891 
L 5738 4891 
L 5738 4459 
Q 5216 3866 4619 3391 
Q 5559 2888 6338 2428 
L 6038 1972 
Q 5256 2494 4216 3091 
Q 3253 2422 2106 2041 
Q 2000 2247 1850 2459 
Q 3894 3153 5025 4466 
L 2388 4466 
z
M 1931 -66 
L 3881 -66 
L 3881 1403 
L 2288 1403 
L 2288 1828 
L 5950 1828 
L 5950 1403 
L 4344 1403 
L 4344 -66 
L 6300 -66 
L 6300 -491 
L 1931 -491 
L 1931 -66 
z
M 38 1572 
Q 975 2353 1750 3809 
L 2175 3541 
Q 1844 2953 1475 2444 
L 1475 -816 
L 994 -816 
L 994 1831 
Q 638 1419 250 1066 
Q 156 1328 38 1572 
z
M 106 3616 
Q 1038 4359 1638 5391 
L 2063 5116 
Q 1356 3997 344 3134 
Q 238 3359 106 3616 
z
" transform="scale(0.015625)"/>
       </defs>
       <use xlink:href="#MicrosoftYaHei-9644"/>
       <use xlink:href="#MicrosoftYaHei-5f55" x="100"/>
       <use xlink:href="#MicrosoftYaHei-20" x="200"/>
       <use xlink:href="#MicrosoftYaHei-33" x="229.589844"/>
       <use xlink:href="#MicrosoftYaHei-20" x="288.232422"/>
       <use xlink:href="#MicrosoftYaHei-b7" x="317.822266"/>
       <use xlink:href="#MicrosoftYaHei-20" x="341.894531"/>
       <use xlink:href="#MicrosoftYaHei-56fa" x="371.484375"/>
       <use xlink:href="#MicrosoftYaHei-5b9a" x="471.484375"/>
       <use xlink:href="#MicrosoftYaHei-534a" x="571.484375"/>
       <use xlink:href="#MicrosoftYaHei-5f84" x="671.484375"/>
      </g>
     </g>
    </g>
    <g id="ytick_2">
     <g id="line2d_13">
      <path d="M 83.635 139.755273 
L 420.08526 139.755273 
" clip-path="url(#p50f1d8a956)" style="fill: none; stroke: #d8dee6; stroke-opacity: 0.7; stroke-width: 0.55; stroke-linecap: square"/>
     </g>
     <g id="line2d_14">
      <g>
       <use xlink:href="#m767f82ed2f" x="83.635" y="139.755273" style="stroke: #000000; stroke-width: 0.8"/>
      </g>
     </g>
     <g id="text_8">
      <!-- 附录 3 · 实测收缩 -->
      <g transform="translate(7.2 143.352461) scale(0.09 -0.09)">
       <defs>
        <path id="MicrosoftYaHei-5b9e" d="M 113 -397 
Q 2419 34 3081 972 
L 213 972 
L 213 1434 
L 3313 1434 
Q 3525 2084 3506 3703 
L 4031 3703 
Q 4031 2097 3856 1434 
L 6225 1434 
L 6225 972 
L 3681 972 
Q 3631 872 3563 759 
Q 4900 197 6181 -403 
L 5906 -878 
Q 4569 -197 3263 391 
Q 2413 -441 413 -891 
Q 269 -616 113 -397 
z
M 331 4422 
L 3194 4422 
Q 3038 4703 2775 5078 
L 3231 5334 
Q 3438 5059 3731 4609 
L 3388 4422 
L 6063 4422 
L 6063 3303 
L 5563 3303 
L 5563 3959 
L 831 3959 
L 831 3303 
L 331 3303 
L 331 4422 
z
M 1100 2734 
Q 1819 2409 2450 2053 
L 2181 1622 
Q 1556 2003 863 2334 
L 1100 2734 
z
M 1663 3691 
Q 2388 3341 2981 2984 
L 2700 2559 
Q 2119 2934 1419 3322 
L 1663 3691 
z
" transform="scale(0.015625)"/>
        <path id="MicrosoftYaHei-6d4b" d="M 875 1753 
Q 1175 1597 1369 1522 
Q 950 -41 763 -784 
L 250 -547 
Q 619 497 875 1753 
z
M 638 5166 
Q 1019 4847 1588 4303 
Q 1381 4103 1213 3928 
Q 756 4434 313 4853 
L 638 5166 
z
M 356 3559 
Q 881 3134 1350 2716 
Q 1188 2547 988 2322 
Q 425 2878 50 3216 
L 356 3559 
z
M 5575 5284 
L 6031 5284 
L 6031 -34 
Q 6031 -753 5338 -753 
Q 5038 -753 4625 -741 
Q 4600 -509 4538 -228 
Q 4938 -272 5219 -272 
Q 5575 -272 5575 84 
L 5575 5284 
z
M 5038 634 
L 4600 634 
L 4600 4778 
L 5038 4778 
L 5038 634 
z
M 1706 4941 
L 4063 4941 
L 4063 991 
L 3613 991 
L 3613 4503 
L 2156 4503 
L 2156 991 
L 1706 991 
L 1706 4941 
z
M 2681 3966 
L 3138 3966 
L 3138 2416 
Q 3138 1466 2963 891 
Q 3775 266 4375 -234 
L 4038 -616 
Q 3538 -141 2800 472 
Q 2413 -297 1406 -884 
Q 1269 -684 1100 -484 
Q 2031 53 2375 709 
Q 2681 1278 2681 2403 
L 2681 3966 
z
" transform="scale(0.015625)"/>
        <path id="MicrosoftYaHei-6536" d="M 2244 2659 
Q 3044 4047 3400 5341 
L 3906 5197 
Q 3706 4619 3488 4091 
L 6213 4091 
L 6213 3628 
L 5478 3628 
Q 5384 1819 4550 681 
Q 5184 119 6350 -297 
Q 6156 -541 5994 -797 
Q 4881 -322 4219 300 
Q 3616 -294 2550 -853 
Q 2419 -647 2231 -434 
Q 3297 100 3878 672 
Q 3156 1575 2944 2916 
Q 2769 2575 2581 2259 
Q 2463 2441 2244 2659 
z
M 1681 5291 
L 2156 5291 
L 2156 -816 
L 1681 -816 
L 1681 1113 
Q 1300 900 906 641 
Q 744 522 588 359 
L 231 778 
Q 425 984 425 1316 
L 425 4416 
L 900 4416 
L 900 1216 
Q 1272 1413 1681 1634 
L 1681 5291 
z
M 4984 3628 
L 3322 3628 
Q 3413 2103 4203 1059 
Q 4916 2063 4984 3628 
z
" transform="scale(0.015625)"/>
        <path id="MicrosoftYaHei-7f29" d="M 3388 3453 
L 6263 3453 
L 6263 3041 
L 4956 3041 
Q 4875 2713 4797 2422 
L 5888 2422 
L 5888 -797 
L 5438 -797 
L 5438 -491 
L 3994 -491 
L 3994 -797 
L 3544 -797 
L 3544 2422 
L 4325 2422 
Q 4397 2719 4456 3041 
L 3388 3041 
L 3388 3453 
z
M 831 1641 
Q 1375 1709 1788 1791 
Q 1763 1566 1750 1366 
Q 863 1222 288 1103 
L 213 1553 
Q 566 1916 1072 2828 
Q 541 2791 200 2759 
L 88 3141 
Q 625 3947 1144 5291 
L 1613 5128 
Q 1088 4009 600 3191 
Q 819 3191 1272 3200 
Q 1444 3525 1631 3909 
L 2069 3709 
Q 1188 2178 831 1641 
z
M 2194 4503 
L 4078 4503 
Q 3919 4816 3688 5159 
L 4100 5359 
Q 4406 4966 4569 4666 
L 4247 4503 
L 6138 4503 
L 6138 3591 
L 5663 3591 
L 5663 4078 
L 2669 4078 
L 2669 3503 
L 2194 3503 
L 2194 4503 
z
M 1863 1753 
Q 2481 2641 2931 3797 
L 3369 3653 
Q 3144 3113 2900 2628 
L 2900 -809 
L 2463 -809 
L 2463 1838 
Q 2288 1547 2106 1284 
Q 2013 1522 1863 1753 
z
M 3994 -84 
L 5438 -84 
L 5438 766 
L 3994 766 
L 3994 -84 
z
M 5438 2016 
L 3994 2016 
L 3994 1166 
L 5438 1166 
L 5438 2016 
z
M 106 191 
Q 1181 366 2056 553 
Q 2019 284 2013 159 
Q 1463 28 219 -284 
L 106 191 
z
" transform="scale(0.015625)"/>
       </defs>
       <use xlink:href="#MicrosoftYaHei-9644"/>
       <use xlink:href="#MicrosoftYaHei-5f55" x="100"/>
       <use xlink:href="#MicrosoftYaHei-20" x="200"/>
       <use xlink:href="#MicrosoftYaHei-33" x="229.589844"/>
       <use xlink:href="#MicrosoftYaHei-20" x="288.232422"/>
       <use xlink:href="#MicrosoftYaHei-b7" x="317.822266"/>
       <use xlink:href="#MicrosoftYaHei-20" x="341.894531"/>
       <use xlink:href="#MicrosoftYaHei-5b9e" x="371.484375"/>
       <use xlink:href="#MicrosoftYaHei-6d4b" x="471.484375"/>
       <use xlink:href="#MicrosoftYaHei-6536" x="571.484375"/>
       <use xlink:href="#MicrosoftYaHei-7f29" x="671.484375"/>
      </g>
     </g>
    </g>
    <g id="ytick_3">
     <g id="line2d_15">
      <path d="M 83.635 211.412247 
L 420.08526 211.412247 
" clip-path="url(#p50f1d8a956)" style="fill: none; stroke: #d8dee6; stroke-opacity: 0.7; stroke-width: 0.55; stroke-linecap: square"/>
     </g>
     <g id="line2d_16">
      <g>
       <use xlink:href="#m767f82ed2f" x="83.635" y="211.412247" style="stroke: #000000; stroke-width: 0.8"/>
      </g>
     </g>
     <g id="text_9">
      <!-- 附录 4 · 固定半径 -->
      <g transform="translate(7.2 215.009434) scale(0.09 -0.09)">
       <use xlink:href="#MicrosoftYaHei-9644"/>
       <use xlink:href="#MicrosoftYaHei-5f55" x="100"/>
       <use xlink:href="#MicrosoftYaHei-20" x="200"/>
       <use xlink:href="#MicrosoftYaHei-34" x="229.589844"/>
       <use xlink:href="#MicrosoftYaHei-20" x="288.232422"/>
       <use xlink:href="#MicrosoftYaHei-b7" x="317.822266"/>
       <use xlink:href="#MicrosoftYaHei-20" x="341.894531"/>
       <use xlink:href="#MicrosoftYaHei-56fa" x="371.484375"/>
       <use xlink:href="#MicrosoftYaHei-5b9a" x="471.484375"/>
       <use xlink:href="#MicrosoftYaHei-534a" x="571.484375"/>
       <use xlink:href="#MicrosoftYaHei-5f84" x="671.484375"/>
      </g>
     </g>
    </g>
    <g id="ytick_4">
     <g id="line2d_17">
      <path d="M 83.635 283.06922 
L 420.08526 283.06922 
" clip-path="url(#p50f1d8a956)" style="fill: none; stroke: #d8dee6; stroke-opacity: 0.7; stroke-width: 0.55; stroke-linecap: square"/>
     </g>
     <g id="line2d_18">
      <g>
       <use xlink:href="#m767f82ed2f" x="83.635" y="283.06922" style="stroke: #000000; stroke-width: 0.8"/>
      </g>
     </g>
     <g id="text_10">
      <!-- 附录 4 · 实测收缩 -->
      <g transform="translate(7.2 286.666407) scale(0.09 -0.09)">
       <use xlink:href="#MicrosoftYaHei-9644"/>
       <use xlink:href="#MicrosoftYaHei-5f55" x="100"/>
       <use xlink:href="#MicrosoftYaHei-20" x="200"/>
       <use xlink:href="#MicrosoftYaHei-34" x="229.589844"/>
       <use xlink:href="#MicrosoftYaHei-20" x="288.232422"/>
       <use xlink:href="#MicrosoftYaHei-b7" x="317.822266"/>
       <use xlink:href="#MicrosoftYaHei-20" x="341.894531"/>
       <use xlink:href="#MicrosoftYaHei-5b9e" x="371.484375"/>
       <use xlink:href="#MicrosoftYaHei-6d4b" x="471.484375"/>
       <use xlink:href="#MicrosoftYaHei-6536" x="571.484375"/>
       <use xlink:href="#MicrosoftYaHei-7f29" x="671.484375"/>
      </g>
     </g>
    </g>
   </g>
   <g id="patch_3">
    <path d="M 83.635 48.034347 
L 292.707324 48.034347 
L 292.707324 88.162253 
L 83.635 88.162253 
z
" clip-path="url(#p50f1d8a956)" style="fill: #0072b2; opacity: 0.85"/>
   </g>
   <g id="patch_4">
    <path d="M 83.635 119.691321 
L 175.559932 119.691321 
L 175.559932 159.819226 
L 83.635 159.819226 
z
" clip-path="url(#p50f1d8a956)" style="fill: #009e73; opacity: 0.85"/>
   </g>
   <g id="patch_5">
    <path d="M 83.635 191.348294 
L 346.943899 191.348294 
L 346.943899 231.476199 
L 83.635 231.476199 
z
" clip-path="url(#p50f1d8a956)" style="fill: url(#hcf1c25dc1f); opacity: 0.85"/>
   </g>
   <g id="patch_6">
    <path d="M 83.635 263.005267 
L 269.502564 263.005267 
L 269.502564 303.133172 
L 83.635 303.133172 
z
" clip-path="url(#p50f1d8a956)" style="fill: #d55e00; opacity: 0.85"/>
   </g>
   <g id="patch_7">
    <path d="M 83.635 315.888114 
L 83.635 35.279406 
" style="fill: none; stroke: #3d4652; stroke-width: 0.8; stroke-linejoin: miter; stroke-linecap: square"/>
   </g>
   <g id="patch_8">
    <path d="M 83.635 315.888114 
L 420.08526 315.888114 
" style="fill: none; stroke: #3d4652; stroke-width: 0.8; stroke-linejoin: miter; stroke-linecap: square"/>
   </g>
   <g id="text_11">
    <!-- 57.1694 h -->
    <g style="fill: #20242a" transform="translate(295.632978 70.576816) scale(0.09 -0.09)">
     <defs>
      <path id="MicrosoftYaHei-35" d="M 3294 1494 
Q 3294 784 2823 350 
Q 2353 -84 1559 -84 
Q 878 -84 544 119 
L 544 744 
Q 1034 425 1544 425 
Q 2050 425 2361 704 
Q 2672 984 2672 1447 
Q 2672 1909 2348 2167 
Q 2025 2425 1434 2425 
Q 978 2425 613 2384 
L 791 4841 
L 3053 4841 
L 3053 4303 
L 1306 4303 
L 1206 2931 
L 1647 2950 
Q 2416 2950 2855 2567 
Q 3294 2184 3294 1494 
z
" transform="scale(0.015625)"/>
      <path id="MicrosoftYaHei-37" d="M 3422 4463 
Q 2659 3131 2223 1998 
Q 1788 866 1684 0 
L 1047 0 
Q 1163 853 1594 1947 
Q 2025 3041 2747 4300 
L 347 4300 
L 347 4841 
L 3422 4841 
L 3422 4463 
z
" transform="scale(0.015625)"/>
      <path id="MicrosoftYaHei-2e" d="M 372 322 
Q 372 491 487 606 
Q 603 722 775 722 
Q 950 722 1065 605 
Q 1181 488 1181 322 
Q 1181 159 1065 42 
Q 950 -75 772 -75 
Q 600 -75 486 42 
Q 372 159 372 322 
z
" transform="scale(0.015625)"/>
      <path id="MicrosoftYaHei-31" d="M 1781 0 
L 1781 4141 
Q 1638 3997 1295 3819 
Q 953 3641 663 3569 
L 663 4169 
Q 1047 4275 1484 4508 
Q 1922 4741 2156 4947 
L 2388 4947 
L 2388 0 
L 1781 0 
z
" transform="scale(0.015625)"/>
      <path id="MicrosoftYaHei-39" d="M 578 656 
Q 978 425 1441 425 
Q 2091 425 2448 937 
Q 2806 1450 2806 2394 
Q 2800 2388 2794 2394 
Q 2475 1788 1722 1788 
Q 1113 1788 713 2206 
Q 313 2625 313 3294 
Q 313 4006 750 4464 
Q 1188 4922 1884 4922 
Q 2606 4922 3012 4355 
Q 3419 3788 3419 2703 
Q 3419 1363 2894 641 
Q 2369 -81 1441 -81 
Q 931 -81 578 84 
L 578 656 
z
M 931 3372 
Q 931 2884 1181 2598 
Q 1431 2313 1872 2313 
Q 2253 2313 2512 2573 
Q 2772 2834 2772 3206 
Q 2772 3728 2514 4070 
Q 2256 4413 1834 4413 
Q 1444 4413 1187 4116 
Q 931 3819 931 3372 
z
" transform="scale(0.015625)"/>
     </defs>
     <use xlink:href="#MicrosoftYaHei-35"/>
     <use xlink:href="#MicrosoftYaHei-37" x="58.642578"/>
     <use xlink:href="#MicrosoftYaHei-2e" x="117.285156"/>
     <use xlink:href="#MicrosoftYaHei-31" x="141.357422"/>
     <use xlink:href="#MicrosoftYaHei-36" x="200"/>
     <use xlink:href="#MicrosoftYaHei-39" x="258.642578"/>
     <use xlink:href="#MicrosoftYaHei-34" x="317.285156"/>
     <use xlink:href="#MicrosoftYaHei-20" x="375.927734"/>
     <use xlink:href="#MicrosoftYaHei-68" x="405.517578"/>
    </g>
   </g>
   <g id="text_12">
    <!-- 25.1362 h -->
    <g style="fill: #20242a" transform="translate(178.485586 142.233789) scale(0.09 -0.09)">
     <use xlink:href="#MicrosoftYaHei-32"/>
     <use xlink:href="#MicrosoftYaHei-35" x="58.642578"/>
     <use xlink:href="#MicrosoftYaHei-2e" x="117.285156"/>
     <use xlink:href="#MicrosoftYaHei-31" x="141.357422"/>
     <use xlink:href="#MicrosoftYaHei-33" x="200"/>
     <use xlink:href="#MicrosoftYaHei-36" x="258.642578"/>
     <use xlink:href="#MicrosoftYaHei-32" x="317.285156"/>
     <use xlink:href="#MicrosoftYaHei-20" x="375.927734"/>
     <use xlink:href="#MicrosoftYaHei-68" x="405.517578"/>
    </g>
   </g>
   <g id="text_13">
    <!-- 72 h 内未达标 -->
    <g style="fill: #20242a" transform="translate(349.869554 213.890762) scale(0.09 -0.09)">
     <defs>
      <path id="MicrosoftYaHei-5185" d="M 638 4184 
L 2944 4184 
L 2944 5259 
L 3456 5259 
L 3456 4184 
L 5750 4184 
L 5750 59 
Q 5750 -734 4969 -728 
Q 4556 -728 3956 -716 
Q 3938 -503 3863 -172 
Q 4456 -222 4850 -228 
Q 5244 -241 5244 166 
L 5244 3709 
L 3444 3709 
Q 3419 3141 3306 2697 
Q 4413 1809 5094 1134 
L 4713 728 
Q 4044 1459 3156 2247 
Q 2731 1328 1538 647 
Q 1275 1009 1188 1097 
Q 2206 1634 2581 2291 
Q 2881 2772 2931 3709 
L 1144 3709 
L 1144 -784 
L 638 -784 
L 638 4184 
z
" transform="scale(0.015625)"/>
      <path id="MicrosoftYaHei-672a" d="M 6325 128 
Q 6150 -84 5975 -334 
Q 4328 488 3444 1791 
L 3444 -822 
L 2956 -822 
L 2956 1784 
Q 2006 525 419 -409 
Q 300 -241 81 9 
Q 1778 900 2763 2153 
L 181 2153 
L 181 2616 
L 2956 2616 
L 2956 3791 
L 550 3791 
L 550 4253 
L 2956 4253 
L 2956 5322 
L 3444 5322 
L 3444 4253 
L 5875 4253 
L 5875 3791 
L 3444 3791 
L 3444 2616 
L 6219 2616 
L 6219 2153 
L 3619 2153 
Q 4625 809 6325 128 
z
" transform="scale(0.015625)"/>
      <path id="MicrosoftYaHei-8fbe" d="M 2719 -241 
Q 4450 -259 6319 -216 
Q 6213 -466 6113 -697 
Q 4400 -722 2638 -691 
Q 1594 -678 1088 22 
Q 906 -122 356 -778 
L 88 -247 
Q 475 103 863 434 
L 863 2616 
L 150 2616 
L 150 3072 
L 1350 3072 
L 1350 341 
Q 1806 -216 2719 -241 
z
M 1875 3791 
L 3600 3791 
L 3600 5266 
L 4100 5266 
L 4100 3791 
L 6050 3791 
L 6050 3334 
L 4088 3334 
Q 4063 2878 3963 2472 
Q 5044 1603 6006 616 
L 5631 197 
Q 4788 1153 3825 2022 
Q 3363 778 2081 72 
Q 1913 303 1731 484 
Q 3450 1403 3588 3334 
L 1875 3334 
L 1875 3791 
z
M 731 5241 
Q 1281 4584 1681 4034 
L 1244 3722 
Q 831 4347 344 4959 
L 731 5241 
z
" transform="scale(0.015625)"/>
      <path id="MicrosoftYaHei-6807" d="M 75 1409 
Q 769 2478 1025 3647 
L 119 3647 
L 119 4072 
L 1069 4072 
L 1069 5297 
L 1506 5297 
L 1506 4072 
L 2356 4072 
L 2356 3647 
L 1506 3647 
L 1506 2541 
L 1775 2822 
Q 2175 2478 2481 2159 
L 2150 1816 
Q 1850 2156 1506 2503 
L 1506 -797 
L 1069 -797 
L 1069 2588 
Q 738 1513 281 859 
Q 194 1128 75 1409 
z
M 2350 3097 
L 6250 3097 
L 6250 2659 
L 4525 2659 
L 4525 47 
Q 4525 -734 3806 -734 
Q 3469 -741 2975 -728 
Q 2944 -503 2888 -209 
Q 3319 -259 3675 -259 
Q 4050 -259 4050 203 
L 4050 2659 
L 2350 2659 
L 2350 3097 
z
M 2638 4928 
L 5963 4928 
L 5963 4491 
L 2638 4491 
L 2638 4928 
z
M 4938 1853 
L 5381 2066 
Q 5975 928 6369 72 
L 5869 -147 
Q 5463 822 4938 1853 
z
M 2931 2066 
L 3400 1878 
Q 2888 734 2381 -153 
Q 2188 -41 1925 66 
Q 2425 872 2931 2066 
z
" transform="scale(0.015625)"/>
     </defs>
     <use xlink:href="#MicrosoftYaHei-37"/>
     <use xlink:href="#MicrosoftYaHei-32" x="58.642578"/>
     <use xlink:href="#MicrosoftYaHei-20" x="117.285156"/>
     <use xlink:href="#MicrosoftYaHei-68" x="146.875"/>
     <use xlink:href="#MicrosoftYaHei-20" x="208.447266"/>
     <use xlink:href="#MicrosoftYaHei-5185" x="238.037109"/>
     <use xlink:href="#MicrosoftYaHei-672a" x="338.037109"/>
     <use xlink:href="#MicrosoftYaHei-8fbe" x="438.037109"/>
     <use xlink:href="#MicrosoftYaHei-6807" x="538.037109"/>
    </g>
   </g>
   <g id="text_14">
    <!-- 50.8242 h -->
    <g style="fill: #20242a" transform="translate(272.428219 285.547736) scale(0.09 -0.09)">
     <use xlink:href="#MicrosoftYaHei-35"/>
     <use xlink:href="#MicrosoftYaHei-30" x="58.642578"/>
     <use xlink:href="#MicrosoftYaHei-2e" x="117.285156"/>
     <use xlink:href="#MicrosoftYaHei-38" x="141.357422"/>
     <use xlink:href="#MicrosoftYaHei-32" x="200"/>
     <use xlink:href="#MicrosoftYaHei-34" x="258.642578"/>
     <use xlink:href="#MicrosoftYaHei-32" x="317.285156"/>
     <use xlink:href="#MicrosoftYaHei-20" x="375.927734"/>
     <use xlink:href="#MicrosoftYaHei-68" x="405.517578"/>
    </g>
   </g>
   <g id="text_15">
    <!-- 相同末值环境下的物性与几何 -->
    <g style="fill: #20242a" transform="translate(180.36013 29.279406) scale(0.11 -0.11)">
     <defs>
      <path id="MicrosoftYaHei-76f8" d="M 2738 4891 
L 6025 4891 
L 6025 -822 
L 5550 -822 
L 5550 -397 
L 3213 -397 
L 3213 -822 
L 2738 -822 
L 2738 4891 
z
M 94 1409 
Q 784 2372 1128 3622 
L 169 3622 
L 169 4041 
L 1138 4041 
L 1138 5284 
L 1594 5284 
L 1594 4041 
L 2506 4041 
L 2506 3622 
L 1594 3622 
L 1594 2534 
L 1844 2791 
Q 2275 2372 2638 1984 
L 2300 1653 
Q 1956 2059 1594 2444 
L 1594 -809 
L 1138 -809 
L 1138 2444 
Q 800 1516 319 866 
Q 225 1134 94 1409 
z
M 3213 28 
L 5550 28 
L 5550 1241 
L 3213 1241 
L 3213 28 
z
M 5550 4466 
L 3213 4466 
L 3213 3266 
L 5550 3266 
L 5550 4466 
z
M 3213 1653 
L 5550 1653 
L 5550 2853 
L 3213 2853 
L 3213 1653 
z
" transform="scale(0.015625)"/>
      <path id="MicrosoftYaHei-540c" d="M 1013 -772 
L 531 -772 
L 531 4959 
L 5856 4959 
L 5856 -47 
Q 5856 -741 5125 -741 
Q 4669 -741 4088 -716 
Q 4056 -497 4000 -216 
Q 4619 -272 5025 -272 
Q 5375 -272 5375 78 
L 5375 4497 
L 1013 4497 
L 1013 -772 
z
M 1875 2566 
L 4506 2566 
L 4506 597 
L 2338 597 
L 2338 272 
L 1875 272 
L 1875 2566 
z
M 4044 2116 
L 2338 2116 
L 2338 1047 
L 4044 1047 
L 4044 2116 
z
M 1363 3734 
L 5025 3734 
L 5025 3284 
L 1363 3284 
L 1363 3734 
z
" transform="scale(0.015625)"/>
      <path id="MicrosoftYaHei-672b" d="M 6306 9 
Q 6119 -222 5963 -441 
Q 4328 450 3444 1844 
L 3444 -841 
L 2956 -841 
L 2956 1853 
Q 2072 488 419 -441 
Q 275 -203 88 -16 
Q 1769 866 2713 2172 
L 631 2172 
L 631 2634 
L 2956 2634 
L 2956 3784 
L 300 3784 
L 300 4247 
L 2956 4247 
L 2956 5341 
L 3444 5341 
L 3444 4247 
L 6094 4247 
L 6094 3784 
L 3444 3784 
L 3444 2634 
L 5763 2634 
L 5763 2172 
L 3659 2172 
Q 4516 894 6306 9 
z
" transform="scale(0.015625)"/>
      <path id="MicrosoftYaHei-503c" d="M 1619 -216 
L 2250 -216 
L 2250 3653 
L 3725 3653 
L 3725 4222 
L 1913 4222 
L 1913 4647 
L 3725 4647 
L 3725 5309 
L 4200 5309 
L 4200 4647 
L 6169 4647 
L 6169 4222 
L 4200 4222 
L 4200 3653 
L 5713 3653 
L 5713 -216 
L 6306 -216 
L 6306 -641 
L 1619 -641 
L 1619 -216 
z
M 69 2247 
Q 906 3497 1369 5278 
L 1831 5141 
Q 1581 4334 1288 3628 
L 1288 -816 
L 831 -816 
L 831 2666 
Q 563 2166 263 1734 
Q 175 1997 69 2247 
z
M 2713 -216 
L 5250 -216 
L 5250 353 
L 2713 353 
L 2713 -216 
z
M 5250 3241 
L 2713 3241 
L 2713 2678 
L 5250 2678 
L 5250 3241 
z
M 2713 1716 
L 5250 1716 
L 5250 2278 
L 2713 2278 
L 2713 1716 
z
M 2713 753 
L 5250 753 
L 5250 1316 
L 2713 1316 
L 2713 753 
z
" transform="scale(0.015625)"/>
      <path id="MicrosoftYaHei-73af" d="M 2606 4447 
L 2606 4916 
L 6050 4916 
L 6050 4447 
L 4441 4447 
Q 4228 3716 3959 3053 
L 4369 3053 
L 4369 -816 
L 3875 -816 
L 3875 2850 
Q 3247 1381 2338 259 
Q 2175 422 1944 566 
Q 3284 2200 3925 4447 
L 2606 4447 
z
M 94 922 
Q 544 1031 1050 1166 
L 1050 2641 
L 213 2641 
L 213 3091 
L 1050 3091 
L 1050 4241 
L 169 4241 
L 169 4691 
L 2375 4691 
L 2375 4241 
L 1544 4241 
L 1544 3091 
L 2369 3091 
L 2369 2641 
L 1544 2641 
L 1544 1297 
Q 1922 1400 2331 1516 
Q 2313 1284 2325 1084 
Q 1081 691 175 391 
L 94 922 
z
M 4856 2909 
Q 5813 1628 6313 834 
L 5888 509 
Q 5225 1622 4469 2653 
L 4856 2909 
z
" transform="scale(0.015625)"/>
      <path id="MicrosoftYaHei-5883" d="M 2338 2722 
L 5756 2722 
L 5756 591 
L 5325 591 
L 5325 734 
L 4738 734 
L 4738 59 
Q 4738 -284 5063 -284 
L 5456 -284 
Q 5763 -284 5806 28 
Q 5844 272 5856 603 
Q 6094 497 6319 416 
Q 6275 28 6225 -172 
Q 6119 -703 5519 -703 
L 4950 -703 
Q 4294 -703 4294 -78 
L 4294 734 
L 3709 734 
Q 3628 50 3175 -284 
Q 2794 -591 1838 -866 
Q 1706 -653 1550 -434 
Q 2525 -228 2888 66 
Q 3188 300 3250 734 
L 2769 734 
L 2769 591 
L 2338 591 
L 2338 2722 
z
M 106 678 
Q 441 756 881 869 
L 881 3259 
L 169 3259 
L 169 3703 
L 881 3703 
L 881 5266 
L 1338 5266 
L 1338 3703 
L 1981 3703 
L 1981 3259 
L 1338 3259 
L 1338 991 
Q 1688 1084 2094 1197 
Q 2100 928 2113 728 
Q 1150 466 200 159 
L 106 678 
z
M 2113 3522 
L 3238 3522 
Q 3066 3794 2856 4066 
L 3225 4297 
Q 3481 3984 3700 3678 
L 3466 3522 
L 4409 3522 
Q 4663 3909 4881 4303 
L 5331 4053 
Q 5119 3781 4909 3522 
L 6200 3522 
L 6200 3147 
L 2113 3147 
L 2113 3522 
z
M 2263 4703 
L 3913 4703 
Q 3800 4928 3663 5159 
L 4100 5341 
Q 4291 5006 4425 4703 
L 5988 4703 
L 5988 4328 
L 2263 4328 
L 2263 4703 
z
M 2769 1097 
L 5325 1097 
L 5325 1559 
L 2769 1559 
L 2769 1097 
z
M 5325 2359 
L 2769 2359 
L 2769 1909 
L 5325 1909 
L 5325 2359 
z
" transform="scale(0.015625)"/>
      <path id="MicrosoftYaHei-4e0b" d="M 163 4803 
L 6238 4803 
L 6238 4291 
L 3200 4291 
L 3200 2928 
L 3488 3328 
Q 4919 2484 5888 1809 
L 5519 1303 
Q 4550 2047 3200 2872 
L 3200 -797 
L 2631 -797 
L 2631 4291 
L 163 4291 
L 163 4803 
z
" transform="scale(0.015625)"/>
      <path id="MicrosoftYaHei-7684" d="M 356 4284 
L 988 4284 
Q 1219 4853 1369 5322 
L 1894 5172 
Q 1697 4694 1513 4284 
L 2763 4284 
L 2763 -691 
L 2263 -691 
L 2263 -203 
L 856 -203 
L 856 -734 
L 356 -734 
L 356 4284 
z
M 2856 3003 
Q 3444 3934 3850 5322 
L 4375 5191 
Q 4216 4719 4050 4303 
L 6063 4303 
Q 5988 1091 5938 259 
Q 5894 -722 4906 -722 
Q 4338 -722 3750 -684 
Q 3713 -372 3650 -128 
L 3669 -128 
Q 4294 -216 4813 -216 
Q 5381 -216 5425 384 
Q 5494 1316 5525 3834 
L 3850 3834 
Q 3578 3231 3288 2772 
Q 3119 2891 2856 3003 
z
M 856 266 
L 2263 266 
L 2263 1847 
L 856 1847 
L 856 266 
z
M 2263 3816 
L 856 3816 
L 856 2297 
L 2263 2297 
L 2263 3816 
z
M 3406 2578 
L 3788 2859 
Q 4481 2041 4894 1441 
L 4431 1116 
Q 3988 1841 3406 2578 
z
" transform="scale(0.015625)"/>
      <path id="MicrosoftYaHei-7269" d="M 2131 2866 
Q 2750 3816 3263 5341 
L 3719 5203 
Q 3541 4706 3363 4278 
L 6075 4278 
Q 5950 1759 5869 422 
Q 5800 -622 4869 -622 
Q 4519 -622 4044 -603 
Q 4013 -372 3956 -72 
Q 4500 -134 4819 -134 
Q 5325 -134 5375 441 
Q 5488 1759 5575 3834 
L 5097 3834 
Q 4934 2241 4569 1322 
Q 4069 134 2869 -716 
Q 2731 -522 2550 -334 
Q 3719 491 4169 1559 
Q 4531 2438 4634 3834 
L 4078 3834 
Q 3909 2641 3575 1916 
Q 3163 1097 2444 447 
Q 2288 647 2119 816 
Q 2831 1434 3175 2116 
Q 3509 2809 3619 3834 
L 3169 3834 
Q 2850 3125 2531 2628 
Q 2375 2734 2131 2866 
z
M 94 1584 
Q 669 1775 1288 1991 
L 1288 3466 
L 722 3466 
Q 597 2872 419 2378 
Q 219 2522 13 2653 
Q 363 3509 456 4709 
L 906 4634 
Q 863 4244 800 3884 
L 1288 3884 
L 1288 5291 
L 1756 5291 
L 1756 3884 
L 2375 3884 
L 2375 3466 
L 1756 3466 
L 1756 2156 
Q 2063 2269 2381 2384 
Q 2413 2109 2450 1909 
Q 2141 1797 1756 1653 
L 1756 -834 
L 1288 -834 
L 1288 1475 
Q 788 1288 188 1053 
L 94 1584 
z
" transform="scale(0.015625)"/>
      <path id="MicrosoftYaHei-6027" d="M 1963 -153 
L 3988 -153 
L 3988 1522 
L 2375 1522 
L 2375 1959 
L 3988 1959 
L 3988 3472 
L 2975 3472 
Q 2744 2878 2438 2291 
Q 2169 2509 2019 2578 
Q 2644 3709 2894 4891 
L 3388 4759 
Q 3281 4328 3138 3909 
L 3988 3909 
L 3988 5284 
L 4481 5284 
L 4481 3909 
L 6125 3909 
L 6125 3472 
L 4481 3472 
L 4481 1959 
L 6000 1959 
L 6000 1522 
L 4481 1522 
L 4481 -153 
L 6319 -153 
L 6319 -591 
L 1963 -591 
L 1963 -153 
z
M 988 5291 
L 1469 5291 
L 1469 4091 
L 1738 4241 
Q 2063 3734 2294 3291 
L 1906 3041 
Q 1688 3503 1469 3859 
L 1469 -872 
L 988 -872 
L 988 5291 
z
M 406 3878 
L 819 3784 
Q 706 3028 506 2178 
Q 338 2241 75 2297 
Q 263 2978 406 3878 
z
" transform="scale(0.015625)"/>
      <path id="MicrosoftYaHei-4e0e" d="M 1163 2384 
L 1163 2859 
L 1413 5328 
L 1931 5328 
L 1834 4334 
L 6269 4334 
L 6269 3859 
L 1791 3859 
L 1694 2859 
L 5813 2859 
Q 5738 1547 5644 416 
Q 5556 -247 5263 -478 
Q 4981 -703 4322 -703 
Q 3706 -697 2900 -678 
Q 2863 -466 2794 -134 
Q 3744 -203 4213 -209 
Q 5050 -266 5125 447 
Q 5206 1278 5263 2384 
L 1163 2384 
z
M 106 1409 
L 4738 1409 
L 4738 934 
L 106 934 
L 106 1409 
z
" transform="scale(0.015625)"/>
      <path id="MicrosoftYaHei-51e0" d="M 1475 4959 
L 4563 4959 
L 4563 328 
Q 4563 -78 4919 -78 
L 5269 -78 
Q 5619 -78 5669 303 
Q 5731 703 5781 1284 
Q 6025 1178 6325 1084 
Q 6244 466 6181 128 
Q 6069 -578 5356 -578 
L 4806 -578 
Q 4025 -578 4025 272 
L 4025 4478 
L 2013 4478 
L 2013 2897 
Q 2013 1409 1706 734 
Q 1369 -34 450 -734 
Q 300 -534 81 -278 
Q 925 347 1200 997 
Q 1475 1578 1475 2897 
L 1475 4959 
z
" transform="scale(0.015625)"/>
      <path id="MicrosoftYaHei-4f55" d="M 2288 3509 
L 4406 3509 
L 4406 1022 
L 2738 1022 
L 2738 703 
L 2288 703 
L 2288 3509 
z
M 2113 4847 
L 6306 4847 
L 6306 4384 
L 5756 4384 
L 5756 153 
Q 5756 -772 4906 -778 
Q 4613 -784 3913 -772 
Q 3875 -541 3813 -234 
Q 4344 -284 4794 -284 
Q 5269 -297 5269 234 
L 5269 4384 
L 2113 4384 
L 2113 4847 
z
M 56 2259 
Q 969 3628 1425 5303 
L 1925 5153 
Q 1688 4428 1425 3797 
L 1425 -841 
L 944 -841 
L 944 2784 
Q 631 2203 281 1722 
Q 188 1991 56 2259 
z
M 3956 3066 
L 2738 3066 
L 2738 1466 
L 3956 1466 
L 3956 3066 
z
" transform="scale(0.015625)"/>
     </defs>
     <use xlink:href="#MicrosoftYaHei-76f8"/>
     <use xlink:href="#MicrosoftYaHei-540c" x="100"/>
     <use xlink:href="#MicrosoftYaHei-672b" x="200"/>
     <use xlink:href="#MicrosoftYaHei-503c" x="300"/>
     <use xlink:href="#MicrosoftYaHei-73af" x="400"/>
     <use xlink:href="#MicrosoftYaHei-5883" x="500"/>
     <use xlink:href="#MicrosoftYaHei-4e0b" x="600"/>
     <use xlink:href="#MicrosoftYaHei-7684" x="700"/>
     <use xlink:href="#MicrosoftYaHei-7269" x="800"/>
     <use xlink:href="#MicrosoftYaHei-6027" x="900"/>
     <use xlink:href="#MicrosoftYaHei-4e0e" x="1000"/>
     <use xlink:href="#MicrosoftYaHei-51e0" x="1100"/>
     <use xlink:href="#MicrosoftYaHei-4f55" x="1200"/>
    </g>
   </g>
  </g>
  <g id="axes_2">
   <g id="patch_9">
    <path d="M 471.14926 315.888114 
L 807.59952 315.888114 
L 807.59952 35.279406 
L 471.14926 35.279406 
z
" style="fill: #ffffff"/>
   </g>
   <g id="matplotlib.axis_3">
    <g id="xtick_6">
     <g id="line2d_19">
      <path d="M 471.14926 315.888114 
L 471.14926 35.279406 
" clip-path="url(#p4e80be36ca)" style="fill: none; stroke: #d8dee6; stroke-opacity: 0.7; stroke-width: 0.55; stroke-linecap: square"/>
     </g>
     <g id="line2d_20">
      <g>
       <use xlink:href="#md9b29e1528" x="471.14926" y="315.888114" style="stroke: #000000; stroke-width: 0.8"/>
      </g>
     </g>
     <g id="text_16">
      <!-- $\mathdefault{0}$ -->
      <g transform="translate(468.49426 330.082489) scale(0.09 -0.09)">
       <use xlink:href="#MicrosoftYaHei-30" transform="translate(0 0.09375)"/>
      </g>
     </g>
    </g>
    <g id="xtick_7">
     <g id="line2d_21">
      <path d="M 521.827244 315.888114 
L 521.827244 35.279406 
" clip-path="url(#p4e80be36ca)" style="fill: none; stroke: #d8dee6; stroke-opacity: 0.7; stroke-width: 0.55; stroke-linecap: square"/>
     </g>
     <g id="line2d_22">
      <g>
       <use xlink:href="#md9b29e1528" x="521.827244" y="315.888114" style="stroke: #000000; stroke-width: 0.8"/>
      </g>
     </g>
     <g id="text_17">
      <!-- $\mathdefault{10}$ -->
      <g transform="translate(516.292244 330.082489) scale(0.09 -0.09)">
       <use xlink:href="#MicrosoftYaHei-31" transform="translate(0 0.703125)"/>
       <use xlink:href="#MicrosoftYaHei-30" transform="translate(63.392578 0.703125)"/>
      </g>
     </g>
    </g>
    <g id="xtick_8">
     <g id="line2d_23">
      <path d="M 572.505229 315.888114 
L 572.505229 35.279406 
" clip-path="url(#p4e80be36ca)" style="fill: none; stroke: #d8dee6; stroke-opacity: 0.7; stroke-width: 0.55; stroke-linecap: square"/>
     </g>
     <g id="line2d_24">
      <g>
       <use xlink:href="#md9b29e1528" x="572.505229" y="315.888114" style="stroke: #000000; stroke-width: 0.8"/>
      </g>
     </g>
     <g id="text_18">
      <!-- $\mathdefault{20}$ -->
      <g transform="translate(566.970229 330.082489) scale(0.09 -0.09)">
       <use xlink:href="#MicrosoftYaHei-32" transform="translate(0 0.09375)"/>
       <use xlink:href="#MicrosoftYaHei-30" transform="translate(63.892578 0.09375)"/>
      </g>
     </g>
    </g>
    <g id="xtick_9">
     <g id="line2d_25">
      <path d="M 623.183213 315.888114 
L 623.183213 35.279406 
" clip-path="url(#p4e80be36ca)" style="fill: none; stroke: #d8dee6; stroke-opacity: 0.7; stroke-width: 0.55; stroke-linecap: square"/>
     </g>
     <g id="line2d_26">
      <g>
       <use xlink:href="#md9b29e1528" x="623.183213" y="315.888114" style="stroke: #000000; stroke-width: 0.8"/>
      </g>
     </g>
     <g id="text_19">
      <!-- $\mathdefault{30}$ -->
      <g transform="translate(617.873213 330.082489) scale(0.09 -0.09)">
       <use xlink:href="#MicrosoftYaHei-33" transform="translate(0 0.09375)"/>
       <use xlink:href="#MicrosoftYaHei-30" transform="translate(58.642578 0.09375)"/>
      </g>
     </g>
    </g>
    <g id="xtick_10">
     <g id="line2d_27">
      <path d="M 673.861197 315.888114 
L 673.861197 35.279406 
" clip-path="url(#p4e80be36ca)" style="fill: none; stroke: #d8dee6; stroke-opacity: 0.7; stroke-width: 0.55; stroke-linecap: square"/>
     </g>
     <g id="line2d_28">
      <g>
       <use xlink:href="#md9b29e1528" x="673.861197" y="315.888114" style="stroke: #000000; stroke-width: 0.8"/>
      </g>
     </g>
     <g id="text_20">
      <!-- $\mathdefault{40}$ -->
      <g transform="translate(668.551197 330.082489) scale(0.09 -0.09)">
       <use xlink:href="#MicrosoftYaHei-34" transform="translate(0 0.09375)"/>
       <use xlink:href="#MicrosoftYaHei-30" transform="translate(58.642578 0.09375)"/>
      </g>
     </g>
    </g>
    <g id="xtick_11">
     <g id="line2d_29">
      <path d="M 724.539182 315.888114 
L 724.539182 35.279406 
" clip-path="url(#p4e80be36ca)" style="fill: none; stroke: #d8dee6; stroke-opacity: 0.7; stroke-width: 0.55; stroke-linecap: square"/>
     </g>
     <g id="line2d_30">
      <g>
       <use xlink:href="#md9b29e1528" x="724.539182" y="315.888114" style="stroke: #000000; stroke-width: 0.8"/>
      </g>
     </g>
     <g id="text_21">
      <!-- $\mathdefault{50}$ -->
      <g transform="translate(719.274182 330.082489) scale(0.09 -0.09)">
       <use xlink:href="#MicrosoftYaHei-35" transform="translate(0 0.09375)"/>
       <use xlink:href="#MicrosoftYaHei-30" transform="translate(58.142578 0.09375)"/>
      </g>
     </g>
    </g>
    <g id="xtick_12">
     <g id="line2d_31">
      <path d="M 775.217166 315.888114 
L 775.217166 35.279406 
" clip-path="url(#p4e80be36ca)" style="fill: none; stroke: #d8dee6; stroke-opacity: 0.7; stroke-width: 0.55; stroke-linecap: square"/>
     </g>
     <g id="line2d_32">
      <g>
       <use xlink:href="#md9b29e1528" x="775.217166" y="315.888114" style="stroke: #000000; stroke-width: 0.8"/>
      </g>
     </g>
     <g id="text_22">
      <!-- $\mathdefault{60}$ -->
      <g transform="translate(770.222166 330.082489) scale(0.09 -0.09)">
       <use xlink:href="#MicrosoftYaHei-36" transform="translate(0 0.09375)"/>
       <use xlink:href="#MicrosoftYaHei-30" transform="translate(51.892578 0.09375)"/>
      </g>
     </g>
    </g>
    <g id="text_23">
     <!-- 临界时长 / h -->
     <g style="fill: #20242a" transform="translate(611.200171 344.313582) scale(0.1 -0.1)">
      <use xlink:href="#MicrosoftYaHei-4e34"/>
      <use xlink:href="#MicrosoftYaHei-754c" x="100"/>
      <use xlink:href="#MicrosoftYaHei-65f6" x="200"/>
      <use xlink:href="#MicrosoftYaHei-957f" x="300"/>
      <use xlink:href="#MicrosoftYaHei-20" x="400"/>
      <use xlink:href="#MicrosoftYaHei-2f" x="429.589844"/>
      <use xlink:href="#MicrosoftYaHei-20" x="472.314453"/>
      <use xlink:href="#MicrosoftYaHei-68" x="501.904297"/>
     </g>
    </g>
   </g>
   <g id="matplotlib.axis_4">
    <g id="ytick_5">
     <g id="line2d_33">
      <path d="M 471.14926 87.618648 
L 807.59952 87.618648 
" clip-path="url(#p4e80be36ca)" style="fill: none; stroke: #d8dee6; stroke-opacity: 0.7; stroke-width: 0.55; stroke-linecap: square"/>
     </g>
     <g id="line2d_34">
      <g>
       <use xlink:href="#m767f82ed2f" x="471.14926" y="87.618648" style="stroke: #000000; stroke-width: 0.8"/>
      </g>
     </g>
     <g id="text_24">
      <!-- 末值 -->
      <g transform="translate(446.14926 91.215835) scale(0.09 -0.09)">
       <use xlink:href="#MicrosoftYaHei-672b"/>
       <use xlink:href="#MicrosoftYaHei-503c" x="100"/>
      </g>
     </g>
    </g>
    <g id="ytick_6">
     <g id="line2d_35">
      <path d="M 471.14926 263.548872 
L 807.59952 263.548872 
" clip-path="url(#p4e80be36ca)" style="fill: none; stroke: #d8dee6; stroke-opacity: 0.7; stroke-width: 0.55; stroke-linecap: square"/>
     </g>
     <g id="line2d_36">
      <g>
       <use xlink:href="#m767f82ed2f" x="471.14926" y="263.548872" style="stroke: #000000; stroke-width: 0.8"/>
      </g>
     </g>
     <g id="text_25">
      <!-- 末段均值 -->
      <g transform="translate(428.14926 267.14606) scale(0.09 -0.09)">
       <defs>
        <path id="MicrosoftYaHei-6bb5" d="M 2844 1978 
L 2844 2422 
L 5763 2422 
L 5763 1953 
Q 5397 1069 4731 416 
Q 5378 -63 6338 -266 
Q 6144 -516 6019 -747 
Q 5031 -456 4359 88 
Q 3638 -488 2631 -853 
Q 2450 -559 2331 -422 
Q 3313 -75 3997 428 
Q 3400 1069 3138 1978 
L 2844 1978 
z
M 88 722 
Q 325 744 569 769 
L 569 4897 
Q 1931 4972 2719 5116 
L 2888 4653 
Q 2175 4559 1031 4484 
L 1031 3616 
L 2613 3616 
L 2613 3203 
L 1031 3203 
L 1031 2259 
L 2594 2259 
L 2594 1847 
L 1031 1847 
L 1031 819 
Q 1891 916 2838 1041 
Q 2831 916 2831 591 
Q 1894 484 1031 366 
L 1031 -816 
L 569 -816 
L 569 303 
Q 381 275 200 247 
L 88 722 
z
M 5738 3209 
Q 5981 3209 6306 3228 
L 6219 2759 
Q 5906 2747 5625 2747 
Q 4988 2747 4988 3459 
L 4988 4553 
L 3831 4553 
L 3831 4216 
Q 3831 3053 2938 2522 
Q 2781 2709 2600 2909 
Q 3363 3272 3363 4241 
L 3363 4997 
L 5456 4997 
L 5456 3497 
Q 5456 3209 5738 3209 
z
M 5256 1978 
L 3613 1978 
Q 3863 1241 4363 731 
Q 4956 1275 5256 1978 
z
" transform="scale(0.015625)"/>
        <path id="MicrosoftYaHei-5747" d="M 2244 2803 
Q 2931 3953 3338 5322 
L 3838 5172 
Q 3691 4744 3531 4347 
L 6013 4347 
Q 5925 1053 5875 297 
Q 5831 -697 4806 -697 
Q 4188 -697 3706 -672 
Q 3669 -422 3606 -141 
L 3625 -141 
Q 4250 -209 4775 -209 
Q 5350 -209 5394 378 
Q 5456 1447 5513 3891 
L 3341 3891 
Q 3028 3172 2675 2572 
Q 2481 2691 2244 2803 
z
M 81 428 
Q 559 600 1006 769 
L 1006 3253 
L 169 3253 
L 169 3697 
L 1006 3697 
L 1006 5259 
L 1469 5259 
L 1469 3697 
L 2281 3697 
L 2281 3253 
L 1469 3253 
L 1469 947 
Q 1922 1125 2338 1303 
Q 2350 991 2369 784 
Q 1363 403 250 -53 
L 81 428 
z
M 2513 853 
Q 3769 1353 5119 1934 
Q 5150 1641 5188 1434 
Q 4031 947 2706 359 
L 2513 853 
z
M 3138 2909 
L 3481 3216 
Q 4025 2716 4531 2216 
L 4125 1859 
Q 3644 2409 3138 2909 
z
" transform="scale(0.015625)"/>
       </defs>
       <use xlink:href="#MicrosoftYaHei-672b"/>
       <use xlink:href="#MicrosoftYaHei-6bb5" x="100"/>
       <use xlink:href="#MicrosoftYaHei-5747" x="200"/>
       <use xlink:href="#MicrosoftYaHei-503c" x="300"/>
      </g>
     </g>
    </g>
   </g>
   <g id="patch_10">
    <path d="M 471.14926 48.034347 
L 728.71607 48.034347 
L 728.71607 127.202948 
L 471.14926 127.202948 
z
" clip-path="url(#p4e80be36ca)" style="fill: #0072b2; opacity: 0.85"/>
   </g>
   <g id="patch_11">
    <path d="M 471.14926 223.964572 
L 729.957152 223.964572 
L 729.957152 303.133172 
L 471.14926 303.133172 
z
" clip-path="url(#p4e80be36ca)" style="fill: #cc79a7; opacity: 0.85"/>
   </g>
   <g id="patch_12">
    <path d="M 471.14926 315.888114 
L 471.14926 35.279406 
" style="fill: none; stroke: #3d4652; stroke-width: 0.8; stroke-linejoin: miter; stroke-linecap: square"/>
   </g>
   <g id="patch_13">
    <path d="M 471.14926 315.888114 
L 807.59952 315.888114 
" style="fill: none; stroke: #3d4652; stroke-width: 0.8; stroke-linejoin: miter; stroke-linecap: square"/>
   </g>
   <g id="text_26">
    <!-- 50.8242 h -->
    <g style="fill: #20242a" transform="translate(730.74319 90.097164) scale(0.09 -0.09)">
     <use xlink:href="#MicrosoftYaHei-35"/>
     <use xlink:href="#MicrosoftYaHei-30" x="58.642578"/>
     <use xlink:href="#MicrosoftYaHei-2e" x="117.285156"/>
     <use xlink:href="#MicrosoftYaHei-38" x="141.357422"/>
     <use xlink:href="#MicrosoftYaHei-32" x="200"/>
     <use xlink:href="#MicrosoftYaHei-34" x="258.642578"/>
     <use xlink:href="#MicrosoftYaHei-32" x="317.285156"/>
     <use xlink:href="#MicrosoftYaHei-20" x="375.927734"/>
     <use xlink:href="#MicrosoftYaHei-68" x="405.517578"/>
    </g>
   </g>
   <g id="text_27">
    <!-- 51.0691 h -->
    <g style="fill: #20242a" transform="translate(731.984272 266.027388) scale(0.09 -0.09)">
     <use xlink:href="#MicrosoftYaHei-35"/>
     <use xlink:href="#MicrosoftYaHei-31" x="58.642578"/>
     <use xlink:href="#MicrosoftYaHei-2e" x="117.285156"/>
     <use xlink:href="#MicrosoftYaHei-30" x="141.357422"/>
     <use xlink:href="#MicrosoftYaHei-36" x="200"/>
     <use xlink:href="#MicrosoftYaHei-39" x="258.642578"/>
     <use xlink:href="#MicrosoftYaHei-31" x="317.285156"/>
     <use xlink:href="#MicrosoftYaHei-20" x="375.927734"/>
     <use xlink:href="#MicrosoftYaHei-68" x="405.517578"/>
    </g>
   </g>
   <g id="text_28">
    <!-- 附录 4 实测收缩的环境敏感性 -->
    <g style="fill: #20242a" transform="translate(566.893843 15.993125) scale(0.11 -0.11)">
     <defs>
      <path id="MicrosoftYaHei-654f" d="M 131 2272 
L 613 2272 
L 731 3684 
Q 572 3459 388 3259 
Q 238 3478 75 3634 
Q 763 4334 1056 5353 
L 1513 5272 
Q 1422 4984 1309 4722 
L 3550 4722 
L 3550 4322 
L 1125 4322 
Q 984 4053 819 3809 
L 3225 3809 
Q 3197 2963 3172 2272 
L 3663 2272 
L 3663 1872 
L 3159 1872 
Q 3131 1166 3106 659 
L 3588 659 
L 3588 259 
L 3088 259 
Q 3056 -684 2231 -684 
Q 1750 -684 1388 -672 
Q 1363 -416 1300 -178 
Q 1744 -222 2156 -222 
Q 2588 -222 2622 259 
L 444 259 
L 578 1872 
L 131 1872 
L 131 2272 
z
M 4306 5328 
L 4763 5253 
Q 4641 4706 4491 4209 
L 6263 4209 
L 6263 3784 
L 5922 3784 
Q 5806 2050 5159 853 
Q 5628 116 6331 -334 
Q 6169 -591 6038 -816 
Q 5347 -316 4878 397 
Q 4341 -375 3531 -878 
Q 3413 -728 3144 -478 
Q 4053 6 4606 863 
Q 4159 1738 3984 2884 
Q 3850 2594 3700 2328 
Q 3600 2497 3375 2728 
Q 4025 3841 4306 5328 
z
M 2697 1872 
L 1041 1872 
L 938 659 
L 2647 659 
Q 2675 1228 2697 1872 
z
M 1175 3409 
L 1075 2272 
L 2709 2272 
Q 2725 2816 2738 3409 
L 1175 3409 
z
M 5453 3784 
L 4350 3784 
Q 4322 3706 4297 3634 
Q 4434 2309 4884 1359 
Q 5363 2366 5453 3784 
z
M 1419 1559 
L 1781 1759 
Q 2056 1353 2269 972 
L 1881 766 
Q 1681 1172 1419 1559 
z
M 1506 3141 
L 1869 3347 
Q 2125 2959 2325 2597 
L 1944 2384 
Q 1725 2822 1506 3141 
z
" transform="scale(0.015625)"/>
      <path id="MicrosoftYaHei-611f" d="M 3531 1422 
Q 4013 1741 4388 2131 
Q 4022 2909 3944 4147 
L 1213 4147 
L 1213 3322 
Q 1213 1803 463 872 
Q 331 1134 138 1347 
Q 763 2034 763 3328 
L 763 4547 
L 3922 4547 
Q 3903 4928 3900 5284 
L 4363 5284 
Q 4363 4928 4378 4547 
L 6200 4547 
L 6200 4147 
L 4400 4147 
Q 4466 3184 4728 2531 
Q 5150 3088 5394 3772 
L 5819 3559 
Q 5456 2741 4947 2103 
Q 5059 1922 5194 1778 
Q 5344 1622 5475 1622 
Q 5594 1622 5669 1822 
Q 5763 2084 5856 2522 
Q 6019 2434 6319 2322 
Q 6175 1766 6069 1503 
Q 5888 1066 5538 1066 
Q 5250 1066 4925 1366 
Q 4756 1522 4616 1725 
Q 4278 1375 3888 1091 
Q 3738 1259 3531 1422 
z
M 1638 2891 
L 3563 2891 
L 3563 1541 
L 2063 1541 
L 2063 1366 
L 1638 1366 
L 1638 2891 
z
M 1713 997 
L 2188 997 
L 2188 134 
Q 2188 -253 2588 -253 
L 3713 -253 
Q 4194 -253 4263 109 
Q 4313 316 4375 778 
Q 4588 691 4869 591 
Q 4788 166 4706 -103 
Q 4556 -691 3813 -691 
L 2488 -691 
Q 1713 -691 1713 78 
L 1713 997 
z
M 1444 3697 
L 3719 3697 
L 3719 3322 
L 1444 3322 
L 1444 3697 
z
M 844 1028 
L 1288 853 
Q 969 47 594 -534 
Q 438 -441 175 -297 
Q 581 291 844 1028 
z
M 3138 1916 
L 3138 2516 
L 2063 2516 
L 2063 1916 
L 3138 1916 
z
M 5113 634 
L 5463 884 
Q 5863 422 6275 -166 
L 5863 -459 
Q 5563 34 5113 634 
z
M 2706 1072 
L 3044 1328 
Q 3456 891 3781 491 
L 3388 191 
Q 3050 678 2706 1072 
z
M 5656 4866 
L 5350 4559 
Q 5081 4809 4763 5066 
L 5038 5353 
Q 5363 5116 5656 4866 
z
" transform="scale(0.015625)"/>
     </defs>
     <use xlink:href="#MicrosoftYaHei-9644"/>
     <use xlink:href="#MicrosoftYaHei-5f55" x="100"/>
     <use xlink:href="#MicrosoftYaHei-20" x="200"/>
     <use xlink:href="#MicrosoftYaHei-34" x="229.589844"/>
     <use xlink:href="#MicrosoftYaHei-20" x="288.232422"/>
     <use xlink:href="#MicrosoftYaHei-5b9e" x="317.822266"/>
     <use xlink:href="#MicrosoftYaHei-6d4b" x="417.822266"/>
     <use xlink:href="#MicrosoftYaHei-6536" x="517.822266"/>
     <use xlink:href="#MicrosoftYaHei-7f29" x="617.822266"/>
     <use xlink:href="#MicrosoftYaHei-7684" x="717.822266"/>
     <use xlink:href="#MicrosoftYaHei-73af" x="817.822266"/>
     <use xlink:href="#MicrosoftYaHei-5883" x="917.822266"/>
     <use xlink:href="#MicrosoftYaHei-654f" x="1017.822266"/>
     <use xlink:href="#MicrosoftYaHei-611f" x="1117.822266"/>
     <use xlink:href="#MicrosoftYaHei-6027" x="1217.822266"/>
    </g>
    <!-- 均值延拓变化 +14.69 min -->
    <g style="fill: #20242a" transform="translate(574.807827 29.279406) scale(0.11 -0.11)">
     <defs>
      <path id="MicrosoftYaHei-5ef6" d="M 600 2066 
Q 825 1325 1234 834 
Q 1594 1525 1688 2391 
L 331 2391 
L 331 2853 
L 1544 4259 
L 150 4259 
L 150 4722 
L 2156 4722 
L 2156 4247 
L 956 2853 
L 2181 2853 
L 2181 2434 
Q 2063 1325 1597 478 
Q 2300 -88 3394 -128 
Q 4706 -184 6319 -97 
Q 6213 -359 6113 -616 
Q 4369 -622 3519 -603 
Q 2188 -597 1344 72 
Q 975 -450 450 -859 
Q 331 -672 125 -459 
Q 631 -72 978 416 
Q 463 997 188 1909 
L 600 2066 
z
M 2813 3547 
L 3300 3547 
L 3300 1134 
L 4144 1134 
L 4144 4416 
Q 3444 4369 2613 4328 
Q 2556 4609 2506 4797 
Q 4213 4853 5944 5053 
L 6050 4578 
Q 5441 4509 4631 4450 
L 4631 3128 
L 5981 3128 
L 5981 2666 
L 4631 2666 
L 4631 1134 
L 6094 1134 
L 6094 666 
L 2813 666 
L 2813 3547 
z
" transform="scale(0.015625)"/>
      <path id="MicrosoftYaHei-62d3" d="M 1644 1147 
Q 3041 2334 3728 4378 
L 2400 4378 
L 2400 4866 
L 6144 4866 
L 6144 4378 
L 4259 4378 
Q 3947 3375 3438 2528 
L 5950 2528 
L 5950 -778 
L 5475 -778 
L 5475 -272 
L 3375 -272 
L 3375 -778 
L 2900 -778 
L 2900 1738 
Q 2522 1253 2069 828 
Q 1913 978 1644 1147 
z
M 106 1884 
Q 553 2022 1038 2178 
L 1038 3597 
L 181 3597 
L 181 4028 
L 1038 4028 
L 1038 5266 
L 1538 5266 
L 1538 4028 
L 2363 4028 
L 2363 3597 
L 1538 3597 
L 1538 2341 
Q 1928 2472 2344 2616 
Q 2369 2303 2381 2122 
Q 1959 1978 1538 1831 
L 1538 -28 
Q 1538 -734 931 -753 
Q 663 -766 225 -753 
Q 188 -491 131 -234 
Q 563 -272 763 -266 
Q 1038 -259 1038 53 
L 1038 1656 
Q 619 1509 200 1359 
L 106 1884 
z
M 5475 2109 
L 3375 2109 
L 3375 134 
L 5475 134 
L 5475 2109 
z
" transform="scale(0.015625)"/>
      <path id="MicrosoftYaHei-53d8" d="M 838 1634 
L 838 2066 
L 5088 2066 
L 5088 1634 
Q 4494 853 3659 309 
Q 4675 -178 6313 -297 
Q 6088 -609 5950 -822 
Q 4275 -594 3178 34 
Q 2122 -509 425 -866 
Q 269 -622 106 -403 
Q 1741 -122 2728 328 
Q 2047 838 1553 1634 
L 838 1634 
z
M 231 4534 
L 3081 4534 
Q 2888 4884 2725 5141 
L 3175 5359 
Q 3481 4884 3600 4659 
L 3359 4534 
L 6200 4534 
L 6200 4091 
L 4181 4091 
L 4181 2353 
L 3700 2353 
L 3700 4091 
L 2694 4091 
L 2694 2341 
L 2213 2341 
L 2213 4091 
L 231 4091 
L 231 4534 
z
M 4475 1634 
L 2116 1634 
Q 2575 953 3197 572 
Q 3947 1016 4475 1634 
z
M 4556 3434 
L 4900 3728 
Q 5700 3009 6213 2459 
L 5825 2116 
Q 5219 2797 4556 3434 
z
M 1381 3741 
L 1756 3422 
Q 1119 2691 500 2097 
Q 344 2272 138 2447 
Q 794 3009 1381 3741 
z
" transform="scale(0.015625)"/>
      <path id="MicrosoftYaHei-5316" d="M 1844 1453 
Q 2663 1834 3375 2331 
L 3375 5197 
L 3913 5197 
L 3913 2734 
Q 4869 3506 5613 4516 
L 6069 4184 
Q 5159 2975 3913 2069 
L 3913 303 
Q 3913 -122 4363 -122 
L 5156 -122 
Q 5581 -122 5650 284 
Q 5738 709 5763 1266 
Q 6025 1166 6313 1084 
Q 6263 559 6181 122 
Q 6063 -597 5281 -597 
L 4225 -597 
Q 3375 -597 3375 241 
L 3375 1703 
Q 2791 1328 2144 1016 
Q 2013 1222 1844 1453 
z
M 88 2222 
Q 1175 3666 1688 5291 
L 2231 5134 
Q 1934 4359 1588 3675 
L 1588 -797 
L 1063 -797 
L 1063 2734 
Q 716 2172 325 1678 
Q 219 1947 88 2222 
z
" transform="scale(0.015625)"/>
      <path id="MicrosoftYaHei-2b" d="M 3972 1772 
L 2613 1772 
L 2613 419 
L 2141 419 
L 2141 1772 
L 788 1772 
L 788 2250 
L 2141 2250 
L 2141 3603 
L 2613 3603 
L 2613 2250 
L 3972 2250 
L 3972 1772 
z
" transform="scale(0.015625)"/>
      <path id="MicrosoftYaHei-6d" d="M 5522 0 
L 4909 0 
L 4909 1984 
Q 4909 2547 4734 2789 
Q 4559 3031 4159 3031 
Q 3822 3031 3581 2715 
Q 3341 2400 3341 1969 
L 3341 0 
L 2728 0 
L 2728 2047 
Q 2728 3031 1969 3031 
Q 1619 3031 1389 2731 
Q 1159 2431 1159 1966 
L 1159 0 
L 547 0 
L 547 3456 
L 1159 3456 
L 1159 2909 
L 1172 2909 
Q 1541 3538 2250 3538 
Q 2597 3538 2862 3347 
Q 3128 3156 3231 2831 
Q 3616 3538 4381 3538 
Q 5522 3538 5522 2131 
L 5522 0 
z
" transform="scale(0.015625)"/>
      <path id="MicrosoftYaHei-69" d="M 472 4675 
Q 472 4838 583 4948 
Q 694 5059 856 5059 
Q 1022 5059 1136 4950 
Q 1250 4841 1250 4675 
Q 1250 4513 1136 4405 
Q 1022 4297 856 4297 
Q 691 4297 581 4405 
Q 472 4513 472 4675 
z
M 544 0 
L 544 3456 
L 1156 3456 
L 1156 0 
L 544 0 
z
" transform="scale(0.015625)"/>
      <path id="MicrosoftYaHei-6e" d="M 3469 0 
L 2859 0 
L 2859 1966 
Q 2859 3031 2081 3031 
Q 1678 3031 1418 2731 
Q 1159 2431 1159 1972 
L 1159 0 
L 547 0 
L 547 3456 
L 1159 3456 
L 1159 2884 
L 1172 2884 
Q 1563 3538 2306 3538 
Q 2875 3538 3172 3173 
Q 3469 2809 3469 2113 
L 3469 0 
z
" transform="scale(0.015625)"/>
     </defs>
     <use xlink:href="#MicrosoftYaHei-5747"/>
     <use xlink:href="#MicrosoftYaHei-503c" x="100"/>
     <use xlink:href="#MicrosoftYaHei-5ef6" x="200"/>
     <use xlink:href="#MicrosoftYaHei-62d3" x="300"/>
     <use xlink:href="#MicrosoftYaHei-53d8" x="400"/>
     <use xlink:href="#MicrosoftYaHei-5316" x="500"/>
     <use xlink:href="#MicrosoftYaHei-20" x="600"/>
     <use xlink:href="#MicrosoftYaHei-2b" x="629.589844"/>
     <use xlink:href="#MicrosoftYaHei-31" x="703.759766"/>
     <use xlink:href="#MicrosoftYaHei-34" x="762.402344"/>
     <use xlink:href="#MicrosoftYaHei-2e" x="821.044922"/>
     <use xlink:href="#MicrosoftYaHei-36" x="845.117188"/>
     <use xlink:href="#MicrosoftYaHei-39" x="903.759766"/>
     <use xlink:href="#MicrosoftYaHei-20" x="962.402344"/>
     <use xlink:href="#MicrosoftYaHei-6d" x="991.992188"/>
     <use xlink:href="#MicrosoftYaHei-69" x="1085.693359"/>
     <use xlink:href="#MicrosoftYaHei-6e" x="1112.304688"/>
    </g>
   </g>
  </g>
 </g>
 <defs>
  <clipPath id="p50f1d8a956">
   <rect x="83.635" y="35.279406" width="336.45026" height="280.608707"/>
  </clipPath>
  <clipPath id="p4e80be36ca">
   <rect x="471.14926" y="35.279406" width="336.45026" height="280.608707"/>
  </clipPath>
 </defs>
 <defs>
  <pattern id="hcf1c25dc1f" patternUnits="userSpaceOnUse" x="0" y="0" width="72" height="72">
   <rect x="0" y="0" width="73" height="73" fill="#e69f00"/>
   <path d="M -36 36 
L 36 -36 
M -32 40 
L 40 -32 
M -28 44 
L 44 -28 
M -24 48 
L 48 -24 
M -20 52 
L 52 -20 
M -16 56 
L 56 -16 
M -12 60 
L 60 -12 
M -8 64 
L 64 -8 
M -4 68 
L 68 -4 
M 0 72 
L 72 0 
M 4 76 
L 76 4 
M 8 80 
L 80 8 
M 12 84 
L 84 12 
M 16 88 
L 88 16 
M 20 92 
L 92 20 
M 24 96 
L 96 24 
M 28 100 
L 100 28 
M 32 104 
L 104 32 
M 36 108 
L 108 36 
" style="fill: #000000; stroke: #000000; stroke-width: 1.0; stroke-linecap: butt; stroke-linejoin: miter"/>
  </pattern>
 </defs>
</svg>
